<?xml version="1.0" encoding="UTF-8" standalone="no"?>
<svg
   xmlns:dc="http://purl.org/dc/elements/1.1/"
   xmlns:cc="http://creativecommons.org/ns#"
   xmlns:rdf="http://www.w3.org/1999/02/22-rdf-syntax-ns#"
   xmlns:svg="http://www.w3.org/2000/svg"
   xmlns="http://www.w3.org/2000/svg"
   style="overflow:visible"
   xml:space="preserve"
   id="Layer_1"
   viewBox="0 0 501.33 750.731"
   height="750.73102"
   width="501.32999"
   version="1.0"><metadata
   id="metadata810"><rdf:RDF><cc:Work
       rdf:about=""><dc:format>image/svg+xml</dc:format><dc:type
         rdf:resource="http://purl.org/dc/dcmitype/StillImage" /><dc:title></dc:title></cc:Work></rdf:RDF></metadata><defs
   id="defs752">
	
	
</defs>




































































































































































































































































































<g
   id="g1570"><path
     id="polygon3"
     d="m 236.8995,253.30905 1.615,0.095 -0.2375,3.23 -1.615,-0.1425 z" /><path
     id="polygon5"
     d="m 236.472,259.72155 1.615,0.095 -0.2375,3.23 -1.615,-0.095 z" /><path
     id="polygon7"
     d="m 236.0445,266.18155 1.615,0.095 -0.2375,3.23 -1.615,-0.095 z" /><path
     id="rect9"
     d="m 236.99534,275.90493 -1.6151,-0.0951 0.19026,-3.2302 1.6151,0.0951 z" /><path
     id="rect11"
     d="m 236.56771,282.3653 -1.6151,-0.0951 0.19026,-3.2302 1.6151,0.0951 z" /><path
     id="polygon13"
     d="m 234.7145,285.46655 1.615,0.1425 -0.2375,3.1825 -1.615,-0.095 z" /><path
     id="polygon15"
     d="m 234.287,291.92655 1.615,0.095 -0.2375,3.23 -1.615,-0.095 z" /><path
     id="polygon17"
     d="m 233.8595,298.33905 1.615,0.1425 -0.2375,3.1825 -1.615,-0.095 z" /><path
     id="rect19"
     d="m 234.80576,308.12097 -1.6151,-0.0947 0.18929,-3.2302 1.6151,0.0947 z" /><path
     id="polygon21"
     d="m 232.957,311.21155 1.615,0.1425 -0.2375,3.23 -1.5675,-0.1425 z" /><path
     id="polygon23"
     d="m 232.5295,317.67155 1.615,0.095 -0.2375,3.23 -1.615,-0.095 z" /><path
     id="polygon25"
     d="m 232.102,324.08405 1.615,0.1425 -0.0475,0.7125 -1.5675,-0.8075 z" /><path
     id="polygon27"
     d="m 231.1995,336.95655 1.615,0.1425 -0.19,3.23 -1.615,-0.1425 z" /><path
     id="polygon29"
     d="m 230.772,343.41655 1.615,0.095 -0.2375,3.23 -1.615,-0.095 z" /><path
     id="polygon31"
     d="m 230.3445,349.87655 1.615,0.095 -0.2375,3.23 -1.615,-0.1425 z" /><path
     id="polygon33"
     d="m 229.917,356.28905 1.615,0.095 -0.2375,3.23 -1.615,-0.095 z" /><path
     id="polygon35"
     d="m 229.442,362.74905 1.615,0.095 -0.19,3.23 -1.615,-0.1425 z" /><path
     id="rect37"
     d="m 230.43543,372.48259 -1.6151,-0.0947 0.18929,-3.23019 1.6151,0.0946 z" /><path
     id="polygon39"
     d="m 228.587,375.62155 1.615,0.095 -0.2375,3.23 -1.615,-0.095 z" /><path
     id="polygon41"
     d="m 228.1595,382.03405 1.615,0.0941 -0.2375,3.23095 -1.615,-0.095 z" /><path
     id="polygon43"
     d="m 227.732,388.49405 1.5675,0.095 -0.19,3.23 -1.615,-0.095 z" /><path
     id="polygon45"
     d="m 227.257,394.90655 1.615,0.1425 -0.19,3.1825 -1.615,-0.095 z" /><path
     id="polygon47"
     d="m 226.8295,401.3656 1.615,0.096 -0.2375,3.22905 -1.5675,-0.0941 z" /><path
     id="polygon49"
     d="m 226.402,407.7781 1.615,0.14345 -0.2375,3.18155 -1.615,-0.094 z" /><path
     id="polygon51"
     d="m 225.9745,414.23905 1.615,0.095 -0.2375,3.23 -1.615,-0.095 z" /><path
     id="polygon53"
     d="m 225.4995,420.65155 1.615,0.1425 -0.19,3.23 -1.615,-0.1425 z" /><path
     id="rect55"
     d="m 226.49298,430.4319 -1.6151,-0.0946 0.18929,-3.2302 1.6151,0.0946 z" /><path
     id="polygon57"
     d="m 224.6445,433.52405 1.615,0.14155 -0.2375,3.23095 -1.615,-0.14345 z" /><path
     id="polygon59"
     d="m 224.217,439.98405 1.615,0.094 -0.2375,3.23095 -1.615,-0.095 z" /><path
     id="polygon61"
     d="m 223.7895,446.39655 1.615,0.1425 -0.2375,3.23 -1.615,-0.1425 z" /><path
     id="rect63"
     d="m 224.73955,456.15555 -1.6151,-0.0956 0.19117,-3.22925 1.6151,0.0956 z" /><path
     id="polygon65"
     d="m 222.887,459.3156 1.615,0.0959 -0.19,3.22905 -1.615,-0.14155 z" /><path
     id="polygon67"
     d="m 222.4595,465.7281 1.615,0.096 -0.2375,3.22905 -1.615,-0.094 z" /><g
     id="g69"
     transform="matrix(0.95,0,0,0.95,12.53325,18.7683)">
	<path
   id="path71"
   d="m 188.803,202.935 v -17.188 h 2.34 l 9.004,13.488 v -13.488 h 2.188 v 17.188 h -2.34 l -9.004,-13.489 v 13.489 z" />
</g><path
     id="polygon73"
     d="m 144.987,175.02905 -0.95,-0.1425 0.0475,-1.1875 26.4575,-26.4575 0.285,1.9475 z" /><path
     id="polygon75"
     d="m 161.5645,207.56655 -0.4275,0.9025 -0.8075,0.19 -16.9575,-33.2975 0.665,-0.475 0.95,0.1425 z" /><path
     id="polygon77"
     d="m 189.827,201.77155 0.285,1.615 -28.1675,5.7475 -0.8075,-0.665 0.4275,-0.9025 z" /><path
     id="polygon79"
     d="m 203.3645,165.76655 0.9025,-0.4275 0.7125,0.5225 -5.795,27.55 -1.615,-0.3325 z" /><path
     id="rect81"
     d="m 193.60804,192.2638 -1.56787,-0.33223 4.97104,-23.45953 1.56787,0.33222 z" /><path
     id="polygon83"
     d="m 170.827,149.18905 -0.285,-1.9475 33.725,17.195 v 0.9025 l -0.9025,0.4275 z" /><g
     id="g85"
     transform="matrix(0.95,0,0,0.95,12.53325,18.7683)">
	<path
   id="path87"
   d="m 271.902,202.935 v -17.188 h 2.34 l 9.004,13.488 v -13.488 h 2.188 v 17.188 h -2.34 l -9.004,-13.489 v 13.489 z" />
</g><path
     id="polygon89"
     d="m 272.3345,165.76655 -0.95,-0.4275 v -0.9025 l 33.25,-16.91 0.33155,0.7125 -0.1406,0.95 z" /><path
     id="polygon91"
     d="m 278.082,193.07905 -1.5675,0.3325 -5.8425,-27.55 0.7125,-0.5225 0.95,0.4275 z" /><path
     id="polygon93"
     d="m 314.08795,207.56655 0.42655,0.9025 -0.52345,0.7125 -28.5,-5.795 0.3344,-1.615 z" /><path
     id="polygon95"
     d="m 311.427,201.24905 -0.3325,1.5675 -24.4625,-4.9875 0.3325,-1.5675 z" /><path
     id="polygon97"
     d="m 330.6645,175.02905 1.94845,-0.285 -17.1969,33.725 h -0.90155 l -0.42655,-0.9025 z" /><path
     id="polygon99"
     d="m 304.82545,149.18905 0.1406,-0.95 1.37845,0.2375 26.26845,26.2675 -1.94845,0.285 z" /><path
     id="polygon101"
     d="m 237.042,147.76405 0.8075,0.475 v 0.9025 l -32.87,16.72 -0.7125,-0.5225 v -0.9025 z" /><path
     id="polygon103"
     d="m 237.8495,149.14155 v -0.9025 l 0.8075,-0.475 32.7275,16.6725 v 0.9025 l -0.7125,0.5225 z" /><path
     id="polygon105"
     d="m 237.4695,155.31655 0.7125,-1.4725 28.4525,14.4875 -0.7125,1.4725 z" /><path
     id="polygon107"
     d="m 332.51605,242.05155 h -1.8031 l -16.7219,-32.87 0.52345,-0.7125 h 0.90155 z" /><g
     id="g109"
     transform="matrix(0.95,0,0,0.95,12.53325,18.7683)">
	<path
   id="path111"
   d="m 271.902,285.984 v -17.188 h 2.34 l 9.004,13.488 v -13.488 h 2.188 v 17.188 h -2.34 l -9.004,-13.489 v 13.489 z" />
</g><path
     id="polygon113"
     d="m 305.157,336.81405 -0.33155,-1.9475 25.83905,-25.84 0.99845,0.1425 0.3781,0.76 z" /><path
     id="polygon115"
     d="m 271.3845,319.61905 v -0.9025 l 0.95,-0.4275 32.49095,16.5775 0.33155,1.9475 z" /><path
     id="polygon117"
     d="m 276.5145,292.16405 1.5675,0.3325 -5.7475,25.7925 -0.95,0.4275 -0.7125,-0.5225 z" /><path
     id="polygon119"
     d="m 282.02545,293.39905 1.5656,0.3325 -4.84405,21.85 -1.615,-0.38 z" /><path
     id="polygon121"
     d="m 313.99105,274.87405 0.52345,0.7125 -0.42655,0.9025 -28.2625,5.795 -0.3344,-1.5675 z" /><path
     id="polygon123"
     d="m 332.04105,308.17155 -0.3781,0.9975 -0.99845,-0.1425 -16.57655,-32.5375 0.42655,-0.9025 h 0.90155 z" /><path
     id="polygon125"
     d="m 330.71295,242.05155 h 1.8031 l -17.1,33.535 h -0.90155 l -0.52345,-0.7125 z" /><path
     id="polygon127"
     d="m 324.5845,241.67155 1.425,0.7125 -14.4875,28.4525 -1.425,-0.7125 z" /><path
     id="polygon129"
     d="m 238.657,336.33905 -0.8075,-0.5225 v -0.9025 l 32.8225,-16.72 0.7125,0.5225 v 0.9025 z" /><g
     id="g131"
     transform="matrix(0.95,0,0,0.95,12.53325,18.7683)">
	<path
   id="path133"
   d="m 188.803,285.984 v -17.188 h 2.34 l 9.004,13.488 v -13.488 h 2.188 v 17.188 h -2.34 l -9.004,-13.489 v 13.489 z" />
</g><path
     id="polygon135"
     d="m 203.3645,318.28905 0.9025,0.4275 v 0.9025 l -32.585,16.625 -0.9975,-0.38 0.1425,-0.9975 z" /><path
     id="polygon137"
     d="m 197.5695,292.49655 1.615,-0.3325 5.795,26.03 -0.7125,0.5225 -0.9025,-0.4275 z" /><path
     id="polygon139"
     d="m 161.5645,276.48905 -0.4275,-0.9025 0.8075,-0.665 28.1675,5.795 -0.285,1.5675 z" /><path
     id="polygon141"
     d="m 144.987,309.02655 -0.95,0.1425 -0.5225,-0.76 16.3875,-32.1575 1.235,-0.665 0.4275,0.9025 z" /><path
     id="polygon143"
     d="m 170.827,334.86655 -0.1425,0.9975 -0.76,0.38 -26.1725,-26.1725 0.285,-0.9025 0.95,-0.1425 z" /><path
     id="polygon145"
     d="m 237.8495,334.91405 v 0.9025 l -0.8075,0.5225 -32.775,-16.72 v -0.9025 l 0.7125,-0.5225 z" /><path
     id="polygon147"
     d="m 238.182,328.78655 -0.7125,1.425 -28.4525,-14.4875 0.76,-1.425 z" /><g
     id="g149"
     transform="matrix(0.95,0,0,0.95,12.53325,18.7683)">
	<path
   id="path151"
   d="m 242.519,238.357 2.281,0.574 c -0.476,1.87 -1.333,3.296 -2.569,4.277 -1.237,0.982 -2.75,1.473 -4.537,1.473 -1.85,0 -3.354,-0.377 -4.513,-1.132 -1.159,-0.755 -2.041,-1.847 -2.646,-3.278 -0.605,-1.431 -0.907,-2.967 -0.907,-4.609 0,-1.791 0.341,-3.353 1.024,-4.686 0.683,-1.334 1.654,-2.346 2.915,-3.038 1.26,-0.692 2.646,-1.038 4.16,-1.038 1.717,0 3.16,0.438 4.33,1.314 1.171,0.877 1.986,2.109 2.446,3.697 l -2.234,0.527 c -0.398,-1.25 -0.975,-2.16 -1.731,-2.73 -0.757,-0.57 -1.709,-0.855 -2.855,-0.855 -1.318,0 -2.42,0.316 -3.306,0.949 -0.885,0.633 -1.507,1.482 -1.866,2.549 -0.359,1.067 -0.538,2.166 -0.538,3.299 0,1.461 0.212,2.736 0.637,3.826 0.425,1.09 1.085,1.904 1.982,2.443 0.897,0.539 1.867,0.809 2.912,0.809 1.271,0 2.346,-0.367 3.227,-1.102 0.881,-0.735 1.476,-1.823 1.788,-3.269 z" />
	<path
   id="path153"
   d="m 246.554,238.158 c 0,-2.307 0.641,-4.014 1.921,-5.124 1.07,-0.923 2.375,-1.384 3.913,-1.384 1.71,0 3.108,0.561 4.194,1.683 1.085,1.122 1.628,2.672 1.628,4.649 0,1.603 -0.24,2.863 -0.721,3.781 -0.48,0.919 -1.179,1.632 -2.097,2.141 -0.918,0.508 -1.92,0.762 -3.005,0.762 -1.741,0 -3.149,-0.559 -4.223,-1.677 -1.074,-1.118 -1.61,-2.727 -1.61,-4.831 z m 2.172,0.002 c 0,1.595 0.347,2.788 1.041,3.582 0.694,0.793 1.567,1.189 2.621,1.189 1.045,0 1.915,-0.398 2.609,-1.195 0.694,-0.798 1.041,-2.013 1.041,-3.646 0,-1.539 -0.349,-2.706 -1.047,-3.5 -0.698,-0.793 -1.566,-1.189 -2.604,-1.189 -1.054,0 -1.927,0.395 -2.621,1.184 -0.694,0.789 -1.04,1.981 -1.04,3.575 z" />
</g><g
     id="g155"
     transform="matrix(0.95,0,0,0.95,12.53325,18.7683)">
	<path
   id="path157"
   d="m 260.007,233.307 v -3.531 h -3.5 v -1.484 h 3.5 v -3.5 h 1.5 v 3.5 h 3.5 v 1.484 h -3.5 v 3.531 z" />
</g><g
     id="g159"
     transform="matrix(0.95,0,0,0.95,12.53325,18.7683)">
	<path
   id="path161"
   d="m 242.619,100.058 2.281,0.574 c -0.476,1.87 -1.333,3.296 -2.569,4.277 -1.237,0.982 -2.75,1.473 -4.537,1.473 -1.85,0 -3.354,-0.377 -4.513,-1.132 -1.159,-0.755 -2.041,-1.847 -2.646,-3.278 -0.605,-1.431 -0.907,-2.967 -0.907,-4.609 0,-1.791 0.341,-3.353 1.024,-4.686 0.683,-1.334 1.654,-2.346 2.915,-3.038 1.26,-0.692 2.646,-1.038 4.16,-1.038 1.717,0 3.16,0.438 4.33,1.314 1.171,0.877 1.986,2.109 2.446,3.697 l -2.234,0.527 c -0.398,-1.25 -0.975,-2.16 -1.731,-2.73 -0.757,-0.57 -1.709,-0.855 -2.855,-0.855 -1.318,0 -2.42,0.316 -3.306,0.949 -0.885,0.633 -1.507,1.482 -1.866,2.549 -0.359,1.067 -0.538,2.166 -0.538,3.299 0,1.461 0.212,2.736 0.637,3.826 0.425,1.09 1.085,1.904 1.982,2.443 0.897,0.539 1.867,0.809 2.912,0.809 1.271,0 2.346,-0.367 3.227,-1.102 0.881,-0.735 1.476,-1.824 1.788,-3.269 z" />
	<path
   id="path163"
   d="M 247.794,106.085 V 88.897 h 2.282 v 7.063 h 8.891 v -7.063 h 2.281 v 17.188 h -2.281 v -8.094 h -8.891 v 8.094 z" />
</g><g
     id="g165"
     transform="matrix(0.95,0,0,0.95,12.53325,18.7683)">
	<path
   id="path167"
   d="m 262.845,107.179 1.578,-0.219 c 0.183,0.896 0.492,1.543 0.928,1.938 0.437,0.396 0.972,0.594 1.607,0.594 0.753,0 1.386,-0.258 1.899,-0.773 0.512,-0.515 0.769,-1.153 0.769,-1.914 0,-0.727 -0.238,-1.325 -0.716,-1.797 -0.477,-0.471 -1.084,-0.707 -1.819,-0.707 -0.301,0 -0.675,0.059 -1.122,0.176 l 0.177,-1.391 c 0.106,0.012 0.191,0.018 0.256,0.018 0.675,0 1.281,-0.176 1.821,-0.526 0.539,-0.351 0.81,-0.892 0.81,-1.623 0,-0.579 -0.197,-1.059 -0.591,-1.438 -0.395,-0.38 -0.902,-0.57 -1.525,-0.57 -0.617,0 -1.132,0.194 -1.543,0.582 -0.412,0.389 -0.677,0.971 -0.794,1.746 l -1.578,-0.281 c 0.193,-1.062 0.634,-1.885 1.32,-2.469 0.687,-0.583 1.54,-0.875 2.561,-0.875 0.704,0 1.353,0.15 1.944,0.452 0.593,0.301 1.046,0.712 1.36,1.232 0.313,0.521 0.471,1.073 0.471,1.658 0,0.556 -0.149,1.062 -0.448,1.518 -0.299,0.456 -0.741,0.818 -1.327,1.088 0.762,0.176 1.354,0.54 1.779,1.095 0.425,0.553 0.637,1.246 0.637,2.078 0,1.125 -0.411,2.079 -1.233,2.861 -0.821,0.783 -1.86,1.174 -3.116,1.174 -1.134,0 -2.074,-0.336 -2.822,-1.01 -0.751,-0.674 -1.178,-1.547 -1.283,-2.617 z" />
</g><path
     id="polygon169"
     d="m 237.042,121.92405 h 1.615 v 25.84 l -0.8075,0.475 -0.8075,-0.475 z" /><g
     id="g171"
     transform="matrix(0.95,0,0,0.95,12.53325,18.7683)">
	<path
   id="path173"
   d="m 242.619,376.808 2.281,0.574 c -0.476,1.87 -1.333,3.296 -2.569,4.277 -1.237,0.982 -2.75,1.473 -4.537,1.473 -1.85,0 -3.354,-0.377 -4.513,-1.132 -1.159,-0.755 -2.041,-1.847 -2.646,-3.278 -0.605,-1.431 -0.907,-2.967 -0.907,-4.609 0,-1.791 0.341,-3.353 1.024,-4.686 0.683,-1.334 1.654,-2.346 2.915,-3.038 1.26,-0.692 2.646,-1.038 4.16,-1.038 1.717,0 3.16,0.438 4.33,1.314 1.171,0.877 1.986,2.109 2.446,3.697 l -2.234,0.527 c -0.398,-1.25 -0.975,-2.16 -1.731,-2.73 -0.757,-0.57 -1.709,-0.855 -2.855,-0.855 -1.318,0 -2.42,0.316 -3.306,0.949 -0.885,0.633 -1.507,1.482 -1.866,2.549 -0.359,1.067 -0.538,2.166 -0.538,3.299 0,1.461 0.212,2.736 0.637,3.826 0.425,1.09 1.085,1.904 1.982,2.443 0.897,0.539 1.867,0.809 2.912,0.809 1.271,0 2.346,-0.367 3.227,-1.102 0.881,-0.735 1.476,-1.824 1.788,-3.269 z" />
	<path
   id="path175"
   d="m 247.794,382.835 v -17.188 h 2.282 v 7.063 h 8.891 v -7.063 h 2.281 v 17.188 h -2.281 v -8.094 h -8.891 v 8.094 z" />
</g><g
     id="g177"
     transform="matrix(0.95,0,0,0.95,12.53325,18.7683)">
	<path
   id="path179"
   d="m 262.845,383.929 1.578,-0.219 c 0.183,0.896 0.492,1.543 0.928,1.938 0.437,0.396 0.972,0.594 1.607,0.594 0.753,0 1.386,-0.258 1.899,-0.773 0.512,-0.515 0.769,-1.153 0.769,-1.914 0,-0.727 -0.238,-1.325 -0.716,-1.797 -0.477,-0.471 -1.084,-0.707 -1.819,-0.707 -0.301,0 -0.675,0.059 -1.122,0.176 l 0.177,-1.391 c 0.106,0.012 0.191,0.018 0.256,0.018 0.675,0 1.281,-0.176 1.821,-0.526 0.539,-0.351 0.81,-0.892 0.81,-1.623 0,-0.579 -0.197,-1.059 -0.591,-1.438 -0.395,-0.38 -0.902,-0.57 -1.525,-0.57 -0.617,0 -1.132,0.194 -1.543,0.582 -0.412,0.389 -0.677,0.971 -0.794,1.746 l -1.578,-0.281 c 0.193,-1.062 0.634,-1.885 1.32,-2.469 0.687,-0.583 1.54,-0.875 2.561,-0.875 0.704,0 1.353,0.15 1.944,0.452 0.593,0.301 1.046,0.712 1.36,1.232 0.313,0.521 0.471,1.073 0.471,1.658 0,0.556 -0.149,1.062 -0.448,1.518 -0.299,0.456 -0.741,0.818 -1.327,1.088 0.762,0.176 1.354,0.54 1.779,1.095 0.425,0.553 0.637,1.246 0.637,2.078 0,1.125 -0.411,2.079 -1.233,2.861 -0.821,0.783 -1.86,1.174 -3.116,1.174 -1.134,0 -2.074,-0.336 -2.822,-1.01 -0.751,-0.674 -1.178,-1.547 -1.283,-2.617 z" />
</g><path
     id="polygon181"
     d="m 238.657,363.74655 h -1.615 v -27.4075 l 0.8075,-0.5225 0.8075,0.5225 z" /><path
     id="polygon183"
     d="m 365.102,165.90905 1.13905,7.1725 -1.61405,0.095 -1.0925,-6.8875 z" /><path
     id="polygon185"
     d="m 361.872,166.71655 1.04405,6.6025 -1.61405,0.095 -0.99845,-6.3175 z" /><path
     id="polygon187"
     d="m 358.6895,167.52405 0.95,5.985 -1.61405,0.1425 -0.90345,-5.7475 z" /><path
     id="polygon189"
     d="m 355.507,168.33155 0.85595,5.415 -1.61595,0.095 -0.8075,-5.13 z" /><path
     id="polygon191"
     d="m 352.277,169.13905 0.76095,4.845 -1.61595,0.095 -0.7125,-4.56 z" /><path
     id="polygon193"
     d="m 349.0945,169.94655 0.665,4.2275 -1.615,0.1425 -0.6175,-3.99 z" /><path
     id="polygon195"
     d="m 345.8645,170.75405 0.6175,3.6575 -1.61595,0.095 -0.56905,-3.3725 z" /><path
     id="polygon197"
     d="m 342.682,171.56155 0.475,3.0875 -1.61595,0.095 -0.42655,-2.8025 z" /><path
     id="polygon199"
     d="m 339.50045,172.36905 0.3781,2.47 -1.61405,0.095 -0.3325,-2.185 z" /><path
     id="polygon201"
     d="m 336.2695,173.17655 0.3325,1.9 -1.61405,0.095 -0.28595,-1.615 z" /><path
     id="polygon203"
     d="m 161.707,114.79905 7.1725,-1.14 0.095,1.615 -6.8875,1.0925 z" /><path
     id="polygon205"
     d="m 162.5145,117.98155 6.6025,-1.045 0.095,1.615 -6.3175,0.9975 z" /><path
     id="polygon207"
     d="m 163.322,121.16405 5.985,-0.95 0.1425,1.615 -5.7475,0.95 z" /><path
     id="polygon209"
     d="m 164.1295,124.39405 5.415,-0.855 0.095,1.615 -5.13,0.8075 z" /><path
     id="polygon211"
     d="m 164.937,127.57655 4.845,-0.76 0.095,1.615 -4.56,0.7125 z" /><path
     id="polygon213"
     d="m 165.7445,130.75905 4.2275,-0.665 0.1425,1.615 -3.99,0.665 z" /><path
     id="polygon215"
     d="m 166.552,133.98905 3.6575,-0.57 0.095,1.615 -3.3725,0.5225 z" /><path
     id="polygon217"
     d="m 167.3595,137.17155 3.0875,-0.475 0.095,1.615 -2.8025,0.4275 z" /><path
     id="polygon219"
     d="m 168.167,140.40155 2.47,-0.4275 0.095,1.615 -2.185,0.38 z" /><path
     id="polygon221"
     d="m 168.9745,143.58405 1.9,-0.285 0.095,1.615 -1.5675,0.2375 z" /><g
     id="g223"
     transform="matrix(0.95,0,0,0.95,12.53325,18.7683)">
	<path
   id="path225"
   d="m 81.65,209.135 v -17.188 h 2.281 v 7.063 h 8.891 v -7.063 h 2.281 v 17.188 h -2.281 v -8.094 h -8.891 v 8.094 z" />
</g><g
     id="g227"
     transform="matrix(0.95,0,0,0.95,12.53325,18.7683)">
	<path
   id="path229"
   d="m 97.111,210.229 1.578,-0.219 c 0.183,0.896 0.492,1.543 0.928,1.938 0.437,0.396 0.972,0.594 1.607,0.594 0.753,0 1.386,-0.258 1.899,-0.773 0.513,-0.515 0.769,-1.153 0.769,-1.914 0,-0.727 -0.238,-1.325 -0.716,-1.797 -0.477,-0.471 -1.083,-0.707 -1.819,-0.707 -0.301,0 -0.675,0.059 -1.122,0.176 l 0.177,-1.391 c 0.106,0.012 0.191,0.018 0.256,0.018 0.674,0 1.281,-0.176 1.821,-0.526 0.54,-0.351 0.81,-0.892 0.81,-1.623 0,-0.579 -0.197,-1.059 -0.591,-1.438 -0.394,-0.38 -0.902,-0.57 -1.525,-0.57 -0.617,0 -1.132,0.194 -1.543,0.582 -0.412,0.389 -0.676,0.971 -0.793,1.746 l -1.578,-0.281 c 0.193,-1.062 0.634,-1.885 1.32,-2.469 0.686,-0.583 1.54,-0.875 2.561,-0.875 0.704,0 1.353,0.15 1.945,0.452 0.592,0.301 1.045,0.712 1.36,1.232 0.313,0.521 0.471,1.073 0.471,1.658 0,0.556 -0.149,1.062 -0.448,1.518 -0.299,0.456 -0.741,0.818 -1.327,1.088 0.762,0.176 1.354,0.54 1.779,1.095 0.424,0.553 0.637,1.246 0.637,2.078 0,1.125 -0.411,2.079 -1.233,2.861 -0.822,0.783 -1.861,1.174 -3.117,1.174 -1.133,0 -2.074,-0.336 -2.822,-1.01 -0.751,-0.674 -1.178,-1.547 -1.284,-2.617 z" />
</g><g
     id="g231"
     transform="matrix(0.95,0,0,0.95,12.53325,18.7683)">
	<path
   id="path233"
   d="m 119.689,203.107 2.281,0.574 c -0.476,1.87 -1.333,3.296 -2.569,4.277 -1.237,0.982 -2.75,1.473 -4.537,1.473 -1.85,0 -3.354,-0.377 -4.513,-1.132 -1.159,-0.755 -2.041,-1.847 -2.646,-3.278 -0.605,-1.431 -0.907,-2.967 -0.907,-4.609 0,-1.791 0.341,-3.353 1.024,-4.686 0.683,-1.334 1.654,-2.346 2.915,-3.038 1.26,-0.692 2.646,-1.038 4.16,-1.038 1.717,0 3.16,0.438 4.33,1.314 1.171,0.877 1.986,2.109 2.446,3.697 l -2.234,0.527 c -0.398,-1.25 -0.975,-2.16 -1.731,-2.73 -0.757,-0.57 -1.709,-0.855 -2.855,-0.855 -1.318,0 -2.42,0.316 -3.306,0.949 -0.885,0.633 -1.507,1.482 -1.866,2.549 -0.359,1.067 -0.538,2.166 -0.538,3.299 0,1.461 0.212,2.736 0.637,3.826 0.425,1.09 1.085,1.904 1.982,2.443 0.897,0.539 1.867,0.809 2.912,0.809 1.271,0 2.346,-0.367 3.227,-1.102 0.881,-0.735 1.476,-1.823 1.788,-3.269 z" />
</g><path
     id="polygon235"
     d="m 132.8745,212.12655 v -7.2675 l 1.615,0.1425 v 6.935 z" /><path
     id="polygon237"
     d="m 136.1995,211.74655 v -6.5075 l 1.615,0.1425 v 6.175 z" /><path
     id="polygon239"
     d="m 139.572,211.36655 v -5.795 l 1.615,0.19 v 5.415 z" /><path
     id="polygon241"
     d="m 142.897,210.98655 v -5.035 l 1.615,0.19 v 4.655 z" /><path
     id="polygon243"
     d="m 146.2695,210.60655 v -4.275 l 1.615,0.19 v 3.895 z" /><path
     id="polygon245"
     d="m 149.5945,210.22655 v -3.515 l 1.615,0.19 v 3.135 z" /><path
     id="polygon247"
     d="m 152.9195,209.84655 v -2.755 l 1.6625,0.19 v 2.375 z" /><path
     id="polygon249"
     d="m 156.292,209.46655 v -1.995 l 1.615,0.19 v 1.615 z" /><path
     id="polygon251"
     d="m 229.5845,248.98655 1.1875,1.14 -23.465,23.5125 -1.14,-1.14 z" /><path
     id="polygon253"
     d="m 244.832,234.87905 8.55,-14.2975 1.47155,4.3225 4.32345,1.4725 z" /><path
     id="polygon255"
     d="m 255.42545,225.47405 -1.14095,-1.14 13.205,-13.1575 1.13905,1.14 z" /><path
     id="polygon257"
     d="m 250.4845,254.68655 14.2975,8.55 -4.3225,1.4725 -1.47155,4.3225 z" /><path
     id="polygon259"
     d="m 259.8895,265.27905 1.13905,-1.14 8.4094,8.36 -1.14095,1.14 z" /><path
     id="polygon261"
     d="m 231.057,235.30655 -14.345,-8.55 4.37,-1.4725 1.4725,-4.3225 z" /><path
     id="polygon263"
     d="m 221.652,224.71405 -1.1875,1.14 -13.49,-13.5375 1.14,-1.14 z" /><g
     id="g265"
     transform="matrix(0.95,0,0,0.95,12.53325,18.7683)">
	<path
   id="path267"
   d="m 64.95,184.035 v -17.188 h 2.281 v 7.063 h 8.891 v -7.063 h 2.281 v 17.188 h -2.281 v -8.094 h -8.891 v 8.094 z" />
</g><g
     id="g269"
     transform="matrix(0.95,0,0,0.95,12.53325,18.7683)">
	<path
   id="path271"
   d="m 80.411,185.129 1.578,-0.219 c 0.183,0.896 0.492,1.543 0.928,1.938 0.437,0.396 0.972,0.594 1.607,0.594 0.753,0 1.386,-0.258 1.899,-0.773 0.513,-0.515 0.769,-1.153 0.769,-1.914 0,-0.727 -0.238,-1.325 -0.716,-1.797 -0.477,-0.471 -1.083,-0.707 -1.819,-0.707 -0.301,0 -0.675,0.059 -1.122,0.176 l 0.177,-1.391 c 0.106,0.012 0.191,0.018 0.256,0.018 0.674,0 1.281,-0.176 1.821,-0.526 0.54,-0.351 0.81,-0.892 0.81,-1.623 0,-0.579 -0.197,-1.059 -0.591,-1.438 -0.394,-0.38 -0.902,-0.57 -1.525,-0.57 -0.617,0 -1.132,0.194 -1.543,0.582 -0.412,0.389 -0.676,0.971 -0.793,1.746 l -1.578,-0.281 c 0.193,-1.062 0.634,-1.885 1.32,-2.469 0.686,-0.583 1.54,-0.875 2.561,-0.875 0.704,0 1.353,0.15 1.945,0.452 0.592,0.301 1.045,0.712 1.36,1.232 0.313,0.521 0.471,1.073 0.471,1.658 0,0.556 -0.149,1.062 -0.448,1.518 -0.299,0.456 -0.741,0.818 -1.327,1.088 0.762,0.176 1.354,0.54 1.779,1.095 0.424,0.553 0.637,1.246 0.637,2.078 0,1.125 -0.411,2.079 -1.233,2.861 -0.822,0.783 -1.861,1.174 -3.117,1.174 -1.133,0 -2.074,-0.336 -2.822,-1.01 -0.752,-0.674 -1.178,-1.547 -1.284,-2.617 z" />
</g><g
     id="g273"
     transform="matrix(0.95,0,0,0.95,12.53325,18.7683)">
	<path
   id="path275"
   d="m 102.989,178.008 2.281,0.574 c -0.476,1.87 -1.333,3.296 -2.569,4.277 -1.237,0.982 -2.75,1.473 -4.537,1.473 -1.85,0 -3.354,-0.377 -4.513,-1.132 -1.159,-0.755 -2.041,-1.847 -2.646,-3.278 -0.605,-1.431 -0.907,-2.967 -0.907,-4.609 0,-1.791 0.341,-3.353 1.024,-4.686 0.683,-1.334 1.654,-2.346 2.915,-3.038 1.26,-0.692 2.646,-1.038 4.16,-1.038 1.717,0 3.16,0.438 4.33,1.314 1.171,0.877 1.986,2.109 2.446,3.697 l -2.234,0.527 c -0.398,-1.25 -0.975,-2.16 -1.731,-2.73 -0.757,-0.57 -1.709,-0.855 -2.855,-0.855 -1.318,0 -2.42,0.316 -3.306,0.949 -0.885,0.633 -1.507,1.482 -1.866,2.549 -0.359,1.067 -0.538,2.166 -0.538,3.299 0,1.461 0.212,2.736 0.637,3.826 0.425,1.09 1.085,1.904 1.982,2.443 0.897,0.539 1.867,0.809 2.912,0.809 1.271,0 2.346,-0.367 3.227,-1.102 0.881,-0.735 1.476,-1.824 1.788,-3.269 z" />
</g><path
     id="polygon277"
     d="m 117.8645,185.66905 -1.9,-7.03 1.615,-0.2375 1.805,6.65 z" /><path
     id="polygon279"
     d="m 120.952,184.43405 -1.6625,-6.3175 1.615,-0.2375 1.5675,5.9375 z" /><path
     id="polygon281"
     d="m 124.087,183.19905 -1.52,-5.5575 1.615,-0.2375 1.3775,5.225 z" /><path
     id="polygon283"
     d="m 127.1745,181.96405 -1.2825,-4.7975 1.615,-0.2375 1.1875,4.465 z" /><path
     id="polygon285"
     d="m 130.262,180.77655 -1.0925,-4.1325 1.615,-0.2375 0.9975,3.7525 z" /><path
     id="polygon287"
     d="m 133.397,179.54155 -0.9025,-3.3725 1.615,-0.2375 0.8075,2.9925 z" /><path
     id="polygon289"
     d="m 136.4845,178.30655 -0.7125,-2.6125 1.615,-0.285 0.6175,2.3275 z" /><path
     id="polygon291"
     d="m 139.572,177.11905 -0.475,-1.9475 1.615,-0.2375 0.38,1.5675 z" /><path
     id="polygon293"
     d="m 117.057,152.70405 0.57,-9.7375 26.4575,30.7325 -0.0475,1.1875 -0.665,0.475 z" /><path
     id="polygon295"
     d="m 193.1995,86.96405 1.7575,0.665 -29.64,24.035 -1.045,-1.2825 z" /><path
     id="polygon297"
     d="m 187.452,50.72155 1.425,-1.1875 6.08,38.095 -1.7575,-0.665 z" /><path
     id="polygon299"
     d="m 112.5445,111.09405 1.4725,-1.14 3.61,33.0125 -0.57,9.7375 z" /><path
     id="polygon301"
     d="m 336.8395,125.53405 1.61405,7.4575 -32.10905,15.485 -1.37845,-0.2375 -0.3781,-0.7125 z" /><g
     id="g303"
     transform="matrix(0.95,0,0,0.95,12.53325,18.7683)">
	<path
   id="path305"
   d="M 34.6,90.035 V 72.848 h 2.281 v 7.063 h 8.891 v -7.063 h 2.281 v 17.188 h -2.281 v -8.094 h -8.891 v 8.094 H 34.6 Z" />
</g><g
     id="g307"
     transform="matrix(0.95,0,0,0.95,12.53325,18.7683)">
	<path
   id="path309"
   d="m 58.374,93.02 v 1.516 h -8.531 c -0.012,-0.381 0.05,-0.747 0.186,-1.1 0.218,-0.58 0.567,-1.15 1.048,-1.712 0.48,-0.562 1.17,-1.211 2.07,-1.948 1.396,-1.152 2.342,-2.063 2.84,-2.733 0.498,-0.67 0.747,-1.304 0.747,-1.903 0,-0.626 -0.225,-1.154 -0.675,-1.584 -0.45,-0.43 -1.037,-0.645 -1.76,-0.645 -0.766,0 -1.377,0.229 -1.836,0.688 -0.459,0.458 -0.691,1.094 -0.697,1.905 l -1.625,-0.172 c 0.111,-1.215 0.531,-2.142 1.26,-2.779 0.728,-0.637 1.706,-0.955 2.934,-0.955 1.239,0 2.22,0.343 2.942,1.029 0.722,0.686 1.083,1.535 1.083,2.55 0,0.517 -0.106,1.023 -0.317,1.521 -0.211,0.498 -0.563,1.022 -1.053,1.574 -0.491,0.551 -1.304,1.308 -2.44,2.269 -0.951,0.797 -1.562,1.338 -1.833,1.621 -0.271,0.285 -0.496,0.57 -0.673,0.857 h 6.33 z" />
</g><g
     id="g311"
     transform="matrix(0.95,0,0,0.95,12.53325,18.7683)">
	<path
   id="path313"
   d="M 60.373,90.035 V 72.848 h 2.34 l 9.004,13.488 V 72.848 h 2.188 v 17.188 h -2.34 L 62.561,76.547 v 13.489 h -2.188 z" />
</g><path
     id="polygon315"
     d="m 87.9395,100.21655 0.6175,-1.4725 25.46,11.21 -1.4725,1.14 z" /><g
     id="g317"
     transform="matrix(0.95,0,0,0.95,12.53325,18.7683)">
	<path
   id="path319"
   d="m 129.831,74.27 c 0,-2.852 0.766,-5.085 2.298,-6.699 1.532,-1.613 3.51,-2.42 5.933,-2.42 1.587,0 3.017,0.379 4.291,1.137 1.274,0.758 2.245,1.815 2.914,3.171 0.668,1.356 1.002,2.894 1.002,4.612 0,1.742 -0.352,3.302 -1.055,4.677 -0.704,1.376 -1.7,2.417 -2.99,3.124 -1.29,0.707 -2.681,1.061 -4.174,1.061 -1.618,0 -3.064,-0.391 -4.338,-1.172 -1.274,-0.781 -2.239,-1.848 -2.896,-3.2 -0.657,-1.353 -0.985,-2.784 -0.985,-4.291 z m 2.344,0.029 c 0,2.07 0.557,3.701 1.671,4.893 1.114,1.192 2.512,1.787 4.192,1.787 1.712,0 3.121,-0.602 4.228,-1.805 1.106,-1.203 1.659,-2.91 1.659,-5.121 0,-1.398 -0.236,-2.619 -0.709,-3.662 -0.473,-1.043 -1.165,-1.852 -2.076,-2.426 -0.911,-0.574 -1.933,-0.861 -3.066,-0.861 -1.61,0 -2.996,0.553 -4.157,1.658 -1.161,1.105 -1.742,2.951 -1.742,5.537 z" />
</g><path
     id="polygon321"
     d="m 132.732,91.76155 0.9975,1.33 -22.9425,16.7675 -0.95,-1.33 z" /><path
     id="polygon323"
     d="m 136.1045,96.32155 0.95,1.33 -22.9425,16.7675 -0.95,-1.33 z" /><g
     id="g325"
     transform="matrix(0.95,0,0,0.95,12.53325,18.7683)">
	<path
   id="path327"
   d="m 207.481,9.119 c 0,-2.852 0.766,-5.085 2.298,-6.699 1.532,-1.613 3.51,-2.42 5.933,-2.42 1.587,0 3.017,0.379 4.291,1.137 1.274,0.758 2.245,1.815 2.914,3.171 0.668,1.356 1.002,2.894 1.002,4.612 0,1.742 -0.352,3.302 -1.055,4.677 -0.704,1.376 -1.7,2.417 -2.99,3.124 -1.29,0.707 -2.681,1.061 -4.174,1.061 -1.618,0 -3.064,-0.391 -4.338,-1.172 -1.274,-0.781 -2.239,-1.848 -2.896,-3.2 -0.657,-1.352 -0.985,-2.783 -0.985,-4.291 z m 2.344,0.029 c 0,2.07 0.557,3.701 1.671,4.893 1.114,1.192 2.512,1.787 4.192,1.787 1.712,0 3.121,-0.602 4.228,-1.805 1.106,-1.203 1.659,-2.91 1.659,-5.121 0,-1.398 -0.236,-2.619 -0.709,-3.662 -0.473,-1.043 -1.165,-1.852 -2.076,-2.426 -0.911,-0.574 -1.933,-0.861 -3.066,-0.861 -1.61,0 -2.996,0.553 -4.157,1.658 -1.161,1.105 -1.742,2.952 -1.742,5.537 z" />
</g><path
     id="polygon329"
     d="m 206.642,30.48655 1.045,1.235 -22.04,17.86 -1.045,-1.2825 z" /><path
     id="polygon331"
     d="m 210.2045,34.85655 1.045,1.235 -22.04,17.86 -1.045,-1.235 z" /><g
     id="g333"
     transform="matrix(0.95,0,0,0.95,12.53325,18.7683)">
	<path
   id="path335"
   d="M 112.7,28.234 V 11.047 h 2.281 v 7.063 h 8.891 v -7.063 h 2.281 v 17.188 h -2.281 v -8.094 h -8.891 v 8.094 H 112.7 Z" />
</g><g
     id="g337"
     transform="matrix(0.95,0,0,0.95,12.53325,18.7683)">
	<path
   id="path339"
   d="m 136.474,31.219 v 1.516 h -8.531 c -0.012,-0.381 0.05,-0.747 0.186,-1.1 0.218,-0.58 0.567,-1.15 1.048,-1.712 0.48,-0.562 1.17,-1.211 2.07,-1.948 1.396,-1.152 2.342,-2.063 2.84,-2.733 0.498,-0.67 0.747,-1.304 0.747,-1.903 0,-0.626 -0.225,-1.154 -0.675,-1.584 -0.45,-0.43 -1.037,-0.645 -1.76,-0.645 -0.766,0 -1.377,0.229 -1.836,0.688 -0.459,0.458 -0.691,1.094 -0.697,1.905 l -1.625,-0.172 c 0.111,-1.215 0.531,-2.142 1.26,-2.779 0.728,-0.637 1.706,-0.955 2.934,-0.955 1.239,0 2.22,0.343 2.942,1.029 0.722,0.686 1.083,1.535 1.083,2.55 0,0.517 -0.106,1.023 -0.317,1.521 -0.211,0.498 -0.563,1.022 -1.053,1.574 -0.491,0.551 -1.304,1.308 -2.44,2.269 -0.951,0.797 -1.562,1.338 -1.833,1.621 -0.271,0.285 -0.496,0.57 -0.673,0.857 h 6.33 z" />
</g><g
     id="g341"
     transform="matrix(0.95,0,0,0.95,12.53325,18.7683)">
	<path
   id="path343"
   d="M 138.473,28.234 V 11.047 h 2.34 l 9.004,13.488 V 11.047 h 2.188 v 17.188 h -2.34 l -9.004,-13.489 v 13.489 h -2.188 z" />
</g><path
     id="polygon345"
     d="m 162.0395,40.93655 0.6175,-1.4725 26.22,10.07 -1.425,1.1875 z" /><g
     id="g347"
     transform="matrix(0.95,0,0,0.95,12.53325,18.7683)">
	<path
   id="path349"
   d="m 303.068,101.357 2.281,0.574 c -0.476,1.87 -1.332,3.296 -2.568,4.277 -1.238,0.982 -2.75,1.473 -4.537,1.473 -1.85,0 -3.354,-0.377 -4.514,-1.132 -1.158,-0.755 -2.041,-1.847 -2.645,-3.278 -0.605,-1.431 -0.908,-2.967 -0.908,-4.609 0,-1.791 0.342,-3.353 1.024,-4.686 0.683,-1.334 1.653,-2.346 2.915,-3.038 1.26,-0.692 2.646,-1.038 4.16,-1.038 1.717,0 3.16,0.438 4.33,1.314 1.17,0.877 1.985,2.109 2.445,3.697 l -2.234,0.527 c -0.397,-1.25 -0.975,-2.16 -1.73,-2.73 -0.758,-0.57 -1.709,-0.855 -2.855,-0.855 -1.318,0 -2.42,0.316 -3.307,0.949 -0.885,0.633 -1.507,1.482 -1.865,2.549 -0.359,1.066 -0.539,2.166 -0.539,3.299 0,1.461 0.213,2.736 0.638,3.826 0.425,1.09 1.085,1.904 1.981,2.443 0.896,0.539 1.867,0.809 2.912,0.809 1.271,0 2.346,-0.367 3.227,-1.102 0.881,-0.735 1.478,-1.823 1.789,-3.269 z" />
	<path
   id="path351"
   d="M 308.244,107.385 V 90.197 h 2.281 v 7.063 h 8.891 v -7.063 h 2.281 v 17.188 h -2.281 v -8.094 h -8.891 v 8.094 z" />
</g><g
     id="g353"
     transform="matrix(0.95,0,0,0.95,12.53325,18.7683)">
	<path
   id="path355"
   d="m 323.295,108.479 1.578,-0.219 c 0.183,0.896 0.492,1.543 0.928,1.938 0.437,0.396 0.973,0.594 1.607,0.594 0.753,0 1.387,-0.258 1.898,-0.773 0.514,-0.515 0.77,-1.153 0.77,-1.914 0,-0.727 -0.238,-1.325 -0.716,-1.797 -0.477,-0.471 -1.083,-0.707 -1.819,-0.707 -0.301,0 -0.675,0.059 -1.122,0.176 l 0.177,-1.391 c 0.105,0.012 0.191,0.018 0.256,0.018 0.674,0 1.281,-0.176 1.821,-0.526 0.54,-0.35 0.81,-0.892 0.81,-1.623 0,-0.579 -0.197,-1.059 -0.591,-1.438 -0.394,-0.379 -0.902,-0.57 -1.525,-0.57 -0.617,0 -1.132,0.194 -1.544,0.582 -0.411,0.389 -0.676,0.971 -0.793,1.746 l -1.578,-0.281 c 0.193,-1.062 0.634,-1.885 1.32,-2.469 0.686,-0.583 1.539,-0.875 2.561,-0.875 0.704,0 1.353,0.15 1.945,0.452 0.592,0.301 1.045,0.712 1.359,1.232 0.313,0.521 0.471,1.073 0.471,1.658 0,0.556 -0.149,1.062 -0.448,1.518 -0.299,0.456 -0.741,0.818 -1.327,1.088 0.762,0.176 1.354,0.54 1.779,1.095 0.424,0.553 0.637,1.246 0.637,2.078 0,1.125 -0.411,2.079 -1.232,2.861 -0.822,0.783 -1.861,1.174 -3.117,1.174 -1.133,0 -2.074,-0.336 -2.822,-1.01 -0.751,-0.674 -1.178,-1.547 -1.283,-2.617 z" />
</g><path
     id="polygon357"
     d="m 294.707,123.87155 7.03095,-1.8525 0.2375,1.5675 -6.65,1.805 z" /><path
     id="polygon359"
     d="m 296.03795,127.19655 6.175,-1.6625 0.2375,1.615 -5.7969,1.5675 z" /><path
     id="polygon361"
     d="m 297.36605,130.52155 5.36845,-1.425 0.19095,1.615 -4.94095,1.33 z" /><path
     id="polygon363"
     d="m 298.7445,133.84655 4.465,-1.1875 0.2375,1.615 -4.08405,1.0925 z" /><path
     id="polygon365"
     d="m 300.07545,137.17155 3.65655,-0.9975 0.19,1.615 -3.23095,0.9025 z" /><path
     id="polygon367"
     d="m 301.40355,140.49655 2.80345,-0.76 0.2375,1.615 -2.4225,0.6175 z" /><path
     id="polygon369"
     d="m 302.782,143.82155 1.94655,-0.5225 0.19095,1.615 -1.5675,0.38 z" /><path
     id="polygon371"
     d="m 336.8395,91.19155 1.61405,0.95 v 40.85 l -1.61405,-7.4575 z" /><g
     id="g373"
     transform="matrix(0.95,0,0,0.95,12.53325,18.7683)">
	<path
   id="path375"
   d="M 369.753,66.385 V 49.197 h 2.34 l 9.004,13.488 V 49.197 h 2.188 v 17.188 h -2.34 l -9.004,-13.489 v 13.489 z" />
	<path
   id="path377"
   d="M 387.194,66.385 V 49.197 h 2.281 v 7.063 h 8.891 v -7.063 h 2.281 v 17.188 h -2.281 v -8.094 h -8.891 v 8.094 z" />
</g><g
     id="g379"
     transform="matrix(0.95,0,0,0.95,12.53325,18.7683)">
	<path
   id="path381"
   d="m 411.43,69.369 v 1.516 h -8.531 c -0.012,-0.381 0.049,-0.747 0.186,-1.1 0.218,-0.58 0.566,-1.15 1.048,-1.712 0.48,-0.562 1.171,-1.211 2.069,-1.948 1.396,-1.152 2.343,-2.063 2.84,-2.733 0.498,-0.67 0.748,-1.304 0.748,-1.903 0,-0.626 -0.226,-1.154 -0.676,-1.584 -0.45,-0.43 -1.037,-0.645 -1.76,-0.645 -0.766,0 -1.377,0.229 -1.836,0.688 -0.459,0.458 -0.691,1.094 -0.697,1.905 l -1.625,-0.172 c 0.111,-1.215 0.531,-2.142 1.26,-2.779 0.728,-0.637 1.705,-0.955 2.934,-0.955 1.238,0 2.219,0.343 2.941,1.029 0.723,0.686 1.084,1.535 1.084,2.55 0,0.517 -0.106,1.023 -0.318,1.521 -0.211,0.498 -0.563,1.022 -1.053,1.574 -0.49,0.551 -1.304,1.308 -2.439,2.269 -0.951,0.797 -1.563,1.338 -1.834,1.621 -0.271,0.285 -0.496,0.57 -0.672,0.857 h 6.331 z" />
</g><path
     id="polygon383"
     d="m 360.06605,77.79655 0.8094,1.3775 -22.4219,12.9675 -1.61405,-0.95 z" /><g
     id="g385"
     transform="matrix(0.95,0,0,0.95,12.53325,18.7683)">
	<path
   id="path387"
   d="m 299.682,58.02 c 0,-2.852 0.766,-5.085 2.297,-6.699 1.533,-1.613 3.51,-2.42 5.934,-2.42 1.586,0 3.017,0.379 4.291,1.137 1.273,0.758 2.244,1.815 2.913,3.171 0.669,1.356 1.003,2.894 1.003,4.612 0,1.742 -0.352,3.302 -1.056,4.677 -0.704,1.376 -1.7,2.417 -2.989,3.124 -1.291,0.707 -2.682,1.061 -4.174,1.061 -1.619,0 -3.064,-0.391 -4.338,-1.172 -1.275,-0.781 -2.24,-1.848 -2.896,-3.2 -0.657,-1.353 -0.985,-2.784 -0.985,-4.291 z m 2.343,0.029 c 0,2.07 0.557,3.701 1.67,4.893 1.115,1.191 2.512,1.787 4.193,1.787 1.711,0 3.121,-0.602 4.227,-1.805 1.106,-1.203 1.66,-2.91 1.66,-5.121 0,-1.398 -0.236,-2.619 -0.71,-3.662 -0.474,-1.043 -1.165,-1.852 -2.075,-2.426 -0.911,-0.574 -1.934,-0.861 -3.066,-0.861 -1.611,0 -2.996,0.553 -4.158,1.658 -1.161,1.105 -1.741,2.951 -1.741,5.537 z" />
</g><path
     id="polygon389"
     d="m 312.42545,81.31155 0.80655,-1.3775 24.795,14.2975 -0.8075,1.425 z" /><path
     id="polygon391"
     d="m 315.27545,76.41905 0.80655,-1.3775 24.795,14.2975 -0.8075,1.425 z" /><path
     id="polygon393"
     d="m 394.077,196.30905 -0.57,1.805 -25.26905,-28.595 1.23405,-1.045 z" /><path
     id="polygon395"
     d="m 431.032,188.80405 -0.6175,1.805 -36.9075,7.505 0.57,-1.805 z" /><g
     id="g397"
     transform="matrix(0.95,0,0,0.95,12.53325,18.7683)">
	<path
   id="path399"
   d="m 459.652,219.085 v -17.188 h 2.34 l 9.004,13.488 v -13.488 h 2.188 v 17.188 h -2.34 l -9.004,-13.489 v 13.489 z" />
	<path
   id="path401"
   d="m 477.094,219.085 v -17.188 h 2.281 v 7.063 h 8.891 v -7.063 h 2.281 v 17.188 h -2.281 v -8.094 h -8.891 v 8.094 z" />
</g><g
     id="g403"
     transform="matrix(0.95,0,0,0.95,12.53325,18.7683)">
	<path
   id="path405"
   d="m 501.33,222.069 v 1.516 h -8.531 c -0.012,-0.381 0.049,-0.747 0.186,-1.1 0.218,-0.58 0.566,-1.15 1.048,-1.712 0.48,-0.562 1.171,-1.211 2.069,-1.948 1.396,-1.152 2.343,-2.063 2.84,-2.733 0.498,-0.67 0.748,-1.304 0.748,-1.903 0,-0.626 -0.226,-1.154 -0.676,-1.584 -0.45,-0.43 -1.037,-0.645 -1.76,-0.645 -0.766,0 -1.377,0.229 -1.836,0.688 -0.459,0.458 -0.691,1.094 -0.697,1.905 l -1.625,-0.172 c 0.111,-1.215 0.531,-2.142 1.26,-2.779 0.728,-0.637 1.705,-0.955 2.934,-0.955 1.238,0 2.219,0.343 2.941,1.029 0.723,0.686 1.084,1.535 1.084,2.55 0,0.517 -0.106,1.023 -0.318,1.521 -0.211,0.498 -0.563,1.022 -1.053,1.574 -0.49,0.551 -1.304,1.308 -2.439,2.269 -0.951,0.797 -1.563,1.338 -1.834,1.621 -0.271,0.285 -0.496,0.57 -0.672,0.857 h 6.331 z" />
</g><path
     id="polygon407"
     d="m 448.3695,208.46905 -1.235,1.045 -16.72,-18.905 0.6175,-1.805 z" /><g
     id="g409"
     transform="matrix(0.95,0,0,0.95,12.53325,18.7683)">
	<path
   id="path411"
   d="m 444.581,143.42 c 0,-2.852 0.766,-5.085 2.298,-6.699 1.532,-1.613 3.51,-2.42 5.933,-2.42 1.587,0 3.017,0.379 4.291,1.137 1.274,0.758 2.245,1.815 2.913,3.171 0.669,1.356 1.003,2.894 1.003,4.612 0,1.742 -0.352,3.302 -1.056,4.677 -0.703,1.376 -1.699,2.417 -2.989,3.124 -1.29,0.707 -2.681,1.061 -4.174,1.061 -1.618,0 -3.064,-0.391 -4.338,-1.172 -1.274,-0.781 -2.239,-1.848 -2.896,-3.2 -0.657,-1.353 -0.985,-2.783 -0.985,-4.291 z m 2.344,0.029 c 0,2.07 0.557,3.701 1.671,4.893 1.114,1.192 2.512,1.787 4.192,1.787 1.712,0 3.121,-0.602 4.228,-1.805 1.105,-1.203 1.659,-2.91 1.659,-5.121 0,-1.398 -0.236,-2.619 -0.71,-3.662 -0.473,-1.043 -1.164,-1.852 -2.075,-2.426 -0.911,-0.574 -1.933,-0.861 -3.066,-0.861 -1.61,0 -2.996,0.553 -4.157,1.658 -1.161,1.105 -1.742,2.951 -1.742,5.537 z" />
</g><path
     id="polygon413"
     d="m 435.6395,163.62905 1.52,0.5225 -8.8825,26.4575 -1.52,-0.5225 z" /><path
     id="polygon415"
     d="m 440.9595,165.43405 1.5675,0.5225 -8.8825,26.4575 -1.51905,-0.5225 z" /><g
     id="g417"
     transform="matrix(0.95,0,0,0.95,12.53325,18.7683)">
	<path
   id="path419"
   d="m 369.418,337.207 2.281,0.574 c -0.476,1.87 -1.332,3.296 -2.568,4.277 -1.238,0.982 -2.75,1.473 -4.537,1.473 -1.85,0 -3.354,-0.377 -4.514,-1.132 -1.158,-0.755 -2.041,-1.847 -2.645,-3.278 -0.605,-1.431 -0.908,-2.967 -0.908,-4.609 0,-1.791 0.342,-3.353 1.024,-4.686 0.683,-1.334 1.653,-2.346 2.915,-3.038 1.26,-0.692 2.646,-1.038 4.16,-1.038 1.717,0 3.16,0.438 4.33,1.314 1.17,0.877 1.985,2.109 2.445,3.697 l -2.234,0.527 c -0.397,-1.25 -0.975,-2.16 -1.73,-2.73 -0.758,-0.57 -1.709,-0.855 -2.855,-0.855 -1.318,0 -2.42,0.316 -3.307,0.949 -0.885,0.633 -1.507,1.482 -1.865,2.549 -0.359,1.066 -0.539,2.166 -0.539,3.299 0,1.461 0.213,2.736 0.638,3.826 0.425,1.09 1.085,1.904 1.981,2.443 0.896,0.539 1.867,0.809 2.912,0.809 1.271,0 2.346,-0.367 3.227,-1.102 0.881,-0.735 1.477,-1.824 1.789,-3.269 z" />
	<path
   id="path421"
   d="m 374.594,343.234 v -17.188 h 2.281 v 7.063 h 8.891 v -7.063 h 2.281 v 17.188 h -2.281 v -8.094 h -8.891 v 8.094 z" />
</g><g
     id="g423"
     transform="matrix(0.95,0,0,0.95,12.53325,18.7683)">
	<path
   id="path425"
   d="m 389.645,344.328 1.578,-0.219 c 0.184,0.896 0.492,1.543 0.928,1.938 0.438,0.396 0.973,0.594 1.607,0.594 0.754,0 1.387,-0.258 1.899,-0.773 0.513,-0.515 0.769,-1.153 0.769,-1.914 0,-0.727 -0.238,-1.325 -0.715,-1.797 -0.477,-0.471 -1.084,-0.707 -1.82,-0.707 -0.301,0 -0.674,0.059 -1.121,0.176 l 0.176,-1.391 c 0.106,0.012 0.191,0.018 0.256,0.018 0.675,0 1.281,-0.176 1.822,-0.526 0.539,-0.351 0.809,-0.892 0.809,-1.623 0,-0.579 -0.197,-1.059 -0.59,-1.438 -0.395,-0.38 -0.902,-0.57 -1.525,-0.57 -0.617,0 -1.133,0.194 -1.544,0.582 -0.411,0.389 -0.677,0.971 -0.794,1.746 l -1.578,-0.281 c 0.193,-1.062 0.635,-1.885 1.32,-2.469 0.687,-0.583 1.54,-0.875 2.561,-0.875 0.705,0 1.354,0.15 1.945,0.452 0.592,0.301 1.045,0.712 1.359,1.232 0.314,0.52 0.471,1.073 0.471,1.658 0,0.556 -0.148,1.062 -0.447,1.518 -0.299,0.456 -0.742,0.818 -1.328,1.088 0.762,0.176 1.355,0.54 1.779,1.095 0.425,0.553 0.637,1.246 0.637,2.078 0,1.125 -0.41,2.079 -1.232,2.861 -0.822,0.783 -1.861,1.174 -3.117,1.174 -1.133,0 -2.074,-0.336 -2.822,-1.01 -0.75,-0.674 -1.178,-1.547 -1.283,-2.617 z" />
</g><path
     id="polygon427"
     d="m 354.177,326.60155 -5.13,5.13 -0.99655,-1.2825 4.84405,-4.8925 z" /><path
     id="polygon429"
     d="m 351.5645,324.51155 -4.6075,4.6075 -0.9975,-1.2825 4.3225,-4.37 z" /><path
     id="polygon431"
     d="m 348.90355,322.37405 -4.0375,4.085 -1.04405,-1.2825 3.8475,-3.8 z" /><path
     id="polygon433"
     d="m 346.29105,320.28405 -3.51405,3.5625 -1.045,-1.2825 3.2775,-3.2775 z" /><path
     id="polygon435"
     d="m 343.67855,318.19405 -2.9906,2.9925 -1.0469,-1.235 2.75595,-2.755 z" /><path
     id="polygon437"
     d="m 341.0195,316.10405 -2.46905,2.47 -0.99845,-1.2825 2.2325,-2.185 z" /><path
     id="polygon439"
     d="m 338.407,314.01405 -1.9475,1.9475 -0.99655,-1.2825 1.6625,-1.6625 z" /><path
     id="polygon441"
     d="m 335.7945,311.92405 -1.425,1.3775 -0.9975,-1.235 1.14095,-1.14 z" /><g
     id="g443"
     transform="matrix(0.95,0,0,0.95,12.53325,18.7683)">
	<path
   id="path445"
   d="m 379.719,298.857 2.281,0.574 c -0.477,1.87 -1.333,3.296 -2.569,4.277 -1.237,0.982 -2.749,1.473 -4.536,1.473 -1.85,0 -3.354,-0.377 -4.514,-1.132 -1.16,-0.755 -2.041,-1.847 -2.646,-3.278 -0.604,-1.431 -0.907,-2.967 -0.907,-4.609 0,-1.791 0.342,-3.353 1.023,-4.686 0.684,-1.334 1.654,-2.346 2.915,-3.038 1.26,-0.692 2.646,-1.038 4.16,-1.038 1.717,0 3.16,0.438 4.33,1.314 1.171,0.877 1.985,2.109 2.446,3.697 l -2.234,0.527 c -0.398,-1.25 -0.975,-2.16 -1.731,-2.73 -0.756,-0.57 -1.709,-0.855 -2.855,-0.855 -1.318,0 -2.42,0.316 -3.306,0.949 -0.885,0.633 -1.508,1.482 -1.866,2.549 -0.358,1.067 -0.538,2.166 -0.538,3.299 0,1.461 0.213,2.736 0.637,3.826 0.426,1.09 1.086,1.904 1.982,2.443 0.896,0.539 1.867,0.809 2.912,0.809 1.27,0 2.346,-0.367 3.227,-1.102 0.881,-0.735 1.476,-1.823 1.789,-3.269 z" />
	<path
   id="path447"
   d="m 384.895,304.885 v -17.188 h 2.281 v 7.063 h 8.891 v -7.063 h 2.281 v 17.188 h -2.281 v -8.094 h -8.891 v 8.094 z" />
</g><g
     id="g449"
     transform="matrix(0.95,0,0,0.95,12.53325,18.7683)">
	<path
   id="path451"
   d="m 399.945,305.979 1.578,-0.219 c 0.182,0.896 0.492,1.543 0.928,1.938 0.436,0.396 0.972,0.594 1.607,0.594 0.752,0 1.386,-0.258 1.898,-0.773 0.513,-0.515 0.77,-1.153 0.77,-1.914 0,-0.727 -0.238,-1.325 -0.717,-1.797 -0.477,-0.471 -1.083,-0.707 -1.818,-0.707 -0.301,0 -0.676,0.059 -1.123,0.176 l 0.178,-1.391 c 0.105,0.012 0.191,0.018 0.256,0.018 0.674,0 1.281,-0.176 1.82,-0.526 0.54,-0.351 0.811,-0.892 0.811,-1.623 0,-0.579 -0.197,-1.059 -0.592,-1.438 -0.394,-0.38 -0.902,-0.57 -1.525,-0.57 -0.617,0 -1.131,0.194 -1.543,0.582 -0.412,0.389 -0.676,0.971 -0.793,1.746 l -1.578,-0.281 c 0.193,-1.062 0.633,-1.885 1.32,-2.469 0.686,-0.583 1.539,-0.875 2.561,-0.875 0.703,0 1.352,0.15 1.944,0.452 0.593,0.301 1.046,0.712 1.36,1.232 0.313,0.521 0.471,1.073 0.471,1.658 0,0.556 -0.15,1.062 -0.449,1.518 -0.299,0.456 -0.74,0.818 -1.326,1.088 0.762,0.176 1.354,0.54 1.779,1.095 0.424,0.553 0.637,1.246 0.637,2.078 0,1.125 -0.412,2.079 -1.233,2.861 -0.821,0.783 -1.86,1.174 -3.116,1.174 -1.134,0 -2.074,-0.336 -2.822,-1.01 -0.751,-0.674 -1.177,-1.547 -1.283,-2.617 z" />
</g><path
     id="polygon453"
     d="m 357.92855,298.38655 1.85345,7.03 -27.74095,4.5125 -0.3781,-0.76 0.3781,-0.9975 z" /><path
     id="polygon455"
     d="m 325.39105,363.88905 -6.3156,3.61 -0.66595,-1.4725 6.03155,-3.4675 z" /><path
     id="polygon457"
     d="m 323.4445,361.18155 -5.7475,3.325 -0.7125,-1.4725 5.55655,-3.1825 z" /><path
     id="polygon459"
     d="m 321.5445,358.47405 -5.225,3.04 -0.7125,-1.4725 5.03405,-2.8975 z" /><path
     id="polygon461"
     d="m 319.6445,355.76655 -4.75,2.755 -0.66595,-1.4725 4.5125,-2.6125 z" /><path
     id="polygon463"
     d="m 317.7445,353.05905 -4.22845,2.47 -0.66405,-1.4725 3.98905,-2.3275 z" /><path
     id="polygon465"
     d="m 315.8445,350.35155 -3.705,2.185 -0.66405,-1.4725 3.4656,-1.995 z" /><path
     id="polygon467"
     d="m 313.9445,347.69155 -3.18155,1.8525 -0.7125,-1.4725 2.94405,-1.71 z" /><path
     id="polygon469"
     d="m 312.0445,344.98405 -2.66,1.52 -0.7125,-1.4725 2.4225,-1.3775 z" /><path
     id="polygon471"
     d="m 310.1445,342.27655 -2.185,1.235 -0.665,-1.4725 1.9,-1.0925 z" /><path
     id="polygon473"
     d="m 308.2445,339.56905 -1.6625,0.95 -0.66595,-1.4725 1.37845,-0.8075 z" /><path
     id="polygon475"
     d="m 362.0145,367.68905 -0.95,1.615 h -37.23905 v -1.615 z" /><path
     id="polygon477"
     d="m 380.82545,400.32155 -0.90345,1.615 -18.8575,-32.6325 0.95,-1.615 z" /><g
     id="g479"
     transform="matrix(0.95,0,0,0.95,12.53325,18.7683)">
	<path
   id="path481"
   d="m 420.053,411.935 v -17.188 h 2.34 l 9.004,13.488 v -13.488 h 2.188 v 17.188 h -2.34 l -9.004,-13.489 v 13.489 z" />
	<path
   id="path483"
   d="m 437.494,411.935 v -17.188 h 2.281 v 7.063 h 8.891 v -7.063 h 2.281 v 17.188 h -2.281 v -8.094 h -8.891 v 8.094 z" />
</g><g
     id="g485"
     transform="matrix(0.95,0,0,0.95,12.53325,18.7683)">
	<path
   id="path487"
   d="m 461.729,414.919 v 1.516 h -8.531 c -0.012,-0.381 0.05,-0.747 0.186,-1.1 0.218,-0.58 0.567,-1.15 1.048,-1.712 0.481,-0.562 1.171,-1.211 2.07,-1.948 1.396,-1.152 2.342,-2.063 2.84,-2.733 0.498,-0.67 0.747,-1.304 0.747,-1.903 0,-0.626 -0.226,-1.154 -0.675,-1.584 -0.451,-0.43 -1.037,-0.645 -1.761,-0.645 -0.766,0 -1.377,0.229 -1.836,0.688 -0.459,0.458 -0.691,1.094 -0.697,1.905 l -1.625,-0.172 c 0.111,-1.215 0.531,-2.142 1.26,-2.779 0.728,-0.637 1.706,-0.955 2.934,-0.955 1.239,0 2.22,0.343 2.942,1.029 0.722,0.686 1.083,1.535 1.083,2.55 0,0.517 -0.106,1.023 -0.317,1.521 -0.211,0.498 -0.563,1.022 -1.053,1.574 -0.491,0.551 -1.305,1.308 -2.44,2.269 -0.95,0.797 -1.562,1.338 -1.833,1.621 -0.271,0.285 -0.496,0.57 -0.673,0.857 h 6.331 z" />
</g><path
     id="polygon489"
     d="m 409.46605,400.32155 v 1.615 H 379.922 l 0.90345,-1.615 z" /><g
     id="g491"
     transform="matrix(0.95,0,0,0.95,12.53325,18.7683)">
	<path
   id="path493"
   d="m 359.182,437.92 c 0,-2.852 0.766,-5.085 2.297,-6.699 1.533,-1.613 3.51,-2.42 5.934,-2.42 1.586,0 3.017,0.379 4.291,1.137 1.273,0.758 2.244,1.815 2.913,3.171 0.669,1.356 1.003,2.894 1.003,4.612 0,1.742 -0.352,3.302 -1.056,4.677 -0.704,1.376 -1.7,2.417 -2.989,3.124 -1.291,0.707 -2.682,1.061 -4.174,1.061 -1.619,0 -3.064,-0.391 -4.338,-1.172 -1.275,-0.781 -2.24,-1.848 -2.896,-3.2 -0.657,-1.353 -0.985,-2.783 -0.985,-4.291 z m 2.343,0.029 c 0,2.07 0.557,3.701 1.67,4.893 1.115,1.191 2.512,1.787 4.193,1.787 1.711,0 3.121,-0.602 4.227,-1.805 1.106,-1.203 1.66,-2.91 1.66,-5.121 0,-1.398 -0.236,-2.619 -0.71,-3.662 -0.474,-1.043 -1.165,-1.852 -2.075,-2.426 -0.911,-0.574 -1.934,-0.861 -3.066,-0.861 -1.611,0 -2.996,0.553 -4.158,1.658 -1.161,1.106 -1.741,2.951 -1.741,5.537 z" />
</g><path
     id="polygon495"
     d="m 369.6145,427.0156 -1.37655,-0.80655 14.67655,-25.5075 1.425,0.8075 z" /><path
     id="polygon497"
     d="m 364.722,424.21405 -1.3775,-0.8075 14.6775,-25.5075 1.425,0.8075 z" /><path
     id="polygon499"
     d="m 160.3295,208.65905 0.8075,-0.19 0.8075,0.665 v 65.7875 l -0.8075,0.665 -0.8075,-1.14 z" /><path
     id="polygon501"
     d="m 108.4595,318.43155 -3.42,-6.84 38.475,-3.1825 0.5225,0.76 -0.285,0.9025 z" /><path
     id="polygon503"
     d="m 82.8095,286.70155 0.6175,-1.805 21.6125,26.695 3.42,6.84 z" /><g
     id="g505"
     transform="matrix(0.95,0,0,0.95,12.53325,18.7683)">
	<path
   id="path507"
   d="m 0,296.734 v -17.188 h 2.281 v 7.063 h 8.891 v -7.063 h 2.281 v 17.188 H 11.172 V 288.64 H 2.281 v 8.094 z" />
</g><g
     id="g509"
     transform="matrix(0.95,0,0,0.95,12.53325,18.7683)">
	<path
   id="path511"
   d="m 23.774,299.719 v 1.516 h -8.531 c -0.012,-0.381 0.05,-0.747 0.186,-1.1 0.218,-0.58 0.567,-1.15 1.048,-1.712 0.48,-0.562 1.17,-1.211 2.07,-1.948 1.396,-1.152 2.342,-2.063 2.84,-2.733 0.498,-0.67 0.747,-1.304 0.747,-1.903 0,-0.626 -0.225,-1.154 -0.675,-1.584 -0.45,-0.43 -1.037,-0.645 -1.76,-0.645 -0.766,0 -1.377,0.229 -1.836,0.688 -0.459,0.458 -0.691,1.094 -0.697,1.905 l -1.625,-0.172 c 0.111,-1.215 0.531,-2.142 1.26,-2.779 0.728,-0.637 1.706,-0.955 2.934,-0.955 1.239,0 2.22,0.343 2.942,1.029 0.722,0.686 1.083,1.535 1.083,2.55 0,0.517 -0.106,1.023 -0.317,1.521 -0.211,0.498 -0.563,1.022 -1.053,1.574 -0.491,0.551 -1.304,1.308 -2.44,2.269 -0.951,0.797 -1.562,1.338 -1.833,1.621 -0.271,0.285 -0.496,0.57 -0.673,0.857 h 6.33 z" />
</g><g
     id="g513"
     transform="matrix(0.95,0,0,0.95,12.53325,18.7683)">
	<path
   id="path515"
   d="m 25.773,296.734 v -17.188 h 2.34 l 9.004,13.488 v -13.488 h 2.188 v 17.188 h -2.34 l -9.004,-13.489 v 13.489 z" />
</g><path
     id="polygon517"
     d="m 54.3095,292.49655 -0.285,-1.5675 29.4025,-6.0325 -0.6175,1.805 z" /><g
     id="g519"
     transform="matrix(0.95,0,0,0.95,12.53325,18.7683)">
	<path
   id="path521"
   d="m 80.281,245.17 c 0,-2.852 0.766,-5.085 2.298,-6.699 1.532,-1.613 3.51,-2.42 5.933,-2.42 1.587,0 3.017,0.379 4.291,1.137 1.274,0.758 2.245,1.815 2.914,3.171 0.668,1.356 1.002,2.894 1.002,4.612 0,1.742 -0.352,3.302 -1.055,4.677 -0.704,1.376 -1.7,2.417 -2.99,3.124 -1.29,0.707 -2.681,1.061 -4.174,1.061 -1.618,0 -3.064,-0.391 -4.338,-1.172 -1.274,-0.781 -2.239,-1.848 -2.896,-3.2 -0.657,-1.353 -0.985,-2.783 -0.985,-4.291 z m 2.344,0.029 c 0,2.07 0.557,3.701 1.671,4.893 1.114,1.192 2.512,1.787 4.192,1.787 1.712,0 3.121,-0.602 4.228,-1.805 1.106,-1.203 1.659,-2.91 1.659,-5.121 0,-1.398 -0.236,-2.619 -0.709,-3.662 -0.473,-1.043 -1.165,-1.852 -2.076,-2.426 -0.911,-0.574 -1.933,-0.861 -3.066,-0.861 -1.61,0 -2.996,0.553 -4.157,1.658 -1.161,1.105 -1.742,2.951 -1.742,5.537 z" />
</g><path
     id="polygon523"
     d="m 89.127,259.95905 1.52,0.57 -10.0225,26.0775 -1.4725,-0.57 z" /><path
     id="polygon525"
     d="m 94.3995,262.00155 1.52,0.57 -9.975,26.0775 -1.52,-0.6175 z" /><path
     id="polygon527"
     d="m 148.882,362.79655 -5.13,-5.13 1.235,-1.045 4.94,4.94 z" /><path
     id="polygon529"
     d="m 151.0195,360.23155 -4.75,-4.7025 1.235,-1.045 4.5125,4.5125 z" /><path
     id="polygon531"
     d="m 153.1095,357.71405 -4.275,-4.275 1.235,-1.045 4.085,4.085 z" /><path
     id="polygon533"
     d="m 155.247,355.19655 -3.895,-3.895 1.235,-1.045 3.705,3.6575 z" /><path
     id="polygon535"
     d="m 157.337,352.63155 -3.4675,-3.4675 1.2825,-0.9975 3.23,3.23 z" /><path
     id="polygon537"
     d="m 159.4745,350.11405 -3.04,-3.04 1.235,-1.045 2.85,2.85 z" /><path
     id="polygon539"
     d="m 161.5645,347.54905 -2.6125,-2.6125 1.2825,-1.045 2.375,2.4225 z" /><path
     id="polygon541"
     d="m 163.702,345.03155 -2.185,-2.185 1.235,-1.045 1.995,1.995 z" /><path
     id="polygon543"
     d="m 165.792,342.46655 -1.7575,-1.7575 1.235,-1.045 1.5675,1.5675 z" /><path
     id="polygon545"
     d="m 167.9295,339.94905 -1.33,-1.33 1.235,-1.045 1.14,1.14 z" /><g
     id="g547"
     transform="matrix(0.95,0,0,0.95,12.53325,18.7683)">
	<path
   id="path549"
   d="m 182.219,375.508 2.281,0.574 c -0.476,1.87 -1.333,3.296 -2.569,4.277 -1.237,0.982 -2.75,1.473 -4.537,1.473 -1.85,0 -3.354,-0.377 -4.513,-1.132 -1.159,-0.755 -2.041,-1.847 -2.646,-3.278 -0.605,-1.431 -0.907,-2.967 -0.907,-4.609 0,-1.791 0.341,-3.353 1.024,-4.686 0.683,-1.334 1.654,-2.346 2.915,-3.038 1.26,-0.692 2.646,-1.038 4.16,-1.038 1.717,0 3.16,0.438 4.33,1.314 1.171,0.877 1.986,2.109 2.446,3.697 l -2.234,0.527 c -0.398,-1.25 -0.975,-2.16 -1.731,-2.73 -0.757,-0.57 -1.709,-0.855 -2.855,-0.855 -1.318,0 -2.42,0.316 -3.306,0.949 -0.885,0.633 -1.507,1.482 -1.866,2.549 -0.359,1.067 -0.538,2.166 -0.538,3.299 0,1.461 0.212,2.736 0.637,3.826 0.425,1.09 1.085,1.904 1.982,2.443 0.897,0.539 1.867,0.809 2.912,0.809 1.271,0 2.346,-0.367 3.227,-1.102 0.881,-0.735 1.476,-1.824 1.788,-3.269 z" />
	<path
   id="path551"
   d="m 187.395,381.535 v -17.188 h 2.281 v 7.063 h 8.891 v -7.063 h 2.281 v 17.188 h -2.281 v -8.094 h -8.891 v 8.094 z" />
</g><g
     id="g553"
     transform="matrix(0.95,0,0,0.95,12.53325,18.7683)">
	<path
   id="path555"
   d="m 202.445,382.629 1.578,-0.219 c 0.183,0.896 0.492,1.543 0.928,1.938 0.437,0.396 0.972,0.594 1.607,0.594 0.753,0 1.386,-0.258 1.899,-0.773 0.513,-0.515 0.769,-1.153 0.769,-1.914 0,-0.727 -0.238,-1.325 -0.716,-1.797 -0.477,-0.471 -1.083,-0.707 -1.819,-0.707 -0.301,0 -0.675,0.059 -1.122,0.176 l 0.177,-1.391 c 0.106,0.012 0.191,0.018 0.256,0.018 0.674,0 1.281,-0.176 1.821,-0.526 0.54,-0.351 0.81,-0.892 0.81,-1.623 0,-0.579 -0.197,-1.059 -0.591,-1.438 -0.394,-0.38 -0.902,-0.57 -1.525,-0.57 -0.617,0 -1.132,0.194 -1.543,0.582 -0.412,0.389 -0.676,0.971 -0.793,1.746 l -1.578,-0.281 c 0.193,-1.062 0.634,-1.885 1.32,-2.469 0.686,-0.583 1.54,-0.875 2.561,-0.875 0.704,0 1.353,0.15 1.945,0.452 0.592,0.301 1.045,0.712 1.36,1.232 0.313,0.521 0.471,1.073 0.471,1.658 0,0.556 -0.149,1.062 -0.448,1.518 -0.299,0.456 -0.741,0.818 -1.327,1.088 0.762,0.176 1.354,0.54 1.779,1.095 0.424,0.553 0.637,1.246 0.637,2.078 0,1.125 -0.411,2.079 -1.233,2.861 -0.822,0.783 -1.861,1.174 -3.117,1.174 -1.133,0 -2.074,-0.336 -2.822,-1.01 -0.752,-0.674 -1.179,-1.547 -1.284,-2.617 z" />
</g><path
     id="polygon557"
     d="m 181.467,361.98905 -7.03,1.9 -4.5125,-27.645 0.76,-0.38 0.9975,0.38 z" /><path
     id="polygon559"
     d="m 154.677,399.13405 -1.805,-0.475 -9.6425,-35.9575 1.5675,-0.4275 z" /><path
     id="polygon561"
     d="m 128.0295,425.78155 -1.805,-0.475 26.6475,-26.6475 1.805,0.475 z" /><g
     id="g563"
     transform="matrix(0.95,0,0,0.95,12.53325,18.7683)">
	<path
   id="path565"
   d="m 124.103,475.935 v -17.188 h 2.34 l 9.004,13.488 v -13.488 h 2.188 v 17.188 h -2.34 l -9.004,-13.489 v 13.489 z" />
	<path
   id="path567"
   d="m 141.544,475.935 v -17.188 h 2.281 v 7.063 h 8.891 v -7.063 h 2.281 v 17.188 h -2.281 v -8.094 h -8.891 v 8.094 z" />
</g><path
     id="polygon569"
     d="m 134.917,451.4781 -1.5675,0.42845 -7.125,-26.6 1.805,0.475 z" /><g
     id="g571"
     transform="matrix(0.95,0,0,0.95,12.53325,18.7683)">
	<path
   id="path573"
   d="m 74.131,418.97 c 0,-2.852 0.766,-5.085 2.298,-6.699 1.532,-1.613 3.51,-2.42 5.933,-2.42 1.587,0 3.017,0.379 4.291,1.137 1.274,0.758 2.245,1.815 2.914,3.171 0.668,1.356 1.002,2.894 1.002,4.612 0,1.742 -0.352,3.302 -1.055,4.677 -0.704,1.376 -1.7,2.417 -2.99,3.124 -1.29,0.707 -2.681,1.061 -4.174,1.061 -1.618,0 -3.064,-0.391 -4.338,-1.172 -1.274,-0.781 -2.239,-1.848 -2.896,-3.2 -0.657,-1.353 -0.985,-2.783 -0.985,-4.291 z m 2.344,0.029 c 0,2.07 0.557,3.701 1.671,4.893 1.114,1.192 2.512,1.787 4.192,1.787 1.712,0 3.121,-0.602 4.228,-1.805 1.106,-1.203 1.659,-2.91 1.659,-5.121 0,-1.398 -0.236,-2.619 -0.709,-3.662 -0.473,-1.043 -1.165,-1.852 -2.076,-2.426 -0.911,-0.574 -1.933,-0.861 -3.066,-0.861 -1.61,0 -2.996,0.553 -4.157,1.658 -1.161,1.105 -1.742,2.951 -1.742,5.537 z" />
</g><path
     id="polygon575"
     d="m 99.7195,421.93405 0.38,-1.56845 28.0725,7.55345 -0.38,1.52 z" /><path
     id="polygon577"
     d="m 101.1445,416.47155 0.4275,-1.56845 28.0725,7.55345 -0.4275,1.52 z" /><path
     id="polygon579"
     d="m 111.167,488.7656 -1.805,-0.475 17.765,-17.76405 1.14,1.13905 z" /><g
     id="g581"
     transform="matrix(0.95,0,0,0.95,12.53325,18.7683)">
	<path
   id="path583"
   d="m 174.731,691.52 c 0,-2.852 0.766,-5.085 2.298,-6.699 1.532,-1.613 3.51,-2.42 5.933,-2.42 1.587,0 3.017,0.379 4.291,1.137 1.274,0.758 2.245,1.815 2.914,3.171 0.668,1.356 1.002,2.894 1.002,4.612 0,1.742 -0.352,3.302 -1.055,4.677 -0.704,1.376 -1.7,2.417 -2.99,3.124 -1.29,0.707 -2.681,1.061 -4.174,1.061 -1.618,0 -3.064,-0.391 -4.338,-1.172 -1.274,-0.781 -2.239,-1.848 -2.896,-3.2 -0.657,-1.353 -0.985,-2.784 -0.985,-4.291 z m 2.344,0.029 c 0,2.07 0.557,3.701 1.671,4.893 1.114,1.192 2.512,1.787 4.192,1.787 1.712,0 3.121,-0.602 4.228,-1.805 1.106,-1.203 1.659,-2.91 1.659,-5.121 0,-1.398 -0.236,-2.619 -0.709,-3.662 -0.473,-1.043 -1.165,-1.852 -2.076,-2.426 -0.911,-0.574 -1.933,-0.861 -3.066,-0.861 -1.61,0 -2.996,0.553 -4.157,1.658 -1.161,1.105 -1.742,2.951 -1.742,5.537 z" />
</g><path
     id="polygon585"
     d="m 163.892,653.16405 -0.3325,-0.8075 0.8075,-0.8075 h 43.795 l 0.8075,0.8075 -0.3325,0.8075 z" /><path
     id="polygon587"
     d="m 151.3045,665.56155 -1.7575,0.61655 -0.8075,-0.33155 14.0125,-13.8225 0.8075,0.3325 0.3325,0.8075 z" /><path
     id="polygon589"
     d="m 177.477,668.88655 -1.615,7.0775 -25.5075,-8.6925 -0.8075,-1.09345 1.7575,-0.61655 z" /><path
     id="polygon591"
     d="m 221.272,665.56155 1.7575,0.61655 0.8075,0.57095 -27.1225,9.2625 -1.6625,-7.0775 z" /><path
     id="polygon593"
     d="m 222.222,664.23155 0.8075,1.94655 -1.7575,-0.61655 -12.635,-12.3975 0.3325,-0.8075 0.8075,-0.3325 z" /><g
     id="g595"
     transform="matrix(0.95,0,0,0.95,12.53325,18.7683)">
	<path
   id="path597"
   d="m 182.063,636.685 v -17.188 h 2.281 v 7.063 h 8.891 v -7.063 h 2.281 v 17.188 h -2.281 v -8.094 h -8.891 v 8.094 z" />
	<path
   id="path599"
   d="m 198.613,628.319 c 0,-2.852 0.766,-5.085 2.298,-6.699 1.532,-1.613 3.51,-2.42 5.933,-2.42 1.587,0 3.017,0.379 4.291,1.137 1.274,0.758 2.245,1.815 2.914,3.171 0.668,1.356 1.002,2.894 1.002,4.612 0,1.742 -0.352,3.302 -1.055,4.677 -0.704,1.376 -1.7,2.417 -2.99,3.124 -1.29,0.707 -2.681,1.061 -4.174,1.061 -1.618,0 -3.064,-0.391 -4.338,-1.172 -1.274,-0.781 -2.239,-1.848 -2.896,-3.2 -0.657,-1.352 -0.985,-2.783 -0.985,-4.291 z m 2.344,0.03 c 0,2.07 0.557,3.701 1.671,4.893 1.114,1.192 2.512,1.787 4.192,1.787 1.712,0 3.121,-0.602 4.228,-1.805 1.106,-1.203 1.659,-2.91 1.659,-5.121 0,-1.398 -0.236,-2.619 -0.709,-3.662 -0.473,-1.043 -1.165,-1.852 -2.076,-2.426 -0.911,-0.574 -1.933,-0.861 -3.066,-0.861 -1.61,0 -2.996,0.553 -4.157,1.658 -1.161,1.105 -1.742,2.951 -1.742,5.537 z" />
</g><path
     id="polygon601"
     d="m 208.162,626.0406 h 1.615 v 25.98345 l -0.8075,0.3325 -0.8075,-0.8075 z" /><path
     id="polygon603"
     d="m 222.222,550.56405 h 1.615 v 116.185 l -0.8075,-0.57095 -0.8075,-1.94655 z" /><path
     id="polygon605"
     d="m 150.3545,704.32155 -1.615,-0.9025 v -37.5725 l 0.8075,0.33155 0.8075,1.09345 z" /><g
     id="g607"
     transform="matrix(0.95,0,0,0.95,12.53325,18.7683)">
	<path
   id="path609"
   d="m 85.163,750.435 v -17.188 h 2.281 v 7.063 h 8.891 v -7.063 h 2.281 v 17.188 h -2.281 v -8.094 h -8.891 v 8.094 z" />
	<path
   id="path611"
   d="m 101.713,742.069 c 0,-2.852 0.766,-5.085 2.298,-6.699 1.532,-1.613 3.51,-2.42 5.933,-2.42 1.587,0 3.017,0.379 4.291,1.137 1.274,0.758 2.245,1.815 2.914,3.171 0.668,1.356 1.002,2.894 1.002,4.612 0,1.742 -0.352,3.302 -1.055,4.677 -0.704,1.376 -1.7,2.417 -2.99,3.124 -1.29,0.707 -2.681,1.061 -4.174,1.061 -1.618,0 -3.064,-0.391 -4.338,-1.172 -1.274,-0.781 -2.239,-1.848 -2.896,-3.2 -0.656,-1.352 -0.985,-2.783 -0.985,-4.291 z m 2.344,0.03 c 0,2.07 0.557,3.701 1.671,4.893 1.114,1.192 2.512,1.787 4.192,1.787 1.712,0 3.121,-0.602 4.228,-1.805 1.106,-1.203 1.659,-2.91 1.659,-5.121 0,-1.398 -0.236,-2.619 -0.709,-3.662 -0.473,-1.043 -1.165,-1.852 -2.076,-2.426 -0.911,-0.574 -1.933,-0.861 -3.066,-0.861 -1.61,0 -2.996,0.553 -4.157,1.658 -1.161,1.105 -1.742,2.951 -1.742,5.537 z" />
</g><path
     id="polygon613"
     d="m 125.892,718.4281 -0.8075,-1.37655 23.655,-13.6325 1.615,0.9025 z" /><g
     id="g615"
     transform="matrix(0.95,0,0,0.95,12.53325,18.7683)">
	<path
   id="path617"
   d="m 214.803,493.385 v -17.188 h 2.34 l 9.004,13.488 v -13.488 h 2.188 v 17.188 h -2.34 l -9.004,-13.489 v 13.489 z" />
</g><g
     id="g619"
     transform="matrix(0.95,0,0,0.95,12.53325,18.7683)">
	<path
   id="path621"
   d="m 214.803,557.585 v -17.188 h 2.34 l 9.004,13.488 v -13.488 h 2.188 v 17.188 h -2.34 l -9.004,-13.489 v 13.489 z" />
</g><path
     id="polygon623"
     d="m 201.892,509.00155 h -1.995 l 14.7725,-20.33 1.2825,0.95 z" /><path
     id="polygon625"
     d="m 208.542,509.47655 -1.33,-0.95 12.0175,-16.53 1.33,0.95 z" /><path
     id="polygon627"
     d="m 216.712,529.3781 -1.33,0.95 -15.485,-21.32655 h 1.995 z" /><path
     id="polygon629"
     d="m 258.0845,527.2406 0.80655,0.61845 -0.094,0.855 -26.1725,8.50155 -0.475,-1.51905 z" /><path
     id="polygon631"
     d="m 258.0845,490.71405 0.80655,-0.57 0.8094,0.475 v 36.765 l -0.8094,0.475 -0.80655,-0.61845 z" /><path
     id="polygon633"
     d="m 232.1495,482.30655 0.475,-1.52 26.1725,8.45405 0.094,0.90345 -0.80655,0.57 z" /><path
     id="polygon635"
     d="m 291.572,545.7656 v 1.85345 l -32.775,-18.905 0.094,-0.855 0.8094,-0.475 z" /><path
     id="polygon637"
     d="m 291.952,539.44905 -0.8075,1.425 -26.98,-15.58 0.8075,-1.425 z" /><path
     id="polygon639"
     d="m 323.397,527.38405 0.80655,0.475 v 0.9025 l -32.63155,18.8575 v -1.85345 z" /><path
     id="polygon641"
     d="m 323.397,490.61905 0.80655,-0.475 0.8094,0.475 v 36.765 l -0.8094,0.475 -0.80655,-0.475 z" /><path
     id="rect643"
     d="m 317.74449,493.42156 h 1.61405 v 31.16 h -1.61405 z" /><path
     id="polygon645"
     d="m 291.572,472.23655 v -1.8525 l 32.63155,18.81 v 0.95 l -0.80655,0.475 z" /><path
     id="polygon647"
     d="m 259.70045,490.61905 -0.8094,-0.475 -0.094,-0.90345 32.775,-18.85655 v 1.8525 z" /><path
     id="polygon649"
     d="m 264.972,494.08655 -0.8075,-1.3775 26.98,-15.58095 0.8075,1.37845 z" /><g
     id="g651"
     transform="matrix(0.95,0,0,0.95,12.53325,18.7683)">
	<path
   id="path653"
   d="m 367.869,479.808 2.281,0.574 c -0.477,1.87 -1.334,3.296 -2.57,4.277 -1.236,0.982 -2.749,1.473 -4.536,1.473 -1.85,0 -3.354,-0.377 -4.513,-1.132 -1.16,-0.755 -2.041,-1.847 -2.646,-3.278 -0.604,-1.431 -0.906,-2.967 -0.906,-4.609 0,-1.791 0.341,-3.353 1.023,-4.686 0.683,-1.334 1.654,-2.346 2.914,-3.038 1.26,-0.692 2.646,-1.038 4.16,-1.038 1.717,0 3.16,0.438 4.33,1.314 1.172,0.877 1.986,2.109 2.447,3.697 l -2.234,0.527 c -0.398,-1.25 -0.976,-2.16 -1.732,-2.73 -0.756,-0.57 -1.709,-0.855 -2.855,-0.855 -1.318,0 -2.42,0.316 -3.305,0.949 -0.886,0.633 -1.508,1.482 -1.867,2.549 -0.358,1.066 -0.537,2.166 -0.537,3.299 0,1.461 0.212,2.736 0.637,3.826 0.425,1.09 1.086,1.904 1.982,2.443 0.896,0.539 1.867,0.809 2.911,0.809 1.271,0 2.347,-0.367 3.228,-1.102 0.881,-0.735 1.476,-1.824 1.788,-3.269 z" />
	<path
   id="path655"
   d="m 373.045,485.835 v -17.188 h 2.281 v 7.063 h 8.891 v -7.063 h 2.281 v 17.188 h -2.281 v -8.094 h -8.891 v 8.094 z" />
</g><g
     id="g657"
     transform="matrix(0.95,0,0,0.95,12.53325,18.7683)">
	<path
   id="path659"
   d="m 388.095,486.929 1.578,-0.219 c 0.183,0.896 0.492,1.543 0.928,1.938 0.437,0.396 0.972,0.594 1.607,0.594 0.753,0 1.386,-0.258 1.899,-0.773 0.512,-0.515 0.769,-1.153 0.769,-1.914 0,-0.727 -0.238,-1.325 -0.716,-1.797 -0.477,-0.471 -1.084,-0.707 -1.819,-0.707 -0.301,0 -0.675,0.059 -1.122,0.176 l 0.177,-1.391 c 0.106,0.012 0.191,0.018 0.256,0.018 0.675,0 1.281,-0.176 1.821,-0.526 0.539,-0.351 0.81,-0.892 0.81,-1.623 0,-0.579 -0.197,-1.059 -0.591,-1.438 -0.395,-0.38 -0.902,-0.57 -1.525,-0.57 -0.617,0 -1.132,0.194 -1.543,0.582 -0.412,0.389 -0.677,0.971 -0.794,1.746 l -1.578,-0.281 c 0.193,-1.062 0.634,-1.885 1.32,-2.469 0.687,-0.583 1.54,-0.875 2.561,-0.875 0.704,0 1.353,0.15 1.944,0.452 0.593,0.301 1.046,0.712 1.36,1.232 0.313,0.521 0.471,1.073 0.471,1.658 0,0.556 -0.149,1.062 -0.448,1.518 -0.299,0.456 -0.741,0.818 -1.327,1.088 0.762,0.176 1.354,0.54 1.779,1.095 0.425,0.553 0.637,1.246 0.637,2.078 0,1.125 -0.411,2.079 -1.233,2.861 -0.821,0.783 -1.86,1.174 -3.116,1.174 -1.134,0 -2.074,-0.336 -2.822,-1.01 -0.751,-0.674 -1.178,-1.547 -1.283,-2.617 z" />
</g><path
     id="polygon661"
     d="m 347.6695,475.65655 0.8075,1.425 -23.46405,13.5375 -0.8094,-0.475 v -0.95 z" /><g
     id="g663"
     transform="matrix(0.95,0,0,0.95,12.53325,18.7683)">
	<path
   id="path665"
   d="m 367.869,559.107 2.281,0.574 c -0.477,1.87 -1.334,3.296 -2.57,4.277 -1.236,0.982 -2.749,1.473 -4.536,1.473 -1.85,0 -3.354,-0.377 -4.513,-1.132 -1.16,-0.755 -2.041,-1.847 -2.646,-3.278 -0.604,-1.431 -0.906,-2.967 -0.906,-4.609 0,-1.791 0.341,-3.353 1.023,-4.686 0.683,-1.334 1.654,-2.346 2.914,-3.038 1.26,-0.692 2.646,-1.038 4.16,-1.038 1.717,0 3.16,0.438 4.33,1.314 1.172,0.877 1.986,2.109 2.447,3.697 l -2.234,0.527 c -0.398,-1.25 -0.976,-2.16 -1.732,-2.73 -0.756,-0.57 -1.709,-0.855 -2.855,-0.855 -1.318,0 -2.42,0.316 -3.305,0.949 -0.886,0.633 -1.508,1.482 -1.867,2.549 -0.358,1.066 -0.537,2.166 -0.537,3.299 0,1.461 0.212,2.736 0.637,3.826 0.425,1.09 1.086,1.904 1.982,2.443 0.896,0.539 1.867,0.809 2.911,0.809 1.271,0 2.347,-0.367 3.228,-1.102 0.881,-0.735 1.476,-1.823 1.788,-3.269 z" />
	<path
   id="path667"
   d="m 373.045,565.135 v -17.188 h 2.281 v 7.063 h 8.891 v -7.063 h 2.281 v 17.188 h -2.281 v -8.094 h -8.891 v 8.094 z" />
</g><g
     id="g669"
     transform="matrix(0.95,0,0,0.95,12.53325,18.7683)">
	<path
   id="path671"
   d="m 388.095,566.229 1.578,-0.219 c 0.183,0.896 0.492,1.543 0.928,1.938 0.437,0.396 0.972,0.594 1.607,0.594 0.753,0 1.386,-0.258 1.899,-0.773 0.512,-0.515 0.769,-1.153 0.769,-1.914 0,-0.727 -0.238,-1.325 -0.716,-1.797 -0.477,-0.471 -1.084,-0.707 -1.819,-0.707 -0.301,0 -0.675,0.059 -1.122,0.176 l 0.177,-1.391 c 0.106,0.012 0.191,0.018 0.256,0.018 0.675,0 1.281,-0.176 1.821,-0.526 0.539,-0.351 0.81,-0.892 0.81,-1.623 0,-0.579 -0.197,-1.059 -0.591,-1.438 -0.395,-0.38 -0.902,-0.57 -1.525,-0.57 -0.617,0 -1.132,0.194 -1.543,0.582 -0.412,0.389 -0.677,0.971 -0.794,1.746 l -1.578,-0.281 c 0.193,-1.062 0.634,-1.885 1.32,-2.469 0.687,-0.583 1.54,-0.875 2.561,-0.875 0.704,0 1.353,0.15 1.944,0.452 0.593,0.301 1.046,0.712 1.36,1.232 0.313,0.521 0.471,1.073 0.471,1.658 0,0.556 -0.149,1.062 -0.448,1.518 -0.299,0.456 -0.741,0.818 -1.327,1.088 0.762,0.176 1.354,0.54 1.779,1.095 0.425,0.553 0.637,1.246 0.637,2.078 0,1.125 -0.411,2.079 -1.233,2.861 -0.821,0.783 -1.86,1.174 -3.116,1.174 -1.134,0 -2.074,-0.336 -2.822,-1.01 -0.751,-0.674 -1.178,-1.547 -1.283,-2.617 z" />
</g><path
     id="polygon673"
     d="m 349.1895,541.34905 -0.8075,1.3775 -24.17845,-13.965 v -0.9025 l 0.8094,-0.475 z" /><path
     id="polygon675"
     d="m 120.857,524.91405 h -1.71 l -9.785,-36.62345 1.805,0.475 z" /><g
     id="g677"
     transform="matrix(0.95,0,0,0.95,12.53325,18.7683)">
	<path
   id="path679"
   d="m 94.631,572.22 c 0,-2.852 0.766,-5.085 2.298,-6.699 1.532,-1.613 3.51,-2.42 5.933,-2.42 1.587,0 3.017,0.379 4.291,1.137 1.274,0.758 2.245,1.815 2.914,3.171 0.668,1.356 1.002,2.894 1.002,4.612 0,1.742 -0.352,3.302 -1.055,4.677 -0.704,1.376 -1.7,2.417 -2.99,3.124 -1.29,0.707 -2.681,1.061 -4.174,1.061 -1.618,0 -3.064,-0.391 -4.338,-1.172 -1.274,-0.781 -2.239,-1.848 -2.896,-3.2 -0.657,-1.353 -0.985,-2.783 -0.985,-4.291 z m 2.344,0.029 c 0,2.07 0.557,3.701 1.671,4.893 1.114,1.192 2.512,1.787 4.192,1.787 1.712,0 3.121,-0.602 4.228,-1.805 1.106,-1.203 1.659,-2.91 1.659,-5.121 0,-1.398 -0.236,-2.619 -0.709,-3.662 -0.473,-1.043 -1.165,-1.852 -2.076,-2.426 -0.911,-0.574 -1.933,-0.861 -3.066,-0.861 -1.61,0 -2.996,0.553 -4.157,1.658 -1.161,1.105 -1.742,2.951 -1.742,5.537 z" />
</g><path
     id="polygon681"
     d="m 113.542,552.08405 -1.52,-0.4275 7.125,-26.7425 h 1.71 z" /><g
     id="g683"
     transform="matrix(0.95,0,0,0.95,12.53325,18.7683)">
	<path
   id="path685"
   d="m 156.918,525.957 2.281,0.574 c -0.476,1.87 -1.333,3.296 -2.569,4.277 -1.237,0.982 -2.75,1.473 -4.537,1.473 -1.85,0 -3.354,-0.377 -4.513,-1.132 -1.159,-0.755 -2.041,-1.847 -2.646,-3.278 -0.605,-1.431 -0.907,-2.967 -0.907,-4.609 0,-1.791 0.341,-3.353 1.024,-4.686 0.683,-1.334 1.654,-2.346 2.915,-3.038 1.26,-0.692 2.646,-1.038 4.16,-1.038 1.717,0 3.16,0.438 4.33,1.314 1.171,0.877 1.986,2.109 2.446,3.697 l -2.234,0.527 c -0.398,-1.25 -0.975,-2.16 -1.731,-2.73 -0.757,-0.57 -1.709,-0.855 -2.855,-0.855 -1.318,0 -2.42,0.316 -3.306,0.949 -0.885,0.633 -1.507,1.482 -1.866,2.549 -0.359,1.067 -0.538,2.166 -0.538,3.299 0,1.461 0.212,2.736 0.637,3.826 0.425,1.09 1.085,1.904 1.982,2.443 0.897,0.539 1.867,0.809 2.912,0.809 1.271,0 2.346,-0.367 3.227,-1.102 0.881,-0.735 1.476,-1.824 1.788,-3.269 z" />
	<path
   id="path687"
   d="m 162.094,531.984 v -17.188 h 2.281 v 7.063 h 8.891 v -7.063 h 2.281 v 17.188 h -2.281 v -8.094 h -8.891 v 8.094 z" />
</g><g
     id="g689"
     transform="matrix(0.95,0,0,0.95,12.53325,18.7683)">
	<path
   id="path691"
   d="m 177.145,533.078 1.578,-0.219 c 0.183,0.896 0.492,1.543 0.928,1.938 0.437,0.396 0.972,0.594 1.607,0.594 0.753,0 1.386,-0.258 1.899,-0.773 0.513,-0.515 0.769,-1.153 0.769,-1.914 0,-0.727 -0.238,-1.325 -0.716,-1.797 -0.477,-0.471 -1.083,-0.707 -1.819,-0.707 -0.301,0 -0.675,0.059 -1.122,0.176 l 0.177,-1.391 c 0.106,0.012 0.191,0.018 0.256,0.018 0.674,0 1.281,-0.176 1.821,-0.526 0.54,-0.351 0.81,-0.892 0.81,-1.623 0,-0.579 -0.197,-1.059 -0.591,-1.438 -0.394,-0.38 -0.902,-0.57 -1.525,-0.57 -0.617,0 -1.132,0.194 -1.543,0.582 -0.412,0.389 -0.676,0.971 -0.793,1.746 l -1.578,-0.281 c 0.193,-1.062 0.634,-1.885 1.32,-2.469 0.686,-0.583 1.54,-0.875 2.561,-0.875 0.704,0 1.353,0.15 1.945,0.452 0.592,0.301 1.045,0.712 1.36,1.232 0.313,0.521 0.471,1.073 0.471,1.658 0,0.556 -0.149,1.062 -0.448,1.518 -0.299,0.456 -0.741,0.818 -1.327,1.088 0.762,0.176 1.354,0.54 1.779,1.095 0.424,0.553 0.637,1.246 0.637,2.078 0,1.125 -0.411,2.079 -1.233,2.861 -0.822,0.783 -1.861,1.174 -3.117,1.174 -1.133,0 -2.074,-0.336 -2.822,-1.01 -0.752,-0.674 -1.179,-1.547 -1.284,-2.617 z" />
</g><g
     id="g709"
     transform="matrix(0.95,0,0,0.95,12.53325,18.7683)">
	<path
   id="path711"
   d="m 124.334,608.635 v -17.188 h 6.479 c 1.14,0 2.011,0.055 2.612,0.164 0.844,0.141 1.55,0.408 2.121,0.804 0.57,0.395 1.029,0.948 1.376,1.659 0.348,0.712 0.521,1.494 0.521,2.346 0,1.462 -0.464,2.699 -1.393,3.712 -0.929,1.013 -2.607,1.519 -5.034,1.519 h -4.401 v 6.984 z m 2.282,-9.016 h 4.436 c 1.466,0 2.508,-0.273 3.124,-0.82 0.616,-0.547 0.925,-1.316 0.925,-2.309 0,-0.719 -0.182,-1.334 -0.544,-1.846 -0.363,-0.512 -0.841,-0.85 -1.434,-1.014 -0.383,-0.102 -1.089,-0.152 -2.118,-0.152 h -4.389 z" />
</g><path
     id="rect713"
     d="m 117.43227,569.70371 1.13995,-1.13995 10.54505,10.54505 -1.13995,1.13995 z" /><g
     id="g715"
     transform="matrix(0.95,0,0,0.95,12.53325,18.7683)">
	<path
   id="path717"
   d="m 78.163,636.685 v -17.188 h 2.281 v 7.063 h 8.891 v -7.063 h 2.281 v 17.188 h -2.281 v -8.094 h -8.891 v 8.094 z" />
	<path
   id="path719"
   d="m 94.713,628.319 c 0,-2.852 0.766,-5.085 2.298,-6.699 1.532,-1.613 3.51,-2.42 5.933,-2.42 1.587,0 3.017,0.379 4.291,1.137 1.274,0.758 2.245,1.815 2.914,3.171 0.668,1.356 1.002,2.894 1.002,4.612 0,1.742 -0.352,3.302 -1.055,4.677 -0.704,1.376 -1.7,2.417 -2.99,3.124 -1.29,0.707 -2.681,1.061 -4.174,1.061 -1.618,0 -3.064,-0.391 -4.338,-1.172 -1.274,-0.781 -2.239,-1.848 -2.896,-3.2 -0.656,-1.352 -0.985,-2.783 -0.985,-4.291 z m 2.344,0.03 c 0,2.07 0.557,3.701 1.671,4.893 1.114,1.192 2.512,1.787 4.192,1.787 1.712,0 3.121,-0.602 4.228,-1.805 1.106,-1.203 1.659,-2.91 1.659,-5.121 0,-1.398 -0.236,-2.619 -0.709,-3.662 -0.473,-1.043 -1.165,-1.852 -2.076,-2.426 -0.911,-0.574 -1.933,-0.861 -3.066,-0.861 -1.61,0 -2.996,0.553 -4.157,1.658 -1.161,1.105 -1.742,2.951 -1.742,5.537 z" />
</g><path
     id="rect721"
     d="m 127.20555,596.57504 1.1396,1.13912 -10.54356,10.54804 -1.13961,-1.13912 z" /><g
     id="g723"
     transform="matrix(0.95,0,0,0.95,12.53325,18.7683)">
	<path
   id="path725"
   d="m 150.781,572.22 c 0,-2.852 0.766,-5.085 2.298,-6.699 1.532,-1.613 3.51,-2.42 5.933,-2.42 1.587,0 3.017,0.379 4.291,1.137 1.274,0.758 2.245,1.815 2.914,3.171 0.668,1.356 1.002,2.894 1.002,4.612 0,1.742 -0.352,3.302 -1.055,4.677 -0.704,1.376 -1.7,2.417 -2.99,3.124 -1.29,0.707 -2.681,1.061 -4.174,1.061 -1.618,0 -3.064,-0.391 -4.338,-1.172 -1.274,-0.781 -2.239,-1.848 -2.896,-3.2 -0.657,-1.353 -0.985,-2.783 -0.985,-4.291 z m 2.344,0.029 c 0,2.07 0.557,3.701 1.671,4.893 1.114,1.192 2.512,1.787 4.192,1.787 1.712,0 3.121,-0.602 4.228,-1.805 1.106,-1.203 1.659,-2.91 1.659,-5.121 0,-1.398 -0.236,-2.619 -0.709,-3.662 -0.473,-1.043 -1.165,-1.852 -2.076,-2.426 -0.911,-0.574 -1.933,-0.861 -3.066,-0.861 -1.61,0 -2.996,0.553 -4.157,1.658 -1.161,1.105 -1.742,2.951 -1.742,5.537 z" />
</g><path
     id="polygon727"
     d="m 153.2045,566.57155 1.14,1.14 -12.445,12.3975 -1.14,-1.14 z" /><path
     id="polygon729"
     d="m 157.1945,570.56155 1.14,1.14 -12.3975,12.445 -1.14,-1.14 z" /><g
     id="g731"
     transform="matrix(0.95,0,0,0.95,12.53325,18.7683)">
	<path
   id="path733"
   d="m 150.781,628.319 c 0,-2.852 0.766,-5.085 2.298,-6.699 1.532,-1.613 3.51,-2.42 5.933,-2.42 1.587,0 3.017,0.379 4.291,1.137 1.274,0.758 2.245,1.815 2.914,3.171 0.668,1.356 1.002,2.894 1.002,4.612 0,1.742 -0.352,3.302 -1.055,4.677 -0.704,1.376 -1.7,2.417 -2.99,3.124 -1.29,0.707 -2.681,1.061 -4.174,1.061 -1.618,0 -3.064,-0.391 -4.338,-1.172 -1.274,-0.781 -2.239,-1.848 -2.896,-3.2 -0.657,-1.352 -0.985,-2.783 -0.985,-4.291 z m 2.344,0.03 c 0,2.07 0.557,3.701 1.671,4.893 1.114,1.192 2.512,1.787 4.192,1.787 1.712,0 3.121,-0.602 4.228,-1.805 1.106,-1.203 1.659,-2.91 1.659,-5.121 0,-1.398 -0.236,-2.619 -0.709,-3.662 -0.473,-1.043 -1.165,-1.852 -2.076,-2.426 -0.911,-0.574 -1.933,-0.861 -3.066,-0.861 -1.61,0 -2.996,0.553 -4.157,1.658 -1.161,1.105 -1.742,2.951 -1.742,5.537 z" />
</g><path
     id="polygon735"
     d="m 157.0995,607.08905 -1.14,1.13905 -15.2475,-15.24655 1.1875,-1.14095 z" /><path
     id="polygon737"
     d="m 164.367,651.54905 -0.8075,0.8075 -0.8075,-0.3325 V 626.0406 h 1.615 z" /><path
     id="rect743"
     d="m 236.8995,197.482 h 1.615 v 34.78455 h -1.615 z" /><g
     id="g745"
     transform="matrix(0.95,0,0,0.95,12.53325,18.7683)">
	<path
   id="path747"
   d="m 111.163,270.535 v -17.188 h 2.281 v 7.063 h 8.891 v -7.063 h 2.281 v 17.188 h -2.281 v -8.094 h -8.891 v 8.094 z" />
</g><path
     id="polygon749"
     d="m 133.492,272.68905 1.71,-7.0775 25.1275,8.835 0.8075,1.14 -1.235,0.665 z" /><g
     style="overflow:visible"
     id="g2753"
     transform="matrix(0.95,0,0,0.95,-189.52026,-250.26822)">
	<path
   id="path2755"
   d="m 455.85923,462.52221 2.281,0.574 c -0.476,1.87 -1.333,3.296 -2.569,4.277 -1.237,0.982 -2.75,1.473 -4.537,1.473 -1.85,0 -3.354,-0.377 -4.513,-1.132 -1.159,-0.755 -2.041,-1.847 -2.646,-3.278 -0.605,-1.431 -0.907,-2.967 -0.907,-4.609 0,-1.791 0.341,-3.353 1.024,-4.686 0.683,-1.334 1.654,-2.346 2.915,-3.038 1.26,-0.692 2.646,-1.038 4.16,-1.038 1.717,0 3.16,0.438 4.33,1.314 1.171,0.877 1.986,2.109 2.446,3.697 l -2.234,0.527 c -0.398,-1.25 -0.975,-2.16 -1.731,-2.73 -0.757,-0.57 -1.709,-0.855 -2.855,-0.855 -1.318,0 -2.42,0.316 -3.306,0.949 -0.885,0.633 -1.507,1.482 -1.866,2.549 -0.359,1.067 -0.538,2.166 -0.538,3.299 0,1.461 0.212,2.736 0.637,3.826 0.425,1.09 1.085,1.904 1.982,2.443 0.897,0.539 1.867,0.809 2.912,0.809 1.271,0 2.346,-0.367 3.227,-1.102 0.881,-0.735 1.476,-1.824 1.788,-3.269 z" />
	
</g><path
     id="path2761"
     d="m 247.48539,194.854 v -16.3286 h 2.223 l 8.5538,12.8136 v -12.8136 h 2.0786 v 16.3286 h -2.223 l -8.5538,-12.81455 V 194.854 Z" /><path
     style="overflow:visible"
     id="polygon557-3"
     d="m 146.43058,514.35271 1.81377,7.05273 -27.69818,4.17368 -0.37065,-0.7646 0.39218,-0.99277 z" /></g></svg>