<?xml version="1.0" encoding="UTF-8" standalone="no"?>
<!-- Created with Inkscape (http://www.inkscape.org/) -->

<svg
   xmlns:dc="http://purl.org/dc/elements/1.1/"
   xmlns:cc="http://creativecommons.org/ns#"
   xmlns:rdf="http://www.w3.org/1999/02/22-rdf-syntax-ns#"
   xmlns:svg="http://www.w3.org/2000/svg"
   xmlns="http://www.w3.org/2000/svg"
   xmlns:sodipodi="http://sodipodi.sourceforge.net/DTD/sodipodi-0.dtd"
   xmlns:inkscape="http://www.inkscape.org/namespaces/inkscape"
   sodipodi:docname="Obesity-waist_circumference.svg"
   inkscape:version="0.47 r22583"
   version="1.1"
   id="svg2"
   height="331"
   width="376">
  <sodipodi:namedview
     id="base"
     pagecolor="#ffffff"
     bordercolor="#666666"
     borderopacity="1.0"
     inkscape:pageopacity="0.0"
     inkscape:pageshadow="2"
     inkscape:zoom="2.8"
     inkscape:cx="143.98452"
     inkscape:cy="174.3491"
     inkscape:document-units="px"
     inkscape:current-layer="layer1"
     showgrid="true"
     inkscape:snap-page="false"
     inkscape:window-width="1920"
     inkscape:window-height="1153"
     inkscape:window-x="-4"
     inkscape:window-y="-4"
     inkscape:window-maximized="1"
     inkscape:snap-grids="false">
    <inkscape:grid
       type="xygrid"
       id="grid2816"
       empspacing="5"
       visible="true"
       enabled="true"
       snapvisiblegridlinesonly="true" />
  </sodipodi:namedview>
  <defs
     id="defs4">
    <inkscape:perspective
       sodipodi:type="inkscape:persp3d"
       inkscape:vp_x="0 : 526.18109 : 1"
       inkscape:vp_y="0 : 1000 : 0"
       inkscape:vp_z="744.09448 : 526.18109 : 1"
       inkscape:persp3d-origin="372.04724 : 350.78739 : 1"
       id="perspective10" />
    <inkscape:perspective
       id="perspective3824"
       inkscape:persp3d-origin="0.5 : 0.33333333 : 1"
       inkscape:vp_z="1 : 0.5 : 1"
       inkscape:vp_y="0 : 1000 : 0"
       inkscape:vp_x="0 : 0.5 : 1"
       sodipodi:type="inkscape:persp3d" />
    <inkscape:perspective
       id="perspective5302"
       inkscape:persp3d-origin="0.5 : 0.33333333 : 1"
       inkscape:vp_z="1 : 0.5 : 1"
       inkscape:vp_y="0 : 1000 : 0"
       inkscape:vp_x="0 : 0.5 : 1"
       sodipodi:type="inkscape:persp3d" />
    <filter
       inkscape:collect="always"
       id="filter5328">
      <feGaussianBlur
         inkscape:collect="always"
         stdDeviation="1.0266285"
         id="feGaussianBlur5330" />
    </filter>
    <inkscape:perspective
       id="perspective5340"
       inkscape:persp3d-origin="0.5 : 0.33333333 : 1"
       inkscape:vp_z="1 : 0.5 : 1"
       inkscape:vp_y="0 : 1000 : 0"
       inkscape:vp_x="0 : 0.5 : 1"
       sodipodi:type="inkscape:persp3d" />
    <inkscape:perspective
       id="perspective5362"
       inkscape:persp3d-origin="0.5 : 0.33333333 : 1"
       inkscape:vp_z="1 : 0.5 : 1"
       inkscape:vp_y="0 : 1000 : 0"
       inkscape:vp_x="0 : 0.5 : 1"
       sodipodi:type="inkscape:persp3d" />
    <inkscape:perspective
       id="perspective5390"
       inkscape:persp3d-origin="0.5 : 0.33333333 : 1"
       inkscape:vp_z="1 : 0.5 : 1"
       inkscape:vp_y="0 : 1000 : 0"
       inkscape:vp_x="0 : 0.5 : 1"
       sodipodi:type="inkscape:persp3d" />
    <filter
       inkscape:collect="always"
       id="filter5420">
      <feGaussianBlur
         inkscape:collect="always"
         stdDeviation="1.0579162"
         id="feGaussianBlur5422" />
    </filter>
    <inkscape:perspective
       id="perspective5432"
       inkscape:persp3d-origin="0.5 : 0.33333333 : 1"
       inkscape:vp_z="1 : 0.5 : 1"
       inkscape:vp_y="0 : 1000 : 0"
       inkscape:vp_x="0 : 0.5 : 1"
       sodipodi:type="inkscape:persp3d" />
    <inkscape:perspective
       id="perspective5454"
       inkscape:persp3d-origin="0.5 : 0.33333333 : 1"
       inkscape:vp_z="1 : 0.5 : 1"
       inkscape:vp_y="0 : 1000 : 0"
       inkscape:vp_x="0 : 0.5 : 1"
       sodipodi:type="inkscape:persp3d" />
    <filter
       inkscape:collect="always"
       id="filter5468">
      <feGaussianBlur
         inkscape:collect="always"
         stdDeviation="1.0674253"
         id="feGaussianBlur5470" />
    </filter>
    <inkscape:perspective
       id="perspective5480"
       inkscape:persp3d-origin="0.5 : 0.33333333 : 1"
       inkscape:vp_z="1 : 0.5 : 1"
       inkscape:vp_y="0 : 1000 : 0"
       inkscape:vp_x="0 : 0.5 : 1"
       sodipodi:type="inkscape:persp3d" />
  </defs>
  <metadata
     id="metadata7">
    <rdf:RDF>
      <cc:Work
         rdf:about="">
        <dc:format>image/svg+xml</dc:format>
        <dc:type
           rdf:resource="http://purl.org/dc/dcmitype/StillImage" />
        <dc:title />
      </cc:Work>
    </rdf:RDF>
  </metadata>
  <g
     inkscape:label="Layer 1"
     inkscape:groupmode="layer"
     id="layer1"
     transform="translate(-94.14286,-572.57648)">
    <path
       id="path3834-7-4"
       style="fill:#bccdd7;fill-opacity:1;fill-rule:evenodd;stroke:none;filter:url(#filter5420)"
       d="m 286.46558,778.69454 c -3.52468,11.78531 -3.41089,13.3919 0.25254,23.51391 2.01403,-9.64827 2.44441,-9.72734 -0.25254,-23.51391 z m 2.24709,-197.59152 c -12.89612,1.73442 -21.22556,7.19601 -23.62552,17.49711 1.35203,3.90404 3.37389,7.40311 6.30015,10.35543 -0.31846,3.10703 -0.60724,5.46288 -0.39376,7.14166 1.90514,2.49599 3.52764,5.50464 5.90638,7.14168 -0.54636,2.90167 -2.89353,4.57851 -5.51262,6.07042 -8.82842,2.52487 -17.41502,5.70755 -25.20057,11.06959 -7.46095,11.73354 -15.26452,23.31171 -19.68792,36.42254 l 10.63148,7.49876 c -5.29844,25.65207 -2.51974,48.55734 0.39376,71.41675 2.76567,3.20527 5.43242,6.50025 10.23772,7.85584 0.88792,-5.99084 -4.84354,-8.28537 -4.33135,-12.85501 1.4438,-4.72223 2.88757,-3.91005 4.33135,-3.57083 l 1.57504,6.78458 c 2.73612,-0.47793 2.98383,-4.11517 3.15007,-7.85584 l -7.48143,-11.0696 c -1.04413,-14.65833 2.10253,-29.02431 7.87519,-43.20712 -0.69923,12.73598 -2.02249,25.47196 -4.33135,38.20796 l 7.4814,0 c -0.89085,15.56733 -1.57107,30.94368 -0.39375,44.63547 3.79336,26.01348 6.15627,52.67557 11.81276,77.84425 1.34837,2.11001 3.05499,3.89512 3.9376,6.42749 -9.23219,12.41742 -15.98693,15.17108 -14.96284,17.49712 3.49228,4.07774 9.50749,5.67689 19.29419,3.57084 6.9275,-3.39734 8.16624,-9.08752 10.63147,-14.28336 2.75632,6.06819 5.51262,10.35351 8.26894,13.56919 5.24876,4.26826 18.73038,5.51226 22.838,-2.85667 -5.9784,-4.83118 -10.6886,-10.52488 -14.56908,-16.78294 1.63433,-1.15948 2.8217,-4.34564 3.9376,-7.85584 2.72544,-17.30969 4.16964,-29.57043 5.90638,-45.70672 1.18038,-7.01613 3.06117,-19.11369 4.7251,-29.63796 0.25968,-15.00005 0.95181,-29.60797 -0.78752,-46.42087 2.73168,0.56547 5.42284,1.27792 8.66269,0 -1.81593,-13.87999 -3.07657,-26.28081 -3.93758,-39.27922 3.2798,12.10882 8.67909,21.4718 8.66268,37.85088 -1.90914,6.87332 -3.79944,13.76711 -8.26892,17.85419 0.25199,3.28755 0.45905,6.63627 2.7563,7.14167 0.61707,-3.79648 1.878,-5.84134 3.54384,-6.78459 6.59508,4.29352 -3.80032,14.26649 -1.57503,16.78293 3.01886,-1.3987 5.96407,-2.64703 11.02524,-8.21292 1.0685,-11.0633 1.49579,-21.63988 1.96878,-33.56587 0.004,-12.3789 0.87241,-24.75781 -1.57503,-37.13671 0.92711,-1.25356 5.14401,-3.99883 10.23774,-7.14167 -5.16558,-11.66473 -11.63775,-23.32947 -18.90043,-34.99421 -9.56449,-8.77756 -25.37037,-8.29784 -31.10694,-19.28252 3.25398,-2.26277 3.7257,-6.04659 7.08767,-10.71252 1.20402,-8.74131 2.96253,-17.53558 -5.51262,-25.35293 -4.40141,1.83017 -5.59294,-2.36663 -11.02526,-6.07043 z"
       sodipodi:nodetypes="ccccccccccccccccccccccccccccccccccccccccccccccccccc" />
    <path
       id="path3834-1"
       style="fill:#bccdd7;fill-opacity:1;fill-rule:evenodd;stroke:none;filter:url(#filter5328)"
       d="m 167,761.46506 c -2.73882,20.1224 -4.00993,36.88405 0,46.25 5.49162,-14.19631 2.90426,-30.18794 0,-46.25 z m 0.89286,-181.96428 c -11.6969,1.7347 -19.25179,7.1972 -21.42857,17.5 1.2263,3.90469 3.06014,7.40435 5.71429,10.35714 -0.28885,3.10755 -0.55078,5.4638 -0.35715,7.14286 1.72799,2.4964 3.19961,5.50554 5.35715,7.14286 -0.49555,2.90214 -2.62447,4.57927 -5,6.07142 -8.00745,2.52528 -15.79559,5.7085 -22.85715,11.07143 -6.76716,11.73547 -13.84507,23.31556 -17.85714,36.42857 l 9.64286,7.5 c -4.80573,25.65631 -2.28543,48.56537 0.35714,71.42857 2.50849,3.2058 4.92725,6.50133 9.28571,7.85715 0.80536,-5.99184 -4.39313,-8.28674 -3.92857,-12.85715 1.30953,-4.72301 2.61905,-3.9107 3.92857,-3.57142 l 1.42858,6.78571 c 2.48168,-0.47802 2.70636,-4.11585 2.85714,-7.85714 L 128.25,733.42935 c -0.94705,-14.66076 1.90701,-29.02913 7.14286,-43.21429 -0.37396,12.7381 1.69548,25.47619 -3.92857,38.21429 l 6.78571,0 c -0.80801,15.56992 -1.42498,30.9488 -0.35714,44.64286 3.4406,26.01779 5.58379,52.68429 10.71429,77.85714 1.22297,2.11036 2.7709,3.89576 3.57143,6.42857 -8.37368,12.41947 -14.5003,15.17358 -13.57143,17.5 3.16752,4.07843 8.62338,5.67784 17.5,3.57143 6.28331,-3.39789 7.40686,-9.08902 9.64285,-14.28572 2.5,6.0692 5,10.35522 7.5,13.57143 7.7019,0.90759 16.98864,5.51318 20.71429,-2.85714 -5.42246,-4.83197 -9.69467,-10.52662 -13.21429,-16.78571 1.48235,-1.15968 2.5593,-4.34636 3.57143,-7.85715 2.47201,-17.31255 3.7819,-29.57532 5.35715,-45.71428 1.07061,-7.01729 2.77651,-19.11685 4.28571,-29.64286 0.23554,-15.00255 0.8633,-29.61289 -0.71429,-46.42857 2.47766,0.56556 4.91857,1.27813 7.85715,0 -5.23309,-11.41082 -3.76402,-25.61421 -3.57143,-39.28572 2.97481,12.11082 7.87202,21.47535 7.85714,37.85715 -1.73161,6.87445 -3.44614,13.76939 -7.5,17.85714 0.22856,3.28811 0.41636,6.63737 2.5,7.14286 0.55969,-3.79711 1.70336,-5.84231 3.21429,-6.78572 5.9818,4.29424 -3.44692,14.26885 -1.42857,16.78572 2.73814,-1.39893 5.40946,-2.64748 10,-8.21429 0.96914,-11.06513 1.3567,-21.64346 1.78571,-33.57143 0.004,-12.38095 0.79127,-24.7619 -1.42857,-37.14285 0.84089,-1.25378 4.66567,-3.9995 9.28572,-7.14286 -4.68523,-11.66666 -10.55555,-23.33333 -17.14286,-35 -8.67509,-8.77901 -23.01117,-8.29921 -28.21429,-19.28571 2.95139,-2.26315 3.37924,-6.0476 6.42857,-10.71429 1.09206,-8.74277 2.68705,-17.53849 -5,-25.35714 -3.99211,1.83048 -5.07284,-2.36701 -10,-6.07143 z"
       sodipodi:nodetypes="ccccccccccccccccccccccccccccccccccccccccccccccccccc" />
    <path
       id="path3834"
       transform="translate(94.14286,572.57648)"
       style="fill:#d98583;stroke:#000000;stroke-width:1px;stroke-linecap:butt;stroke-linejoin:miter;stroke-opacity:1;fill-opacity:1;fill-rule:evenodd;opacity:1"
       d="m 58.392857,195.10714 c -2.738821,20.1224 -4.009931,36.88405 0,46.25 5.491618,-14.19631 2.904259,-30.18794 0,-46.25 z M 59.285714,13.142857 c -11.696898,1.734697 -19.251792,7.197196 -21.428571,17.5 1.226301,3.904688 3.060144,7.404349 5.714286,10.357143 -0.288848,3.107544 -0.550774,5.463796 -0.357143,7.142857 1.727988,2.496405 3.199609,5.505545 5.357143,7.142857 -0.495549,2.902148 -2.624463,4.579272 -5,6.071428 C 35.563982,63.882421 27.775847,67.065633 20.714286,72.428571 13.947123,84.164037 6.8692203,95.744132 2.8571429,108.85714 l 9.6428571,7.5 c -4.8057272,25.65631 -2.28543,48.56537 0.357143,71.42857 2.508492,3.2058 4.927251,6.50133 9.285714,7.85715 0.805353,-5.99184 -4.393131,-8.28674 -3.928571,-12.85715 1.309524,-4.72301 2.619047,-3.9107 3.928571,-3.57142 L 23.571429,186 c 2.481684,-0.47802 2.706364,-4.11585 2.857142,-7.85714 l -6.785714,-11.07143 c -0.947054,-14.66076 1.907002,-29.02913 7.142857,-43.21429 -0.373959,12.7381 1.695475,25.47619 -3.928571,38.21429 l 6.785714,0 c -0.80801,15.56992 -1.424984,30.9488 -0.357143,44.64286 3.4406,26.01779 5.583793,52.68429 10.714286,77.85714 1.222968,2.11036 2.770905,3.89576 3.571429,6.42857 C 35.197752,303.41947 29.07113,306.17358 30,308.5 c 3.167527,4.07843 8.623388,5.67784 17.5,3.57143 6.283315,-3.39789 7.406866,-9.08902 9.642857,-14.28572 2.5,6.0692 5,10.35522 7.5,13.57143 4.760676,4.26898 16.988641,5.51318 20.714286,-2.85714 -5.422455,-4.83197 -9.694667,-10.52662 -13.214286,-16.78571 1.48235,-1.15968 2.5593,-4.34636 3.571429,-7.85715 2.47201,-17.31255 3.781901,-29.57532 5.357143,-45.71428 1.070614,-7.01729 2.77651,-19.11685 4.285714,-29.64286 0.23554,-15.00255 0.863301,-29.61289 -0.714286,-46.42857 2.477658,0.56556 4.918564,1.27813 7.857143,0 -5.23309,-11.41082 -3.764012,-25.61421 -3.571428,-39.28572 2.974807,12.11082 7.872023,21.47535 7.857142,37.85715 -1.731607,6.87445 -3.446142,13.76939 -7.5,17.85714 0.22856,3.28811 0.41636,6.63737 2.5,7.14286 0.559694,-3.79711 1.703358,-5.84231 3.214286,-6.78572 5.9818,4.29424 -3.446916,14.26885 -1.428571,16.78572 2.738148,-1.39893 5.409461,-2.64748 10.000001,-8.21429 0.96914,-11.06513 1.3567,-21.64346 1.78571,-33.57143 0.004,-12.38095 0.79127,-24.7619 -1.42857,-37.14285 0.84089,-1.25378 4.66567,-3.9995 9.28572,-7.14286 C 108.52906,97.904763 102.65874,86.238095 96.071429,74.571428 87.396347,65.79242 73.06026,66.27222 67.857143,55.285714 c 2.951388,-2.263144 3.379241,-6.0476 6.428571,-10.714286 1.092063,-8.742774 2.687045,-17.538486 -5,-25.357143 -3.992107,1.830487 -5.072841,-2.367004 -10,-6.071428 z"
       sodipodi:nodetypes="ccccccccccccccccccccccccccccccccccccccccccccccccccc" />
    <path
       transform="matrix(0.99720692,0,0,1.1826018,94.303682,543.68993)"
       style="fill:none;stroke:#ffffff;stroke-width:2;stroke-miterlimit:4;stroke-dasharray:4, 2;stroke-dashoffset:0;stroke-opacity:1;"
       d="m 87.88327,148.41493 c 0,4.88156 -13.567821,8.83884 -30.304577,8.83884 -16.736755,0 -30.304576,-3.95728 -30.304576,-8.83884 0,-4.88155 13.567821,-8.83883 30.304576,-8.83883 16.736756,0 30.304577,3.95728 30.304577,8.83883 z"
       id="path3840" />
    <path
       id="path3834-7"
       style="fill:#d98583;fill-opacity:1;fill-rule:evenodd;stroke:#000000;stroke-width:1.04992460999999990px;stroke-linecap:butt;stroke-linejoin:miter;stroke-opacity:1;opacity:1"
       d="m 272.9548,783.49277 c -3.52468,11.78531 -3.41089,13.3919 0.25254,23.51391 2.01403,-9.64827 2.44441,-9.72734 -0.25254,-23.51391 z m 2.24709,-197.59152 c -12.89612,1.73442 -21.22556,7.19601 -23.62552,17.49711 1.35203,3.90404 3.37389,7.40311 6.30015,10.35543 -0.31846,3.10703 -0.60724,5.46288 -0.39376,7.14166 1.90514,2.49599 3.52764,5.50464 5.90638,7.14168 -0.54636,2.90167 -2.89353,4.57851 -5.51262,6.07042 -8.82842,2.52487 -17.41502,5.70755 -25.20057,11.06959 -7.46095,11.73354 -15.26452,23.31171 -19.68792,36.42254 l 10.63148,7.49876 c -5.29844,25.65207 -2.51974,48.55734 0.39376,71.41675 2.76567,3.20527 5.43242,6.50025 10.23772,7.85584 0.88792,-5.99084 -4.84354,-8.28537 -4.33135,-12.85501 1.4438,-4.72223 2.88757,-3.91005 4.33135,-3.57083 l 1.57504,6.78458 c 2.73612,-0.47793 2.98383,-4.11517 3.15007,-7.85584 l -7.48143,-11.0696 c -1.04413,-14.65833 2.10253,-29.02431 7.87519,-43.20712 -0.69923,12.73598 -2.02249,25.47196 -4.33135,38.20796 l 7.4814,0 c -0.89085,15.56733 -1.57107,30.94368 -0.39375,44.63547 3.79336,26.01348 6.15627,52.67557 11.81276,77.84425 1.34837,2.11001 3.05499,3.89512 3.9376,6.42749 -9.23219,12.41742 -15.98693,15.17108 -14.96284,17.49712 3.49228,4.07774 9.50749,5.67689 19.29419,3.57084 6.9275,-3.39734 8.16624,-9.08752 10.63147,-14.28336 2.75632,6.06819 5.51262,10.35351 8.26894,13.56919 5.24876,4.26826 18.73038,5.51226 22.838,-2.85667 -5.9784,-4.83118 -10.6886,-10.52488 -14.56908,-16.78294 1.63433,-1.15948 2.8217,-4.34564 3.9376,-7.85584 2.72544,-17.30969 4.16964,-29.57043 5.90638,-45.70672 1.18038,-7.01613 3.06117,-19.11369 4.7251,-29.63796 0.25968,-15.00005 0.95181,-29.60797 -0.78752,-46.42087 2.73168,0.56547 5.42284,1.27792 8.66269,0 -1.81593,-13.87999 -3.07657,-26.28081 -3.93758,-39.27922 3.2798,12.10882 8.67909,21.4718 8.66268,37.85088 -1.90914,6.87332 -3.79944,13.76711 -8.26892,17.85419 0.25199,3.28755 0.45905,6.63627 2.7563,7.14167 0.61707,-3.79648 1.878,-5.84134 3.54384,-6.78459 6.59508,4.29352 -3.80032,14.26649 -1.57503,16.78293 3.01886,-1.3987 5.96407,-2.64703 11.02524,-8.21292 1.0685,-11.0633 1.49579,-21.63988 1.96878,-33.56587 0.004,-12.3789 0.87241,-24.75781 -1.57503,-37.13671 0.92711,-1.25356 5.14401,-3.99883 10.23774,-7.14167 -5.16558,-11.66473 -11.63775,-23.32947 -18.90043,-34.99421 -9.56449,-8.77756 -25.37037,-8.29784 -31.10694,-19.28252 3.25398,-2.26277 3.7257,-6.04659 7.08767,-10.71252 1.20402,-8.74131 2.96253,-17.53558 -5.51262,-25.35293 -4.40141,1.83017 -5.59294,-2.36663 -11.02526,-6.07043 z"
       sodipodi:nodetypes="ccccccccccccccccccccccccccccccccccccccccccccccccccc" />
    <path
       transform="matrix(1.1679794,0,0,1.100722,205.68913,558.32416)"
       style="fill:none;stroke:#ffffff;stroke-width:2;stroke-miterlimit:4;stroke-dasharray:4, 2;stroke-dashoffset:0;stroke-opacity:1;"
       d="m 87.88327,148.41493 c 0,4.88156 -13.567821,8.83884 -30.304577,8.83884 -16.736755,0 -30.304576,-3.95728 -30.304576,-8.83884 0,-4.88155 13.567821,-8.83883 30.304576,-8.83883 16.736756,0 30.304577,3.95728 30.304577,8.83883 z"
       id="path3840-9" />
    <path
       id="path3834-7-8-8"
       style="fill:#bccdd7;fill-opacity:1;fill-rule:evenodd;stroke:none;filter:url(#filter5468)"
       d="m 420.51161,578.21733 c -14.47936,1.73406 -23.8314,7.19451 -26.52601,17.49348 1.51802,3.90323 3.78811,7.40158 7.07362,10.35328 -0.35756,3.10639 -0.68179,5.46175 -0.4421,7.14019 2.13903,2.49547 3.96072,5.50349 6.6315,7.14019 -0.61343,2.90107 -4.67733,3.50614 -7.61797,4.99773 -9.91227,2.52435 -18.12448,6.7778 -26.86586,12.13873 -8.37693,11.73111 -10.70996,26.16402 -15.67642,39.27214 l 5.50812,4.64006 c -5.94892,25.64676 -2.82908,48.54728 0.44211,71.40195 3.10521,3.20461 6.09935,6.49891 11.4946,7.85422 0.99693,-5.9896 -5.43818,-8.28366 -4.86311,-12.85235 1.62106,-4.72125 3.24208,-3.90924 4.86311,-3.57009 l 1.7684,6.78317 c 3.07204,-0.47783 3.35016,-4.11432 3.53681,-7.85421 l -8.39992,-11.06731 c -1.17232,-14.65528 2.36065,-29.01829 8.84202,-43.19816 -2.094,11.42442 -4.69781,23.03966 -4.86311,38.20004 l 5.1856,0.35714 c -1.00022,15.56411 1.45034,30.58013 2.7722,44.26908 4.25907,26.00809 2.9835,52.66466 9.33444,77.82813 1.5139,2.10956 2.35861,4.25145 3.34958,6.78329 -10.36562,12.41485 -12.94964,14.8108 -11.79982,17.13635 3.92103,4.07691 10.67472,5.67572 21.66292,3.57011 7.77799,-3.39663 9.16882,-9.08564 11.9367,-14.28041 3.09471,6.06694 6.18939,10.35137 9.28411,13.56639 5.89314,4.26737 21.0299,5.51111 25.6418,-2.85609 -6.71235,-4.83017 -7.35797,-11.23698 -11.71485,-17.49375 1.83498,-1.15923 2.45383,-3.98758 3.70673,-7.49705 3.06004,-17.30611 4.3244,-27.7786 6.27436,-43.91155 1.32529,-7.01467 3.43699,-21.60972 5.30519,-32.13181 0.29157,-14.99694 1.42581,-26.38755 -0.52706,-43.19697 3.06705,0.56535 2.16003,-0.86521 5.79764,-2.14286 1.12968,-14.51082 -2.00221,-26.56578 -4.42099,-39.27108 3.68245,12.10631 9.74461,21.46735 9.72618,37.84304 -2.14351,6.87189 -4.26589,13.76426 -9.28408,17.85049 0.28292,3.28686 0.51541,6.6349 3.09469,7.14019 0.69282,-3.79569 2.10855,-5.84013 3.97891,-6.78318 7.40475,4.29262 -4.26688,14.26353 -1.7684,16.77945 3.38949,-1.39842 6.69627,-2.64649 12.37881,-8.21122 1.19968,-11.06101 1.67942,-21.6354 2.21048,-33.55891 0.004,-12.37634 0.97952,-24.75269 -1.76839,-37.12902 1.04093,-1.2533 1.13267,1.00199 6.85176,-2.14019 -5.79976,-11.66232 -8.42365,-28.32464 -16.57797,-39.98696 -9.98267,-9.683 -24.87561,-12.62749 -34.92592,-19.27853 3.65347,-2.2623 4.18311,-6.04533 7.95782,-10.71029 1.35184,-8.73951 3.32624,-17.53195 -6.1894,-25.34768 -4.94177,1.82979 -6.27958,-2.36614 -12.37883,-6.06917 z"
       sodipodi:nodetypes="cccccccccccccccccccccccccccccccccccccccccccccccc" />
    <path
       id="path3834-7-8"
       style="fill:#d98583;fill-opacity:1;fill-rule:evenodd;stroke:#000000;stroke-width:1.11239350000000000px;stroke-linecap:butt;stroke-linejoin:miter;stroke-opacity:1;opacity:1"
       d="m 403.90447,586.43163 c -14.47936,1.73406 -23.8314,7.19451 -26.52601,17.49348 1.51802,3.90323 3.78811,7.40158 7.07362,10.35328 -0.35756,3.10639 -0.68179,5.46175 -0.4421,7.14019 2.13903,2.49547 3.96072,5.50349 6.6315,7.14019 -0.61343,2.90107 -4.67733,3.50614 -7.61797,4.99773 -9.91227,2.52435 -18.12448,6.7778 -26.86586,12.13873 -8.37693,11.73111 -10.70996,26.16402 -15.67642,39.27214 l 5.50812,4.64006 c -5.94892,25.64676 -2.82908,48.54728 0.44211,71.40195 3.10521,3.20461 6.09935,6.49891 11.4946,7.85422 0.99693,-5.9896 -5.43818,-8.28366 -4.86311,-12.85235 1.62106,-4.72125 3.24208,-3.90924 4.86311,-3.57009 l 1.7684,6.78317 c 3.07204,-0.47783 3.35016,-4.11432 3.53681,-7.85421 l -8.39992,-11.06731 c -1.17232,-14.65528 2.36065,-29.01829 8.84202,-43.19816 -2.094,11.42442 -4.69781,23.03966 -4.86311,38.20004 l 5.1856,0.35714 c -1.00022,15.56411 1.45034,30.58013 2.7722,44.26908 4.25907,26.00809 2.9835,52.66466 9.33444,77.82813 1.5139,2.10956 2.35861,4.25145 3.34958,6.78329 -10.36562,12.41485 -12.94964,14.8108 -11.79982,17.13635 3.92103,4.07691 10.67472,5.67572 21.66292,3.57011 7.77799,-3.39663 9.16882,-9.08564 11.9367,-14.28041 3.09471,6.06694 6.18939,10.35137 9.28411,13.56639 5.89314,4.26737 21.0299,5.51111 25.6418,-2.85609 -6.71235,-4.83017 -7.35797,-11.23698 -11.71485,-17.49375 1.83498,-1.15923 2.45383,-3.98758 3.70673,-7.49705 3.06004,-17.30611 4.3244,-27.7786 6.27436,-43.91155 1.32529,-7.01467 3.43699,-21.60972 5.30519,-32.13181 0.29157,-14.99694 1.42581,-26.38755 -0.52706,-43.19697 3.06705,0.56535 2.16003,-0.86521 5.79764,-2.14286 1.12968,-14.51082 -2.00221,-26.56578 -4.42099,-39.27108 3.68245,12.10631 9.74461,21.46735 9.72618,37.84304 -2.14351,6.87189 -4.26589,13.76426 -9.28408,17.85049 0.28292,3.28686 0.51541,6.6349 3.09469,7.14019 0.69282,-3.79569 2.10855,-5.84013 3.97891,-6.78318 7.40475,4.29262 -4.26688,14.26353 -1.7684,16.77945 3.38949,-1.39842 6.69627,-2.64649 12.37881,-8.21122 1.19968,-11.06101 1.67942,-21.6354 2.21048,-33.55891 0.004,-12.37634 0.97952,-24.75269 -1.76839,-37.12902 1.04093,-1.2533 1.13267,1.00199 6.85176,-2.14019 -5.79976,-11.66232 -8.42365,-28.32464 -16.57797,-39.98696 -9.98267,-9.683 -24.87561,-12.62749 -34.92592,-19.27853 3.65347,-2.2623 4.18311,-6.04533 7.95782,-10.71029 1.35184,-8.73951 3.32624,-17.53195 -6.1894,-25.34768 -4.94177,1.82979 -6.27958,-2.36614 -12.37883,-6.06917 z"
       sodipodi:nodetypes="cccccccccccccccccccccccccccccccccccccccccccccccc" />
    <path
       transform="matrix(1.375595,0,0,1.0005774,322.08075,577.04013)"
       style="fill:none;stroke:#ffffff;stroke-width:2;stroke-miterlimit:4;stroke-dasharray:4, 2;stroke-dashoffset:0;stroke-opacity:1;"
       d="m 87.88327,148.41493 c 0,4.88156 -13.567821,8.83884 -30.304577,8.83884 -16.736755,0 -30.304576,-3.95728 -30.304576,-8.83884 0,-4.88155 13.567821,-8.83883 30.304576,-8.83883 16.736756,0 30.304577,3.95728 30.304577,8.83883 z"
       id="path3840-9-5" />
  </g>
</svg>
