<?xml version="1.0" encoding="UTF-8" standalone="no"?>
<svg
   xmlns:dc="http://purl.org/dc/elements/1.1/"
   xmlns:cc="http://creativecommons.org/ns#"
   xmlns:rdf="http://www.w3.org/1999/02/22-rdf-syntax-ns#"
   xmlns:svg="http://www.w3.org/2000/svg"
   xmlns="http://www.w3.org/2000/svg"
   xmlns:xlink="http://www.w3.org/1999/xlink"
   id="svg52"
   version="1.1"
   width="320"
   height="154"
   viewBox="0 0 320 154">
  <metadata
     id="metadata2">
    <rdf:RDF>
      <cc:Work
         rdf:about="">
        <dc:format>image/svg+xml</dc:format>
        <dc:type
           rdf:resource="http://purl.org/dc/dcmitype/StillImage" />
        <dc:title></dc:title>
      </cc:Work>
    </rdf:RDF>
  </metadata>
  <defs
     id="defs4" />
  <path
     id="path6"
     d="m 306.504,134.148 c 0,9.942 -8.06,18 -18,18 h -269 c -9.94,0 -18,-8.058 -18,-18 v -114 c 0,-9.941 8.06,-18 18,-18 h 269 c 9.94,0 18,8.059 18,18 z"
     style="fill:#ffffff;stroke:#632e88;stroke-width:3" />
  <path
     id="path8"
     d="m 30.0596,118.50604 c -0.817,-2.369 -2.328,-3.309 -4.82,-3.309 -1.756,0 -3.88,0.45 -3.88,2.615 0,2.042 2.45,2.532 4.044,2.819 2.287,0.489 5.351,1.061 7.311,2.369 2.288,1.511 3.677,3.839 3.677,6.617 0,2.737 -1.308,5.351 -3.473,7.026 -2.246,1.755 -5.31,2.287 -8.128,2.287 -5.27,0 -10.049,-2.287 -11.315,-7.761 l 6.045,-1.389 c 0.817,2.941 2.941,3.962 5.842,3.962 1.879,0 4.37,-0.694 4.37,-3.022 0,-2.329 -3.186,-2.779 -4.902,-3.146 -4.983,-1.021 -9.884,-2.492 -9.884,-8.619 0,-2.613 1.021,-4.901 3.022,-6.576 2.043,-1.716 4.453,-2.287 7.026,-2.287 4.902,0 8.905,1.715 10.621,6.576 z"
     style="fill:#632e88" />
  <path
     id="path10"
     d="m 52.387716,127.61496 -2.982,-9.843 -2.982,9.843 z m 10.293,10.907 h -7.066 l -1.716,-5.76 h -9.068 l -1.756,5.76 h -5.76 l 8.987,-28.022 h 7.597 z"
     style="fill:#632e88" />
  <path
     id="path12"
     d="m 71.893119,115.93305 v 6.372 h 10.661001 v 5.269 h -10.661001 v 10.948 h -6.536 v -28.022 h 19.934001 v 5.433 z"
     style="fill:#632e88" />
  <path
     id="path14"
     d="m 94.07472,115.93305 v 5.677 h 10.62 v 5.27 h -10.62 v 6.209 h 13.479 v 5.433 h -20.015 v -28.022 h 20.015 v 5.433 z"
     style="fill:#632e88" />
  <path
     id="path16"
     d="m 140.71696,116.05494 h -7.026 v 22.467 h -6.536 v -22.467 h -7.107 v -5.555 h 20.669 z"
     style="fill:#632e88" />
  <path
     id="path18"
     d="m 149.88804,118.62896 c -0.654,1.674 -0.899,4.084 -0.899,5.841 0,3.512 0.531,9.109 5.147,9.109 2.247,0 3.472,-1.102 4.208,-3.186 0.653,-1.715 0.857,-4.044 0.857,-5.882 0,-2.042 -0.204,-4.452 -1.021,-6.331 -0.817,-1.879 -2.002,-2.738 -4.044,-2.738 -2.246,0 -3.472,1.144 -4.248,3.187 m -4.82,15.89 c -2.043,-2.901 -2.941,-6.537 -2.941,-10.049 0,-7.435 3.717,-14.378 12.009,-14.378 3.717,0 6.659,1.224 8.905,4.289 2.002,2.736 3.023,6.699 3.023,10.089 0,3.186 -0.859,7.067 -2.656,9.721 -2.164,3.187 -5.472,4.739 -9.272,4.739 -3.799,0 -6.862,-1.307 -9.068,-4.411"
     style="fill:#632e88" />
  <path
     id="path20"
     d="m 223.01208,132.967 v 5.555 h -17.81 v -28.022 h 6.536 v 22.467 z"
     style="fill:#632e88" />
  <path
     id="path22"
     d="m 283.56299,123.03996 c 1.552,0 2.859,0 4.003,-1.225 0.612,-0.695 0.898,-1.593 0.898,-2.492 0,-1.102 -0.449,-2.247 -1.348,-2.941 -1.021,-0.776 -2.369,-0.776 -3.594,-0.776 h -3.635 v 7.434 z m -3.676,15.482 h -6.536 v -28.022 h 10.538 c 2.737,0 5.228,0 7.556,1.593 2.37,1.675 3.637,4.085 3.637,6.985 0,2.654 -0.939,5.352 -3.023,7.108 -2.41,2.002 -4.984,1.961 -7.965,1.961 h -4.207 z"
     style="fill:#632e88" />
  <path
     id="path24"
     d="m 268.44489,72.07589 c -1.712,-0.33 -3.7,0.102 -5.429,-0.193 -1.428,-0.242 -2.535,-1.011 -3.901,-0.951 -0.607,0.029 -1.132,0.55 -1.693,0.567 0,0 -0.986,-0.702 -1.365,-1.45 0.265,-2.587 -6.868,-10.059 -8.377,-11.453 -0.711,-0.656 -3.057,-2.898 -3.761,-3.591 -2.755,-2.727 -8.868,-9.315 -13.505,-9.401 -3.476,-0.065 -7.314,1.999 -10.77,2.221 -3.056,0.195 -1.73583,-0.15529 0.34217,-0.68329 -7.693,-17.01 -20.002,-12.48 -22.713,-8.09 2.653,1.428 -2.02917,0.19829 -2.80017,-0.28471 -0.725,-0.453 -4.193,-3.329 -10.182,-5.138 -7.145,-2.147 -13.039,-3.673 -25.948,-3.355 l -22.40495,-1.59254 m 0,0 c 0.39,-2.819 -1.963,-0.229 -2.209,-0.086 -2.661,1.718 -5.515,3.967 -7.971,5.604 l -6.76605,2.98954 c -6.662,2.219 -18.097,6.011 -18.5,7.438 -0.1,0.35 2.129,6.817 1.625,13.375 -0.262,3.65 -1.812,7.5 -4.375,10.562 l 2.56306,-0.31257 c -2.713,1.939 -6.5,3.438 -10.188,6.876 l -6.437,2.125 c -1.508,1.823 -8.215,9.754 -7.938,11.374 0.39,0.263 2.098,1.382 2.5,1.626 8.172,4.585 18.671,5.734 21.188,5.25 4.108,-0.794 6.394,-1.839 9.687,-3.688 1.038,-0.586 10.117,-4.975 13.438,-10.5 l -1.88506,5.03057 c 2.814,0.952 21.766,-1.636 26.766,-1.596 5,0.039 11.564,1.005 17.691,1.171 10.225,-0.206 11.836,-0.647 17.13,-1.287 l 3.051,-0.953 c 1.173,1.076 0.905,2.542 10.66,2.096 10.62,-0.719 27.64,-7.176 29.573,-8.718 l 0.172,1.197 c 6.158,3.062 26.246,9.329 28.547,6.239 l 0.955,1.851 c 1.747,1.782 5.245,1.046 8.309,1.142 1.423,0.044 2.964,0.461 4.242,0.38 2.881,-0.191 4.935,-1.193 6.327,-2.67 0.591,-0.629 3.19,-6.117 0.971,-8.936 -1.015,-1.527 -3.516,-3.593 -6.619,-4.185"
     style="fill:#ffd24f" />
  <path
     id="path26"
     d="m 141.70395,34.39135 c 1.177,-1.614 -1.012,-2.866 -1.19,-3.805 -0.213,-1.194 -0.145,-2.305 1.19,-2.474 1.798,-0.229 3.372,3.594 3.906,4.945 -0.747,-0.131 -1.159,0.102 -1.362,0.571 2.825,3.2 7.029,-0.862 2.854,-5.387 2.15,0.19 2.332,4.379 2.276,5.62 5.128,0.632 1.96,-5.129 1.757,-5.762 1.066,0.663 2.138,3.197 1.617,4.929 4.288,-0.108 1.084,-4.956 1.451,-5.976 1.949,0.934 0.454,5.934 2.432,4.105 1.053,-0.749 0.084,-3.553 -0.192,-4.479 -0.574,-1.944 -2.486,-3.112 -4.726,-3.704 -3.818,-1.01 -11.123,0.101 -12.9,2.089 -2.553,2.869 -1.428,9.698 2.887,9.328"
     style="fill:#d39d60" />
  <path
     id="path28"
     d="m 78.423819,82.53995 c 0.463,-0.534 0.735,-1.368 1.184,-1.903 1.042,-1.241 3.25,-2.998 3.73,-4.18 l 1.029504,-0.1428 c 13.527,-4.201 17.505997,-16.499 17.562997,-18.875 0.16,-6.519 -2.560997,-15.383 -6.200997,-20.386 -0.515,-0.697 -4.207,-5.728 -10.012,-6.466 -1.113,-0.104 -3.036,0.83 -4.074997,-0.573 0.184,-0.894 1.665997,-0.01 1.778997,-1.237 0.143,-1.561 -3.556,-4.401 -5.222,-5.037 -1.67,-0.635 -6.234,-2.875 -7.072,0.946 1.029,1.571 3.756,1.243 4.408,3.235 -2.897,-0.801 -5.49,-2.415 -8.143,-2.857 -2.869,-0.474 -5.967,-0.358 -8.652,-0.187 -3.471,0.22 -6.738,0.646 -9.502,1.903 -5.67,2.575 -9.522,7.994 -12.724,13.319 -1.88,3.122 -3.073,7.357 -3.567,11.041 -1.078,8.148 2.34,15.507 5.432,19.791 1.455,2.012 2.461,2.335 3.902,4.189 2.672,3.43 12.98,7.276 20.94,7.317 l 1.339493,0.3788 c 0.334,0.5 0.699,0.971 1.049,1.456 0.64,0.55 1.405,0.941 2.169,1.28 l 2.321,0.94 c 0.772,0.32 1.582,0.524 2.39,0.762 l 0.838,0.208 0.399,0.1 0.529,0.143 c 1.36,-0.197 1.778,-2.682 2.64,-3.836 0.374,-0.498 1.031,-0.762 1.528,-1.329"
     style="fill:#d39d60" />
  <path
     id="path30"
     d="m 274.093,85.19705 c -1.392,1.477 -3.446,2.479 -6.327,2.67 -1.278,0.081 -2.819,-0.336 -4.242,-0.38 -3.064,-0.097 -6.562,0.64 -8.309,-1.142 -0.149,-1.328 5.953,-6.205 3.73,-9.895 -0.523,3.258 -2.576,6.222 -4.58,7.608 -2.302,3.09 -21.869,-2.744 -28.027,-5.806 0.105,-1.432 9.119,-4.093 10.436,-16.247 -0.207,-0.804 -0.545,-4.089 -1.221,-4.147 0.336,3.581 -1.52,8.404 -2.598,10.115 -2.123,3.358 -3.863,4.901 -6.787,7.226 -1.934,1.543 -29.004,13.825 -40.86,8.48 -6.378,-7.081 0.126,-13.655 -2.542,-14.081 -4.633,5.845 -0.467,13.271 -0.509,15.035 -5.294,0.64 -6.905,1.081 -17.13,1.287 -6.127,-0.166 -12.691,-1.132 -17.691,-1.171 -5,-0.04 -23.952,2.548 -26.766,1.596 -0.088,-0.732 0.647,-1.234 1.015,-1.712 1.049,-1.366 1.696,-2.467 2.547,-4.375 0.681,-1.541 1.178,-3.01 1.016,-5.331 -0.084,-1.206 -0.486,-2.969 -0.849,-4.377 -0.758,-2.95 -1.315,-5.706 -3.225,-7.234 -1.818,-1.454 -5.286,-2.026 -8.143,-1.899 -5.003,0.211 -11.06,4.756 -14.605095,6.676775 C 101.20781,65.3556 102.30381,61.6466 102.56691,57.996325 103.035,51.53805 100.889,45.27605 100.828,44.93605 c -0.256,-1.464 10.535,-4.778 17.201,-6.996 5.876,-1.764 15.918,-3.229 18.599,-3.507 0.364,-0.036 0.601,-0.052 0.665,-0.042 1.315,0.208 2.121,2.144 4.07,1.524 1.268,-0.544 1.852,-1.142 2.045,-1.749 0.11,0.647 0.506,1.197 1.012,1.368 1.454,0.511 2.893,-0.435 4.242,-0.57 0.785,-0.085 1.53,0.135 2.205,0 0.616,-0.127 0.977,-0.604 1.528,-0.764 0.66,-0.189 1.701,-0.223 2.341,-0.533 1.582,-0.774 1.385,-0.986 2.735,-1.408 0.153,-0.336 1.588,-1.589 0.872,-1.985 12.909,-0.319 18.803,1.208 25.948,3.355 5.989,1.809 9.457,4.685 10.182,5.138 0.771,0.483 10.902,8.786 10.011,10.849 -0.21,2.78 -7.062,2.116 -7.468,5.139 0.995,0.977 1.942,-1.179 9.696,-2.556 1.304,-0.379 10.218,-2.862 13.187,-3.604 3.762,-0.94 7.209,-2.116 10.685,-2.051 4.638,0.086 9.897,5.734 12.65,8.461 0.704,0.693 1.514,1.653 2.223,2.309 1.51,1.393 10.024,10.649 9.758,13.236 0.379,0.748 2.207,0.949 2.207,0.949 0.561,-0.017 1.086,-0.538 1.693,-0.568 1.366,-0.059 2.473,0.709 3.901,0.952 1.729,0.295 3.717,-0.138 5.429,0.193 3.103,0.592 5.604,2.658 6.619,4.185 2.219,2.819 -0.38,8.307 -0.971,8.936 m -165.299,6.094 c -3.294,1.849 -5.226,3.013 -9.333894,3.80665 -2.516893,0.48565 -13.043893,-0.69735 -21.216,-5.2835 C 77.549,89.42705 76.865,89.02305 76.215,88.58105 c -0.279,-1.624 6.467,-8.972 7.977,-10.794 4.753,-2.496 15.417,0.379 15.947,0.374 1.815,-0.008 3.868,0.602 5.427,1.14 1.27,0.441 2.508,1.597 3.733,0.957 4.859,-3.43 -17.251,-4.188 -18.515,-5.184 3.31,-2.889 4.929,-3.061 7.642,-5 3.437,-2.452 10.057,-6.244 14.426,-6.776 1.445,-0.176 4.431,0.333 5.956,0.654 3.597,2.122 5.995,10.752 3.727,16.114 -3.727,6.833 -12.703,10.639 -13.741,11.225 m 163.163,-19.734 c -2.072,-0.814 -5.008,-1.113 -7.242,-1.388 -2.314,-0.283 -4.666,-1.776 -7.682,-0.737 -1.49,-2.203 -2.002,-3.315 -3.968,-5.538 -0.799,-0.902 -3.403,-4.469 -4.274,-5.298 -1.616,-1.55 -2.564,-2.821 -4.445,-4.873 -2.293,-2.5 -7.18,-7.095 -11.197,-8.291 -2.825,-0.841 -4.445,-1.197 -12.051,0.854 -1.664,-1.91 -8.205,-19.316 -25.778,-9.042 -2.272,-0.27 -7.304,-8.639 -36.509,-8.465 -1.119,-1.944 -1.117,-4.467 -4.291,-6.297 -2.167,-1.228 -4.747,-1.394 -7.897,-1.083 -1.3,0.129 -3.349,0.129 -4.808,0.629 -1.179,0.402 -2.255,1.146 -3.139,1.56 -0.972,0.714 -1.268,1.136 -2.147,1.819 -1.839,1.081 -11.627,7.976 -13.552,9.147 -6.871,1.812 -20.108,7.307 -22.774,8.575 -3.221,-8.963 -8.871,-13.231 -15.163,-13.758 0.121,-1.252 -0.067,-2.065 -2.04,-3.542 -1.971,-1.475 -5.523,-4.658 -8.482,-4.383 -2.955,0.28 -3.691,0.963 -4.731,2.768 -1.933,-0.405 -11.939,-1.61 -16.307,-0.673 -5.775,0.63 -17.105,7.833 -20.533,19.604 -0.464,1.559 -1.184,4.257 -1.353,4.948 -0.324,1.341 -0.447,3.749 -0.51,5.141 -0.191,4.295 0.548,6.886 1.356,9.701 0.416,1.448 0.759,2.784 1.359,4.002 5.146,9.47 10.522,11.931 11.876,12.75 4.942,2.991 10.232,3.447 18.591,4.46 1.239,2.779 8.685,4.388 9.479,4.125 l 0.519,0.029 0.015,0.002 c -0.304,1.915 2.614,2.737 3.901,3.522 4.181,2.767 15.408,5.778 20.246,5.103 4.842,-0.669 13.142,-4.627 14.264,-5.254 0.509,-0.281 4.054,-2.742 4.585,-2.856 1.928,-0.399 12.518,-0.201 15.606,-0.573 3.135,-0.369 11.855,-1.098 15.553,-1.167 8.672,0.865 23.131,1.037 27.033,0.789 3.908,-0.246 7.788,-1.549 10.353,-1.522 13.738,4.389 24.593,-2.707 37.801,-6.58 12.177,6.096 27.631,7.645 28.703,7.722 1.352,0.093 2.641,1.27 4.075,1.521 1.507,0.264 3.619,0.136 5.601,0.189 1.951,0.051 3.895,0.378 5.6,0.193 1.22,-0.133 2.645,-0.673 3.9,-1.145 1.375,-0.509 2.799,-0.845 3.564,-1.519 1.424,-1.255 3.192,-5.603 2.884,-8.186 -0.21,-1.726 -2.477,-6.095 -5.991,-6.983 M 62.752412,24.88438 c -1.474,0 -2.913,0.08 -4.002,0.149 -3.041,0.192 -6.542,0.567 -9.448,1.889 -5.675,2.577 -9.582,8.148 -12.654,13.258 -1.695,2.816 -2.988,6.819 -3.547,10.981 -1.23,9.299 3.367,16.861 5.403,19.68 0.761,1.053 1.386,1.626 2.046,2.232 0.575,0.526 1.168,1.071 1.852,1.952 2.477,3.18 12.301,7.089 20.428,7.253 -0.071,-0.071 -0.141,-0.145 -0.211,-0.223 -0.225,-0.295 -0.459,-0.6 -0.558,-1.065 -0.151,-0.476 0.098,-1.142 0.344,-1.403 0.292,-0.397 0.671,-0.661 1.087,-0.749 0.017,-0.003 0.035,-0.005 0.051,-0.007 -0.477,-0.689 -0.633,-1.558 -0.415,-2.384 0.177,-0.692 0.814,-1.301 1.48,-1.415 0.116,-0.023 0.226,-0.029 0.322,-0.031 0.048,-0.051 0.101,-0.101 0.152,-0.151 -0.101,-0.21 -0.168,-0.395 -0.209,-0.575 -0.176,-0.703 -0.104,-1.459 0.203,-2.126 0.361,-0.771 0.992,-1.31 1.73,-1.479 0.365,-0.1 0.798,-0.055 1.188,0.131 -0.004,-0.052 -0.006,-0.104 -0.008,-0.156 -0.319,-0.291 -0.549,-0.605 -0.703,-0.959 -0.412,-1 -0.102,-2.21 0.754,-2.946 l 0.271,-0.212 0.342,0.066 c 0.487,0.098 1.338,-0.182 1.891,-0.577 l 0.041,-0.029 c 0.138,-0.102 0.214,-0.158 0.359,-0.311 0.184,-0.198 0.536,-0.448 0.826,-0.521 0.338,-0.11 0.701,-0.162 1.131,-0.162 0.139,0 0.274,0.005 0.41,0.012 0.904,0.07 1.789,0.282 2.713,0.646 3.69,0.364 6.901,6.475 8.49,10.091 0.022,0.048 0.039,0.091 0.055,0.126 13.297,-4.205 16.378998,-16.724 16.435998,-19.024 0.169,-6.996 -2.048998,-15.097 -5.398998,-19.7 -1.268,-1.715 -4.756,-5.749 -9.906,-6.403 -0.284,-0.027 -0.691,0.028 -1.104,0.091 -0.394,0.059 -0.802,0.12 -1.211,0.12 -0.845,0 -1.438,-0.269 -1.865,-0.846 l -0.041,-0.056 0.014,-0.068 c 0.107,-0.522 0.576,-0.569 0.953,-0.607 0.479,-0.047 0.775,-0.103 0.822,-0.613 0.129,-1.406 -3.429,-4.231 -5.122,-4.876 -0.146,-0.057 -0.315,-0.125 -0.503,-0.2 -1.008,-0.407 -2.531,-1.022 -3.851,-1.022 -1.364,0 -2.18,0.652 -2.495,1.991 0.44,0.628 1.183,0.925 1.967,1.238 1.004,0.4 2.041,0.815 2.422,1.98 l 0.091,0.275 -0.28,-0.077 c -1.283,-0.355 -2.51,-0.869 -3.696,-1.367 -1.524,-0.639 -2.963,-1.243 -4.431,-1.487 -1.36,-0.225 -2.869,-0.334 -4.615,-0.334 m 1.8668,57.34995 c 0.221,0.015 0.416,0.031 0.609,0.048 0.631,0.054 1.219,0.105 1.756,0.067 0.34,-0.02 0.557,-0.119 0.59,-0.156 0.053,-0.062 0.14,-0.254 0.24,-0.477 l 0.096,-0.211 c -0.035,-0.144 0.029,-0.3 0.166,-0.375 0.08,-0.043 0.17,-0.052 0.256,-0.027 l 0.101,0.031 c 0.394,0.123 0.786,0.147 0.962,0.061 0.128,-0.067 0.218,-0.176 0.257,-0.502 0.024,-0.253 -0.022,-0.578 -0.138,-0.964 l -0.025,-0.093 c -0.089,-0.333 -0.181,-0.675 -0.224,-1.133 -0.104,-0.118 -0.119,-0.297 -0.026,-0.432 0.093,-0.124 0.249,-0.173 0.387,-0.129 l 0.124,0.041 c 0.406,0.13 0.773,0.139 0.965,0.025 0.212,-0.111 0.389,-0.327 0.521,-0.628 0.14,-0.294 0.178,-0.64 0.197,-0.97 l 0.007,-0.124 c 0.019,-0.294 0.036,-0.573 -0.014,-0.981 -0.043,-0.045 -0.077,-0.111 -0.086,-0.183 -0.014,-0.093 0.009,-0.185 0.065,-0.26 0.066,-0.09 0.169,-0.142 0.282,-0.142 l 0.149,0.021 c 0.019,0.003 0.044,0.004 0.068,0.004 0.285,0 0.639,-0.233 0.945,-0.624 0.29,-0.387 0.465,-0.838 0.493,-1.268 0.048,-0.551 -0.218,-1.2 -0.789,-1.932 l -0.079,-0.102 c -0.021,-0.028 -0.043,-0.055 -0.064,-0.083 -0.219,0.2 -0.485,0.42 -0.805,0.586 -0.372,0.209 -0.8,0.317 -1.269,0.317 -0.301,0 -0.613,-0.047 -0.906,-0.135 l -0.1,-0.033 c -0.126,-0.052 -0.25,-0.12 -0.373,-0.187 l -0.057,-0.032 -0.048,-0.024 v 0.006 l 0.026,0.201 c 0.008,0.082 0.013,0.164 0.031,0.244 0.078,0.159 0.025,0.35 -0.126,0.445 -0.105,0.065 -0.243,0.065 -0.352,0.004 l -0.096,-0.051 c -0.038,-0.024 -0.067,-0.036 -0.096,-0.049 l -0.045,-0.019 c -0.355,-0.165 -0.701,-0.18 -0.982,-0.046 -0.305,0.148 -0.582,0.452 -0.763,0.834 -0.192,0.39 -0.272,0.843 -0.244,1.388 0.017,0.298 0.077,0.627 0.179,0.975 l 0.027,0.106 c 0.023,0.092 0.048,0.184 0.08,0.279 0.111,0.121 0.121,0.303 0.019,0.434 -0.06,0.075 -0.15,0.119 -0.25,0.124 l -0.135,0.003 c -0.034,0 -0.064,0.004 -0.092,0.007 -0.038,0.004 -0.077,0.008 -0.118,0.008 -0.426,0.024 -0.731,0.082 -0.92,0.175 -0.197,0.099 -0.32,0.242 -0.424,0.495 l -0.004,0.021 c -0.031,0.121 -0.064,0.244 -0.092,0.369 -0.074,0.549 0.045,1.217 0.338,1.867 l 0.004,0.01 c 0.105,0.083 0.144,0.231 0.086,0.356 l -0.03,0.05 -0.089,0.109 c -0.106,0.13 -0.237,0.195 -0.367,0.24 l -0.128,0.032 -0.14,0.045 -0.044,0.015 c -0.098,0.032 -0.169,0.057 -0.197,0.083 -0.071,0.055 -0.131,0.134 -0.197,0.224 -0.046,0.067 -0.082,0.119 -0.122,0.184 -0.112,0.185 -0.112,0.195 -0.11,0.292 v 0.052 c 0.016,0.083 0.088,0.294 0.235,0.533 0.08,0.143 0.174,0.287 0.269,0.43 0.13,0.201 0.266,0.403 0.407,0.606 0.064,-0.048 0.144,-0.075 0.228,-0.075 m 0.407202,0.9765 c 0.111,0.156 0.226,0.31 0.337,0.461 0.125,0.17 0.25,0.339 0.372,0.51 0.637,0.539 1.424,0.925 2.107,1.228 l 2.317,0.938 c 0.597,0.248 1.234,0.429 1.849,0.605 0.176,0.05 0.351,0.1 0.526,0.152 l 1.73,0.441 c 0.787,-0.14 1.25,-1.194 1.699,-2.216 0.256,-0.586 0.501,-1.14 0.809,-1.554 0.205,-0.274 0.481,-0.474 0.772,-0.686 0.261,-0.191 0.533,-0.389 0.764,-0.652 0.224,-0.258 0.409,-0.606 0.587,-0.943 0.18,-0.337 0.363,-0.683 0.594,-0.958 0.379,-0.451 0.899,-0.959 1.449,-1.496 0.941,-0.918 1.912,-1.867 2.234,-2.588 -0.011,-0.03 -0.023,-0.058 -0.034,-0.087 -0.022,-0.057 -0.045,-0.114 -0.065,-0.176 -0.616,-1.669 -1.42,-3.256 -2.385,-4.713 -0.736,-1.109 -1.605,-2.141 -2.584,-3.069 -0.065,-0.061 -0.127,-0.127 -0.187,-0.192 -0.073,-0.078 -0.145,-0.156 -0.227,-0.226 -0.562,-0.48 -1.246,-1.006 -2.049,-1.258 -0.808,-0.279 -1.633,-0.435 -2.386,-0.453 h -0.112 c -0.373,0 -0.701,0.048 -0.922,0.136 -0.134,0.052 -0.154,0.071 -0.259,0.177 -0.144,0.179 -0.409,0.42 -0.59,0.555 -0.398,0.307 -0.85,0.553 -1.34,0.732 -0.412,0.132 -0.784,0.24 -1.246,0.24 h -0.006 c -0.266,0.258 -0.484,0.708 -0.377,1.148 l 0.005,0.004 0.011,0.042 c 0.032,0.132 0.093,0.269 0.187,0.418 0.059,0.096 0.133,0.192 0.223,0.287 0.174,0.194 0.406,0.382 0.693,0.563 0.027,0.016 0.057,0.037 0.086,0.058 0.012,0.008 0.023,0.016 0.035,0.025 h 0.045 c 0.512,0 0.924,-0.139 1.193,-0.402 0.149,-0.139 0.288,-0.31 0.463,-0.576 0.022,-0.035 0.047,-0.071 0.073,-0.108 0.071,-0.106 0.154,-0.226 0.257,-0.357 0.03,-0.039 0.071,-0.079 0.112,-0.118 l 0.088,-0.087 c 0.038,-0.042 0.074,-0.082 0.125,-0.126 0.044,-0.04 0.072,-0.066 0.113,-0.098 l 0.822,-0.474 0.379,0.781 c 0.209,0.426 0.483,0.841 0.791,1.199 0.508,0.585 1.355,1.288 2.505,1.316 l 0.14,0.004 0.056,0.821 -0.138,0.023 c -0.672,0.104 -1.418,0.007 -2.123,-0.274 0.05,0.256 0.066,0.505 0.045,0.746 -0.045,0.731 -0.36,1.427 -0.887,1.957 -0.168,0.165 -0.49,0.438 -0.908,0.587 0.166,0.25 0.277,0.536 0.317,0.826 0.079,0.598 -0.06,1.238 -0.398,1.849 -0.187,0.321 -0.72,1.07 -1.657,1.18 -0.014,0.002 -0.03,0.004 -0.048,0.006 0.19,0.549 0.227,1.089 0.116,1.617 -0.106,0.652 -0.675,1.381 -1.446,1.455 -0.246,0.021 -0.455,-0.004 -0.667,-0.07 -0.016,0.225 -0.096,0.498 -0.317,0.772 -0.516,0.542 -1.098,0.611 -1.547,0.611 l -0.141,-0.003 c -0.308,-0.014 -0.617,-0.066 -1.003,-0.165 -0.325,-0.084 -0.648,-0.198 -0.977,-0.344 M 144.43393,33.60175 c 0.607,0.656 1.326,1.016 2.035,1.016 0.859,0 1.623,-0.528 1.996,-1.376 0.612,-1.4 0.06,-3.23 -1.477,-4.895 l -0.273,-0.296 0.401,0.035 c 2.395,0.212 2.436,4.759 2.421,5.637 1.174,0.121 1.952,-0.11 2.324,-0.681 0.766,-1.176 -0.301,-3.582 -0.703,-4.487 -0.085,-0.192 -0.147,-0.334 -0.171,-0.408 l -0.129,-0.403 0.359,0.224 c 1.139,0.707 2.133,3.143 1.74,4.896 0.774,-0.052 1.313,-0.284 1.606,-0.691 0.6,-0.835 0.151,-2.299 -0.21,-3.474 -0.234,-0.761 -0.419,-1.361 -0.296,-1.699 l 0.058,-0.162 0.156,0.074 c 1.014,0.487 1.161,1.925 1.278,3.08 0.07,0.692 0.144,1.409 0.399,1.409 0.089,0 0.262,-0.062 0.581,-0.358 0.895,-0.637 0.157,-3.041 -0.158,-4.068 l -0.076,-0.252 c -0.631,-2.131 -2.859,-3.133 -4.617,-3.598 -0.927,-0.245 -2.119,-0.375 -3.451,-0.375 -3.934,0 -8.103,1.085 -9.295,2.417 -1.409,1.584 -1.735,4.563 -0.739,6.782 0.706,1.571 1.924,2.389 3.426,2.293 0.657,-0.969 -0.01,-1.804 -0.599,-2.542 -0.319,-0.397 -0.594,-0.741 -0.659,-1.084 -0.109,-0.618 -0.207,-1.505 0.217,-2.08 0.237,-0.32 0.608,-0.515 1.107,-0.578 1.321,-0.167 2.682,1.534 4.07,5.042 l 0.103,0.258 -0.274,-0.048 c -0.577,-0.1 -0.949,0.02 -1.15,0.392 m -8.88508,-6.10792 c -0.416,0 -1.143,0.661 -1.492,0.979 -0.148,0.134 -0.221,0.2 -0.268,0.227 -1.447,0.936 -2.965,2.038 -4.432,3.103 -1.054,0.765 -2.058,1.494 -3.019,2.151 l 0.541,-0.113 c 2.957,-0.622 6.013,-1.264 9.197,-1.524 -0.189,-0.589 -0.564,-2.055 -0.258,-3.659 0.098,-0.704 0.007,-0.98 -0.085,-1.087 -0.047,-0.053 -0.104,-0.077 -0.184,-0.077 m 6.78508,2.42831 c -0.135,0 -0.266,0.045 -0.391,0.134 -0.121,0.058 -0.143,0.108 -0.152,0.141 -0.051,0.207 0.275,0.625 0.617,1.069 0.371,0.479 0.818,1.054 1.043,1.666 0.117,-0.269 0.285,-0.506 0.506,-0.708 -0.127,-1.022 -0.918,-2.302 -1.623,-2.302 m 55.11006,9.08595 c 2.635,1.491 8.859,7.4 9.808,10.669 3.3,-0.513 10.313,-2.056 12.563,-2.618 -4.737,-10.37 -10.913,-11.923 -14.182,-11.923 -3.737,0 -6.918,1.93 -8.189,3.872"
     style="fill:#632e88;fill-rule:evenodd" />
  <path
     id="path32"
     d="m 47.856514,50.42941 c 3.883,-0.083 8.469,0.281 8.385,3.365 0,0 2.771,-4.896 -8.604,-4.271 z"
     style="fill:#632e88" />
  <path
     id="path34"
     d="m 48.137715,43.08571 c 2.936,-0.562 8.219,-0.531 9.688,2.938 0,0 0.666,-5.709 -10.25,-3.875 z"
     style="fill:#632e88" />
  <path
     id="path36"
     d="m 46.137716,45.89818 c 6.995,-0.282 12.396,-0.417 11.479,4.042 0,0 -0.791,-4.542 -11.385,-3.167 z"
     style="fill:#632e88" />
  <path
     id="path38"
     d="m 313.71135,143.52744 c -0.35,-0.195 -0.91,-0.293 -1.68,-0.293 h -1.185 v 2.852 h 1.254 c 0.588,0 1.029,-0.059 1.322,-0.176 0.541,-0.215 0.812,-0.625 0.812,-1.231 0,-0.574 -0.173,-0.957 -0.523,-1.152 m -1.498,-1.24 c 0.977,0 1.693,0.093 2.148,0.283 0.815,0.338 1.221,1.004 1.221,1.994 0,0.703 -0.256,1.223 -0.767,1.555 -0.272,0.176 -0.651,0.302 -1.137,0.381 0.615,0.097 1.064,0.353 1.349,0.769 0.286,0.418 0.428,0.824 0.428,1.221 v 0.574 c 0,0.184 0.008,0.379 0.02,0.586 0.013,0.209 0.037,0.346 0.068,0.41 l 0.049,0.098 h -1.299 c -0.006,-0.028 -0.012,-0.053 -0.02,-0.078 -0.005,-0.026 -0.011,-0.055 -0.019,-0.088 l -0.029,-0.254 v -0.623 c 0,-0.908 -0.246,-1.508 -0.743,-1.801 -0.292,-0.168 -0.806,-0.252 -1.542,-0.252 h -1.094 v 3.096 h -1.387 v -7.871 z m -4.219,-0.401 c -1.197,1.203 -1.797,2.659 -1.797,4.366 0,1.718 0.596,3.183 1.787,4.394 1.2,1.211 2.655,1.817 4.366,1.817 1.713,0 3.168,-0.606 4.365,-1.817 1.199,-1.211 1.797,-2.676 1.797,-4.394 0,-1.707 -0.598,-3.163 -1.797,-4.366 -1.203,-1.211 -2.658,-1.816 -4.365,-1.816 -1.7,0 -3.151,0.605 -4.356,1.816 m 9.434,9.444 c -1.399,1.406 -3.092,2.109 -5.078,2.109 -1.985,0 -3.674,-0.703 -5.069,-2.109 -1.386,-1.401 -2.08,-3.096 -2.08,-5.088 0,-1.973 0.701,-3.66 2.1,-5.059 1.394,-1.394 3.076,-2.09 5.049,-2.09 1.986,0 3.679,0.696 5.078,2.09 1.4,1.393 2.099,3.078 2.099,5.059 0,1.984 -0.699,3.681 -2.099,5.088"
     style="fill:#632e88" />
  <path
     id="path40"
     style="fill:#632e88"
     d="m 76.898412,45.96438 0.02,-0.454 c 0.002,-0.047 0.194,-4.654 0.535,-6.847 0.316,-2.098 -0.717,-3.209 -0.727,-3.22 -0.351,-0.595 -0.472,-0.963 -0.38,-1.123 0.04,-0.068 0.11,-0.107 0.193,-0.107 0.152,0 0.416,0.122 1.296,1.013 3.118,3.152 0.073,9.54 -0.644,10.39 z" />
  <path
     id="path42"
     style="fill:#632e88"
     d="m 74.765412,64.10738 c -0.107,0 -0.195,-0.047 -0.248,-0.132 -0.154,-0.257 0.123,-0.841 0.248,-1.081 l 0.03,-0.037 c 0.019,-0.02 1.968,-2 1.517,-4.068 -0.473,-2.186 -0.017,-5.014 0.002,-5.133 l 0.051,-0.307 0.215,0.225 c 0.486,0.507 1.659,2.843 1.552,5.35 -0.075,1.75 -0.748,3.197 -2,4.3 -0.886,0.783 -1.197,0.883 -1.367,0.883" />
  <path
     id="path44"
     d="m 88.163412,57.23838 h -0.079 l -0.06,-0.069 c -0.06,-0.08 -0.03,-0.179 -0.017,-0.221 1.082,-3.568 1.211,-9.401 -0.323,-12.397 -0.04,-0.112 -0.016,-0.173 0.009,-0.208 l 0.047,-0.065 0.096,-0.007 c 0.138,0 0.347,0.159 1.179,0.894 0.21,0.186 0.469,0.415 0.539,0.46 0.086,0.027 0.33,0.119 0.644,1.049 0.634,1.88 1.348,6.933 -0.655,9.708 l -0.047,0.066 h -0.08 c -0.255,0 -0.642,0.34 -0.873,0.544 -0.2,0.175 -0.282,0.247 -0.38,0.247"
     style="fill:#632e88" />
  <use
     id="use46"
     transform="translate(165.20437)"
     xlink:href="#path8" />
  <use
     id="use48"
     transform="translate(138.01136)"
     xlink:href="#path14" />
  <use
     id="use50"
     xlink:href="#path14"
     transform="translate(161.91126)" />
</svg>
