<?xml version="1.0" encoding="UTF-8"?><svg xmlns="http://www.w3.org/2000/svg" xmlns:xlink="http://www.w3.org/1999/xlink" width="531pt" height="220pt" viewBox="0 0 531 220"><g transform="translate(79.2002, 85.2002)" style="fill:#161413; fill-rule:nonzero; stroke:none; stroke-width:2; stroke-linecap:butt; stroke-linejoin:miter; stroke-dasharray:none;"><path d="M1.9502 47.1498C1.9502 47.1498 0 48.2998 0 48.2998C0 48.2998 0 0.5996 0 0.5996C0 0.5996 0.9502 0 0.9502 0C0.9502 0 1.9502 0.5996 1.9502 0.5996C1.9502 0.5996 1.9502 47.1498 1.9502 47.1498Z"/></g><g transform="translate(87.75, 90.2002)" style="fill:#161413; fill-rule:nonzero; stroke:none; stroke-width:2; stroke-linecap:butt; stroke-linejoin:miter; stroke-dasharray:none;"><path d="M2 37.7498C2 37.7498 0 37.7498 0 37.7498C0 37.7498 0 0 0 0C0 0 2 0 2 0C2 0 2 37.7498 2 37.7498Z"/></g><g transform="translate(79.2002, 132.35)" style="fill:#161413; fill-rule:nonzero; stroke:none; stroke-width:2; stroke-linecap:butt; stroke-linejoin:miter; stroke-dasharray:none;"><path d="M42.2498 23.25C42.2498 23.25 42.2498 25.55 42.2498 25.55C42.2498 25.55 0 1.15 0 1.15C0 1.15 1.9502 0 1.9502 0C1.9502 0 42.2498 23.25 42.2498 23.25Z"/></g><g transform="translate(121.45, 132.35)" style="fill:#161413; fill-rule:nonzero; stroke:none; stroke-width:2; stroke-linecap:butt; stroke-linejoin:miter; stroke-dasharray:none;"><path d="M40.35 0C40.35 0 41.35 0.55 41.35 0.55C41.35 0.55 41.35 1.7 41.35 1.7C41.35 1.7 0 25.55 0 25.55C0 25.55 0 23.25 0 23.25C0 23.25 40.35 0 40.35 0Z"/></g><g transform="translate(121, 127.1)" style="fill:#161413; fill-rule:nonzero; stroke:none; stroke-width:2; stroke-linecap:butt; stroke-linejoin:miter; stroke-dasharray:none;"><path d="M32.7 0C32.7 0 33.7 1.7 33.7 1.7C33.7 1.7 0.95 20.6 0.95 20.6C0.95 20.6 0 18.9 0 18.9C0 18.9 32.7 0 32.7 0Z"/></g><g transform="translate(161.8, 84.6504)" style="fill:#161413; fill-rule:nonzero; stroke:none; stroke-width:2; stroke-linecap:butt; stroke-linejoin:miter; stroke-dasharray:none;"><path d="M0 1.1494C0 1.1494 1.95 0 1.95 0C1.95 0 1.95 47.6996 1.95 47.6996C1.95 47.6996 1 48.2496 1 48.2496C1 48.2496 0 47.6996 0 47.6996C0 47.6996 0 1.1494 0 1.1494Z"/></g><g transform="translate(121.45, 60.7998)" style="fill:#161413; fill-rule:nonzero; stroke:none; stroke-width:2; stroke-linecap:butt; stroke-linejoin:miter; stroke-dasharray:none;"><path d="M0 1.7002C0 1.7002 0 0.5498 0 0.5498C0 0.5498 1 0 1 0C1 0 42.3 23.8506 42.3 23.8506C42.3 23.8506 40.35 25 40.35 25C40.35 25 0 1.7002 0 1.7002Z"/></g><g transform="translate(121, 70.4502)" style="fill:#161413; fill-rule:nonzero; stroke:none; stroke-width:2; stroke-linecap:butt; stroke-linejoin:miter; stroke-dasharray:none;"><path d="M0 1.7002C0 1.7002 0.95 0 0.95 0C0.95 0 33.7 18.8496 33.7 18.8496C33.7 18.8496 32.7 20.5996 32.7 20.5996C32.7 20.5996 0 1.7002 0 1.7002Z"/></g><g transform="translate(80.1504, 60.7998)" style="fill:#161413; fill-rule:nonzero; stroke:none; stroke-width:2; stroke-linecap:butt; stroke-linejoin:miter; stroke-dasharray:none;"><path d="M1 25C1 25 0 24.4004 0 24.4004C0 24.4004 0 23.25 0 23.25C0 23.25 40.3496 0 40.3496 0C40.3496 0 41.2996 0.5498 41.2996 0.5498C41.2996 0.5498 41.2996 1.7002 41.2996 1.7002C41.2996 1.7002 1 25 1 25Z"/></g><g transform="translate(5.24902, 50.3555)" style="fill:#161413; fill-rule:evenodd; stroke:none; stroke-width:2; stroke-linecap:butt; stroke-linejoin:miter; stroke-dasharray:none;"><path d="M15.5 13.1484C15.5 13.1484 15.5 24.1445 15.5 24.1445C15.5 24.1445 18.5801 24.1445 18.5801 24.1445C18.5801 24.1445 18.5801 0 18.5801 0C18.5801 0 15.5 0 15.5 0C15.5 0 15.5 10.4326 15.5 10.4326C15.5 10.4326 3.08008 10.4326 3.08008 10.4326C3.08008 10.4326 3.08008 0 3.08008 0C3.08008 0 0 0 0 0C0 0 0 24.1445 0 24.1445C0 24.1445 3.11328 24.1445 3.11328 24.1445C3.11328 24.1445 3.11328 13.1484 3.11328 13.1484C3.11328 13.1484 15.5 13.1484 15.5 13.1484Z"/></g><g transform="translate(27.5088, 49.958)" style="fill:#161413; fill-rule:evenodd; stroke:none; stroke-width:2; stroke-linecap:butt; stroke-linejoin:miter; stroke-dasharray:none;"><path d="M11.625 0C4.7031 0 0 5.1006 0 12.6524C0 20.2031 4.7031 25.3037 11.6582 25.3037C14.5723 25.3037 17.1894 24.4092 19.1435 22.7539C21.7598 20.5342 23.3164 16.792 23.3164 12.8506C23.3164 5.0674 18.7129 0 11.625 0ZM11.625 2.7158C16.8574 2.7158 20.2363 6.6904 20.2363 12.7842C20.2363 18.6133 16.7588 22.5879 11.6582 22.5879C6.5244 22.5879 3.0801 18.6133 3.0801 12.6524C3.0801 6.6904 6.5244 2.7158 11.625 2.7158Z"/></g><g transform="translate(54, 69.5)" style="fill:#161413; fill-rule:nonzero; stroke:none; stroke-width:2; stroke-linecap:butt; stroke-linejoin:miter; stroke-dasharray:none;"><path d="M0 1.75C0 1.75 0.9502 0 0.9502 0C0.9502 0 26.1504 14.5498 26.1504 14.5498C26.1504 14.5498 26.1504 15.7002 26.1504 15.7002C26.1504 15.7002 25.2002 16.2998 25.2002 16.2998C25.2002 16.2998 0 1.75 0 1.75Z"/></g><g transform="translate(120.062, 2.60547)" style="fill:#161413; fill-rule:evenodd; stroke:none; stroke-width:2; stroke-linecap:butt; stroke-linejoin:miter; stroke-dasharray:none;"><path d="M3.113 0C3.113 0 0 0 0 0C0 0 0 24.1445 0 24.1445C0 24.1445 3.113 24.1445 3.113 24.1445C3.113 24.1445 3.113 0 3.113 0Z"/></g><g transform="translate(120.5, 32.1504)" style="fill:#161413; fill-rule:nonzero; stroke:none; stroke-width:2; stroke-linecap:butt; stroke-linejoin:miter; stroke-dasharray:none;"><path d="M0 0C0 0 1.95 0 1.95 0C1.95 0 1.95 28.6494 1.95 28.6494C1.95 28.6494 0.95 29.1992 0.95 29.1992C0.95 29.1992 0 28.6494 0 28.6494C0 28.6494 0 0 0 0Z"/></g><g transform="translate(192.259, 145.208)" style="fill:#161413; fill-rule:evenodd; stroke:none; stroke-width:2; stroke-linecap:butt; stroke-linejoin:miter; stroke-dasharray:none;"><path d="M11.625 0C4.703 0 0 5.101 0 12.652C0 20.203 4.703 25.304 11.658 25.304C14.572 25.304 17.189 24.409 19.143 22.754C21.76 20.534 23.316 16.792 23.316 12.851C23.316 5.067 18.713 0 11.625 0ZM11.625 2.716C16.857 2.716 20.236 6.69 20.236 12.784C20.236 18.613 16.759 22.588 11.658 22.588C6.524 22.588 3.08 18.613 3.08 12.652C3.08 6.69 6.524 2.716 11.625 2.716Z"/></g><g transform="translate(162.8, 132.35)" style="fill:#161413; fill-rule:nonzero; stroke:none; stroke-width:2; stroke-linecap:butt; stroke-linejoin:miter; stroke-dasharray:none;"><path d="M27.3 15.2C27.3 15.2 26.3 16.9 26.3 16.9C26.3 16.9 0 1.7 0 1.7C0 1.7 0 0.55 0 0.55C0 0.55 0.95 0 0.95 0C0.95 0 27.3 15.2 27.3 15.2Z"/></g><g transform="translate(217.75, 132.35)" style="fill:#161413; fill-rule:nonzero; stroke:none; stroke-width:2; stroke-linecap:butt; stroke-linejoin:miter; stroke-dasharray:none;"><path d="M26.35 0C26.35 0 27.35 0.55 27.35 0.55C27.35 0.55 27.35 1.7 27.35 1.7C27.35 1.7 1 16.9 1 16.9C1 16.9 0 15.2 0 15.2C0 15.2 26.35 0 26.35 0Z"/></g><g transform="translate(245.1, 132.35)" style="fill:#161413; fill-rule:nonzero; stroke:none; stroke-width:2; stroke-linecap:butt; stroke-linejoin:miter; stroke-dasharray:none;"><path d="M41.3 23.25C41.3 23.25 41.3 24.4 41.3 24.4C41.3 24.4 40.3 25 40.3 25C40.3 25 0 1.7 0 1.7C0 1.7 0 0.55 0 0.55C0 0.55 1 0 1 0C1 0 41.3 23.25 41.3 23.25Z"/></g><g transform="translate(253.2, 127.1)" style="fill:#161413; fill-rule:nonzero; stroke:none; stroke-width:2; stroke-linecap:butt; stroke-linejoin:miter; stroke-dasharray:none;"><path d="M33.7 18.9C33.7 18.9 32.7 20.6 32.7 20.6C32.7 20.6 0 1.7 0 1.7C0 1.7 1 0 1 0C1 0 33.7 18.9 33.7 18.9Z"/></g><g transform="translate(286.4, 132.35)" style="fill:#161413; fill-rule:nonzero; stroke:none; stroke-width:2; stroke-linecap:butt; stroke-linejoin:miter; stroke-dasharray:none;"><path d="M40.3 0C40.3 0 42.3 1.15 42.3 1.15C42.3 1.15 1 25 1 25C1 25 0 24.4 0 24.4C0 24.4 0 23.25 0 23.25C0 23.25 40.3 0 40.3 0Z"/></g><g transform="translate(326.7, 85.2002)" style="fill:#161413; fill-rule:nonzero; stroke:none; stroke-width:2; stroke-linecap:butt; stroke-linejoin:miter; stroke-dasharray:none;"><path d="M0 0.5996C0 0.5996 1 0 1 0C1 0 2 0.5996 2 0.5996C2 0.5996 2 48.2998 2 48.2998C2 48.2998 0 47.1498 0 47.1498C0 47.1498 0 0.5996 0 0.5996Z"/></g><g transform="translate(318.1, 90.2002)" style="fill:#161413; fill-rule:nonzero; stroke:none; stroke-width:2; stroke-linecap:butt; stroke-linejoin:miter; stroke-dasharray:none;"><path d="M0 0C0 0 2 0 2 0C2 0 2 37.7498 2 37.7498C2 37.7498 0 37.7498 0 37.7498C0 37.7498 0 0 0 0Z"/></g><g transform="translate(286.4, 60.25)" style="fill:#161413; fill-rule:nonzero; stroke:none; stroke-width:2; stroke-linecap:butt; stroke-linejoin:miter; stroke-dasharray:none;"><path d="M0 2.25C0 2.25 0 0 0 0C0 0 41.3 23.7998 41.3 23.7998C41.3 23.7998 41.3 24.9502 41.3 24.9502C41.3 24.9502 40.3 25.5498 40.3 25.5498C40.3 25.5498 0 2.25 0 2.25Z"/></g><g transform="translate(245.1, 60.25)" style="fill:#161413; fill-rule:nonzero; stroke:none; stroke-width:2; stroke-linecap:butt; stroke-linejoin:miter; stroke-dasharray:none;"><path d="M1 25.5498C1 25.5498 0 24.9502 0 24.9502C0 24.9502 0 23.7998 0 23.7998C0 23.7998 41.3 0 41.3 0C41.3 0 41.3 2.25 41.3 2.25C41.3 2.25 1 25.5498 1 25.5498Z"/></g><g transform="translate(253.2, 70.4502)" style="fill:#161413; fill-rule:nonzero; stroke:none; stroke-width:2; stroke-linecap:butt; stroke-linejoin:miter; stroke-dasharray:none;"><path d="M1 20.5996C1 20.5996 0 18.8496 0 18.8496C0 18.8496 32.7 0 32.7 0C32.7 0 33.7 1.7002 33.7 1.7002C33.7 1.7002 1 20.5996 1 20.5996Z"/></g><g transform="translate(244.1, 85.2002)" style="fill:#161413; fill-rule:nonzero; stroke:none; stroke-width:2; stroke-linecap:butt; stroke-linejoin:miter; stroke-dasharray:none;"><path d="M2 47.1498C2 47.1498 1 47.6998 1 47.6998C1 47.6998 0 47.1498 0 47.1498C0 47.1498 0 0.5996 0 0.5996C0 0.5996 1 0 1 0C1 0 2 0.5996 2 0.5996C2 0.5996 2 47.1498 2 47.1498Z"/></g><g transform="translate(202.562, 50.3555)" style="fill:#161413; fill-rule:evenodd; stroke:none; stroke-width:2; stroke-linecap:butt; stroke-linejoin:miter; stroke-dasharray:none;"><path d="M3.113 0C3.113 0 0 0 0 0C0 0 0 24.1445 0 24.1445C0 24.1445 3.113 24.1445 3.113 24.1445C3.113 24.1445 3.113 0 3.113 0Z"/></g><g transform="translate(212.75, 66)" style="fill:#161413; fill-rule:nonzero; stroke:none; stroke-width:2; stroke-linecap:butt; stroke-linejoin:miter; stroke-dasharray:none;"><path d="M0 1.7002C0 1.7002 1 0 1 0C1 0 32.35 18.0498 32.35 18.0498C32.35 18.0498 32.35 19.2002 32.35 19.2002C32.35 19.2002 31.35 19.7998 31.35 19.7998C31.35 19.7998 0 1.7002 0 1.7002Z"/></g><g transform="translate(285.062, 193.105)" style="fill:#161413; fill-rule:evenodd; stroke:none; stroke-width:2; stroke-linecap:butt; stroke-linejoin:miter; stroke-dasharray:none;"><path d="M3.113 0C3.113 0 0 0 0 0C0 0 0 24.145 0 24.145C0 24.145 3.113 24.145 3.113 24.145C3.113 24.145 3.113 0 3.113 0Z"/></g><g transform="translate(285.4, 156.75)" style="fill:#161413; fill-rule:nonzero; stroke:none; stroke-width:2; stroke-linecap:butt; stroke-linejoin:miter; stroke-dasharray:none;"><path d="M2 31.6C2 31.6 0 31.6 0 31.6C0 31.6 0 0.6 0 0.6C0 0.6 1 0 1 0C1 0 2 0.6 2 0.6C2 0.6 2 31.6 2 31.6Z"/></g><g transform="translate(327.7, 60.5996)" style="fill:#161413; fill-rule:nonzero; stroke:none; stroke-width:2; stroke-linecap:butt; stroke-linejoin:miter; stroke-dasharray:none;"><path d="M40.65 0C40.65 0 41.65 1.7002 41.65 1.7002C41.65 1.7002 1 25.2002 1 25.2002C1 25.2002 0 24.6006 0 24.6006C0 24.6006 0 23.4502 0 23.4502C0 23.4502 40.65 0 40.65 0Z"/></g><g transform="translate(367.95, 61.4502)" style="fill:none; stroke:#161413; stroke-width:2; stroke-linecap:butt; stroke-linejoin:miter; stroke-dasharray:none;"><path d="M42.8 20.3496C41.3 19.5 39.35 20.0996 38.45 21.7002C37.55 23.25 35.6 23.8496 34.1 23C32.65 22.1494 32.15 20.1494 33.1 18.5996C34 17 33.55 15 32.05 14.1494C30.6 13.2998 28.65 13.8994 27.75 15.5C26.8 17.0498 24.85 17.6494 23.4 16.7998C21.9 15.9502 21.45 13.9502 22.35 12.3994C23.3 10.7998 22.8 8.8496 21.35 7.9502C19.85 7.0996 17.9 7.7002 17 9.2998C16.1 10.8994 14.15 11.4502 12.65 10.5996C11.2 9.75 10.7 7.7998 11.65 6.2002C12.55 4.5996 12.1 2.6494 10.6 1.7998C9.15 0.9502 7.2 1.5 6.25 3.0996C5.35 4.7002 3.4 5.2998 1.95 4.3994C0.45 3.5498 0 1.5996 0.9 0"/></g><g transform="translate(409.05, 60.2998)" style="fill:#161413; fill-rule:nonzero; stroke:none; stroke-width:2; stroke-linecap:butt; stroke-linejoin:miter; stroke-dasharray:none;"><path d="M42.15 0C42.15 0 42.15 2.2998 42.15 2.2998C42.15 2.2998 1.95 25.5 1.95 25.5C1.95 25.5 0 24.3506 0 24.3506C0 24.3506 42.15 0 42.15 0Z"/></g><g transform="translate(400.768, 121.605)" style="fill:#161413; fill-rule:evenodd; stroke:none; stroke-width:2; stroke-linecap:butt; stroke-linejoin:miter; stroke-dasharray:none;"><path d="M18.878 0C18.878 0 15.963 0 15.963 0C15.963 0 15.963 19.74 15.963 19.74C15.963 19.74 3.344 0 3.344 0C3.344 0 0 0 0 0C0 0 0 24.145 0 24.145C0 24.145 2.914 24.145 2.914 24.145C2.914 24.145 2.914 4.571 2.914 4.571C2.914 4.571 15.4 24.145 15.4 24.145C15.4 24.145 18.878 24.145 18.878 24.145C18.878 24.145 18.878 0 18.878 0Z"/></g><g transform="translate(424.749, 121.605)" style="fill:#161413; fill-rule:evenodd; stroke:none; stroke-width:2; stroke-linecap:butt; stroke-linejoin:miter; stroke-dasharray:none;"><path d="M15.5 13.149C15.5 13.149 15.5 24.145 15.5 24.145C15.5 24.145 18.58 24.145 18.58 24.145C18.58 24.145 18.58 0 18.58 0C18.58 0 15.5 0 15.5 0C15.5 0 15.5 10.433 15.5 10.433C15.5 10.433 3.08 10.433 3.08 10.433C3.08 10.433 3.08 0 3.08 0C3.08 0 0 0 0 0C0 0 0 24.145 0 24.145C0 24.145 3.113 24.145 3.113 24.145C3.113 24.145 3.113 13.149 3.113 13.149C3.113 13.149 15.5 13.149 15.5 13.149Z"/></g><g transform="translate(446.845, 134.389)" style="fill:#161413; fill-rule:evenodd; stroke:none; stroke-width:2; stroke-linecap:butt; stroke-linejoin:miter; stroke-dasharray:none;"><path d="M11.724 15.45C11.724 15.45 2.459 15.45 2.459 15.45C2.682 14.009 3.477 13.09 5.638 11.823C5.638 11.823 8.122 10.482 8.122 10.482C10.582 9.14 11.848 7.327 11.848 5.167C11.848 3.701 11.252 2.335 10.209 1.39C9.166 0.447 7.874 0 6.21 0C3.974 0 2.309 0.795 1.341 2.285C0.719 3.229 0.447 4.322 0.397 6.11C0.397 6.11 2.583 6.11 2.583 6.11C2.657 4.918 2.806 4.198 3.104 3.626C3.676 2.558 4.818 1.912 6.135 1.912C8.122 1.912 9.613 3.328 9.613 5.215C9.613 6.607 8.793 7.799 7.228 8.693C7.228 8.693 4.943 9.985 4.943 9.985C1.266 12.072 0.198 13.736 0 17.611C0 17.611 11.724 17.611 11.724 17.611C11.724 17.611 11.724 15.45 11.724 15.45Z"/></g><g transform="translate(409.05, 84.6504)" style="fill:#161413; fill-rule:nonzero; stroke:none; stroke-width:2; stroke-linecap:butt; stroke-linejoin:miter; stroke-dasharray:none;"><path d="M1.95 32.1496C1.95 32.1496 0 32.1496 0 32.1496C0 32.1496 0 0 0 0C0 0 1.95 1.1494 1.95 1.1494C1.95 1.1494 1.95 32.1496 1.95 32.1496Z"/></g><g transform="translate(480.759, 73.708)" style="fill:#161413; fill-rule:evenodd; stroke:none; stroke-width:2; stroke-linecap:butt; stroke-linejoin:miter; stroke-dasharray:none;"><path d="M11.625 0C4.703 0 0 5.1006 0 12.6524C0 20.2031 4.703 25.3037 11.658 25.3037C14.572 25.3037 17.189 24.4092 19.143 22.7539C21.76 20.5342 23.316 16.792 23.316 12.8506C23.316 5.0674 18.713 0 11.625 0ZM11.625 2.7158C16.857 2.7158 20.236 6.6904 20.236 12.7842C20.236 18.6133 16.759 22.5879 11.658 22.5879C6.524 22.5879 3.08 18.6133 3.08 12.6524C3.08 6.6904 6.524 2.7158 11.625 2.7158Z"/></g><g transform="translate(507.999, 74.1055)" style="fill:#161413; fill-rule:evenodd; stroke:none; stroke-width:2; stroke-linecap:butt; stroke-linejoin:miter; stroke-dasharray:none;"><path d="M15.5 13.1484C15.5 13.1484 15.5 24.1445 15.5 24.1445C15.5 24.1445 18.58 24.1445 18.58 24.1445C18.58 24.1445 18.58 0 18.58 0C18.58 0 15.5 0 15.5 0C15.5 0 15.5 10.4326 15.5 10.4326C15.5 10.4326 3.08 10.4326 3.08 10.4326C3.08 10.4326 3.08 0 3.08 0C3.08 0 0 0 0 0C0 0 0 24.1445 0 24.1445C0 24.1445 3.113 24.1445 3.113 24.1445C3.113 24.1445 3.113 13.1484 3.113 13.1484C3.113 13.1484 15.5 13.1484 15.5 13.1484Z"/></g><g transform="translate(451.2, 60.2998)" style="fill:#161413; fill-rule:nonzero; stroke:none; stroke-width:2; stroke-linecap:butt; stroke-linejoin:miter; stroke-dasharray:none;"><path d="M27.3 15.7998C27.3 15.7998 26.3 17.5 26.3 17.5C26.3 17.5 0 2.2998 0 2.2998C0 2.2998 0 0 0 0C0 0 27.3 15.7998 27.3 15.7998Z"/></g><g transform="translate(439.509, 2.45801)" style="fill:#161413; fill-rule:evenodd; stroke:none; stroke-width:2; stroke-linecap:butt; stroke-linejoin:miter; stroke-dasharray:none;"><path d="M11.625 0C4.703 0 0 5.10058 0 12.6524C0 20.2031 4.703 25.3037 11.658 25.3037C14.572 25.3037 17.189 24.4092 19.143 22.7539C21.76 20.5342 23.316 16.792 23.316 12.8506C23.316 5.06738 18.713 0 11.625 0ZM11.625 2.71582C16.857 2.71582 20.236 6.69043 20.236 12.7842C20.236 18.6133 16.759 22.5879 11.658 22.5879C6.524 22.5879 3.08 18.6133 3.08 12.6524C3.08 6.69043 6.524 2.71582 11.625 2.71582Z"/></g><g transform="translate(445.9, 32.6504)" style="fill:#161413; fill-rule:nonzero; stroke:none; stroke-width:2; stroke-linecap:butt; stroke-linejoin:miter; stroke-dasharray:none;"><path d="M0 0C0 0 2 0 2 0C2 0 2 31.2998 2 31.2998C2 31.2998 0 31.2998 0 31.2998C0 31.2998 0 0 0 0Z"/></g><g transform="translate(454.45, 32.6504)" style="fill:#161413; fill-rule:nonzero; stroke:none; stroke-width:2; stroke-linecap:butt; stroke-linejoin:miter; stroke-dasharray:none;"><path d="M0 0C0 0 2 0 2 0C2 0 2 31.2998 2 31.2998C2 31.2998 0 31.2998 0 31.2998C0 31.2998 0 0 0 0Z"/></g></svg>